<?xml version="1.0" standalone="no"?>
<!DOCTYPE svg PUBLIC "-//W3C//DTD SVG 1.1//EN" "http://www.w3.org/Graphics/SVG/1.1/DTD/svg11.dtd" >
<svg xmlns="http://www.w3.org/2000/svg" xmlns:xlink="http://www.w3.org/1999/xlink" version="1.1">
<metadata>
Created by FontForge 20190801 at Thu Mar 26 09:26:08 2020
 By Jimmy Wärting
Copyright (c) 2019-2020 gluk (glukfonts.pl)
All Rights Reserved.
Font for PERSONAL Use.
</metadata>
<defs>
<font id="BigPartyO2Green" horiz-adv-x="336" >
  <font-face 
    font-family="BigPartyO2Green"
    font-weight="500"
    font-stretch="normal"
    units-per-em="1000"
    panose-1="2 0 6 3 0 0 0 0 0 0"
    ascent="740"
    descent="-260"
    x-height="344"
    cap-height="575"
    bbox="-294 -251 675 783"
    underline-thickness="50"
    underline-position="-150"
    unicode-range="U+0020-E02F"
  />
<missing-glyph horiz-adv-x="545" 
d="M276 260l116 -173v347zM156 83h233l-117 173zM153 87l116 173l-116 174v-347zM156 438l116 -173l117 173h-233zM120 50v421h305v-421h-305z" />
    <glyph glyph-name=".notdef" horiz-adv-x="545" 
d="M276 260l116 -173v347zM156 83h233l-117 173zM153 87l116 173l-116 174v-347zM156 438l116 -173l117 173h-233zM120 50v421h305v-421h-305z" />
    <glyph glyph-name=".null" horiz-adv-x="0" 
 />
    <glyph glyph-name="nonmarkingreturn" horiz-adv-x="333" 
 />
    <glyph glyph-name="space" unicode=" " horiz-adv-x="230" 
 />
    <glyph glyph-name="exclam" unicode="!" horiz-adv-x="223" 
d="M18 34q0 53 30 79t74 26q40 0 64 -23.5t24 -61.5q0 -45 -33.5 -74.5t-80.5 -29.5q-32 0 -55 25t-23 59zM-20 546l1 4q115 24 183 24q29 0 48.5 -19.5t19.5 -50.5q0 -33 -13.5 -140.5t-25.5 -166.5q-9 -51 -55 -51q-44 0 -76 -10l-26 -8v27q0 17 3 102t3 112
q0 44 -11 80.5t-22 54.5t-29 42zM30 42q0 -26 17.5 -45t40.5 -19q39 0 66.5 23.5t27.5 60.5q0 29 -17.5 47t-50.5 18q-34 0 -59 -23t-25 -62zM4 539q50 -64 50 -162q0 -28 -3 -113t-3 -101q38 11 82 11q29 0 36 35q11 58 24.5 165.5t13.5 137.5q0 22 -13.5 35t-34.5 13
q-59 0 -152 -21z" />
    <glyph glyph-name="quotedbl" unicode="&#x22;" horiz-adv-x="345" 
d="M178 599q0 -34 26 -51q8 4 15 4q17 0 17 -19q0 -18 -13.5 -44.5t-28.5 -41.5q12 -5 25 -5q19 0 38.5 7t28.5 15q17 27 31.5 68t14.5 76q0 76 -70 76q-34 0 -59 -23t-25 -62zM-2 534q0 50 29.5 77.5t74.5 27.5q44 0 68 -27q7 39 34.5 60.5t67.5 21.5q45 0 67.5 -26.5
t22.5 -69.5q0 -78 -51 -157q-33 -29 -82 -29q-31 0 -60 19q52 47 56 90q-6 0 -13 -6q-12 8 -20 16q-5 -71 -51 -145q-33 -29 -82 -29q-31 0 -60 19q52 47 56 90q-6 0 -13 -6q-44 25 -44 74zM8 544q0 -34 26 -51q8 4 15 4q17 0 17 -19q0 -18 -13.5 -44.5t-28.5 -41.5
q12 -5 25 -5q19 0 38.5 7t28.5 15q17 27 31.5 68t14.5 76q0 76 -70 76q-34 0 -59 -23t-25 -62z" />
    <glyph glyph-name="numbersign" unicode="#" horiz-adv-x="427" 
d="M3 142q0 -26 12 -42q19 4 59 8q0 -98 12 -150q38 -10 90 -10q-9 105 -9 164l61 1v-11q0 -109 10 -154q38 -10 90 -10q-7 70 -7 162v16q36 2 76 10q10 38 10 89q-6 0 -35 -2.5t-49 -3.5q1 11 1.5 32.5t0.5 33.5q36 1 77 9q10 38 10 89q-31 -3 -87 -5q-2 108 -11 140
q-18 14 -53 14q-29 0 -43 -10q13 -67 14 -146l-60 -1q0 113 -10 145q-25 22 -53 22q-27 0 -43 -12q12 -63 12 -158q-43 -4 -56 -8q-14 -18 -14 -54q0 -28 10 -42q21 4 59 8l-2 -63q-27 -1 -50 -7q-22 -25 -22 -54zM168 205l3 66l61 2l-2 -67zM-7 132q0 35 31 71l5 2
q21 6 37 6l1 23l-35 -6l-12 -2l-8 10q-14 18 -14 54q0 41 22 71q15 6 48 9q-1 85 -14 148q30 24 65 24t66 -27q1 -1 3 -2.5l2 -1.5q0 -4 1 -6q10 -33 11 -130q2 0 10 0.5t9 0.5q-4 79 -12 122l-3 12q27 22 65 22q40 0 65 -19q0 -1 2.5 -2t3.5 -1q1 -2 0 -4l1 -3
q10 -33 12 -124q18 1 65 4l22 2v-22q0 -55 -11 -95q-1 -1 -2 -5.5t-1 -5.5q-1 -1 -6 -2t-6 -1q-22 -5 -61 -8q0 -5 -0.5 -13.5t-0.5 -12.5q10 1 32 2.5t29 2.5q2 0 11 1t11 1v-22q0 -55 -11 -95l-3 -11q-1 -1 -6 -2t-6 -1q-32 -7 -60 -9q0 -71 9 -179q-72 2 -129 13
q-13 58 -13 161h-21q0 -29 2.5 -65.5t5.5 -66.5t3 -32q-80 0 -117 10l-12 3q0 8 -2 12q-12 55 -13 133q-9 -1 -35 -6q-4 0 -12 -2l-8 10q-16 21 -16 54zM199 215l21 1l1 26h-21z" />
    <glyph glyph-name="dollar" unicode="$" horiz-adv-x="334" 
d="M9 59q16 -3 45 -10.5t42 -10.5q2 -92 10 -130q38 -10 90 -10q-6 75 -7 139q52 12 86 50t34 86q0 36 -22 64t-58 39q-49 15 -55 24q-2 4 -2 7q0 9 14 9q29 0 52 -7q13 96 48 161q-63 11 -93 15q-2 95 -11 125q-25 22 -53 22q-27 0 -43 -12q13 -64 14 -135
q-34 -9 -56.5 -32t-22.5 -51q0 -53 42 -98q43 -46 43 -98q0 -19 -12 -32.5t-29 -13.5q-8 0 -16 3.5t-18 10t-16 9.5zM-2 33l9 172l28 -14q8 -4 16.5 -9.5t14 -8.5t9.5 -3q8 0 14.5 7.5t6.5 18.5q0 42 -38 84q-47 51 -47 112q0 30 20.5 57t57.5 41q-1 28 -3.5 52.5t-4.5 37
t-4.5 24.5t-2.5 14l10 7q23 17 55 17q35 0 71 -31q11 -33 13 -118q30 -4 77 -13l27 -5l-13 -24q-19 -35 -31 -80t-15 -66.5t-3 -27.5q34 -17 54 -47t20 -67q0 -48 -31.5 -90t-88.5 -61q2 -78 9 -144q-80 0 -129 13q-12 44 -13 131q-16 4 -37 9.5t-51 11.5z" />
    <glyph glyph-name="percent" unicode="%" horiz-adv-x="595" 
d="M79 383q5 -5 17 -5q10 0 10 9q-5 5 -14 5q-11 0 -13 -9zM389 59q5 -5 14 -5q11 0 13 9q-5 5 -17 5q-10 0 -10 -9zM-10 412q0 71 47.5 107.5t129.5 36.5q60 0 92 -41q5 -5 9 -11l-3 -3q31 -30 31 -101v-2l-1 -1q-10 -47 -35 -78q86 74 88 76q30 30 53 62l14 19l17 -16
q49 -49 77 -85q-4 -42 -49 -87q-8 -8 -85 -78q28 16 63 16q72 0 125 -39t53 -98q0 -65 -48.5 -104.5t-128.5 -39.5q-60 0 -92 41q-1 2 -3 4.5t-4 4.5l-1 2q1 2 2 3q-31 30 -31 100v2q1 0 1 2q0 37 20 66q-28 -26 -35 -33q-73 -73 -73 -114q-33 13 -46 20.5t-31 25.5
q-22 22 -41 68v4q0 32 86 118q3 3 13.5 12t16.5 15q-24 -13 -51 -13q-72 0 -126 40t-54 99zM0 422q0 -49 46.5 -83t111.5 -34q39 0 69 29.5t39 75.5q0 76 -37 94l5 8q-26 34 -77 34q-70 0 -113.5 -33t-43.5 -91zM49 390q0 14 9.5 23t23.5 9t24 -7t10 -17q0 -13 -8.5 -21.5
t-21.5 -8.5q-15 0 -26 7t-11 15zM320 110q0 -76 37 -94l-5 -8q25 -33 77 -33q70 0 113.5 33t43.5 91q0 49 -46.5 83t-111.5 34q-39 0 -69 -30t-39 -76zM359 68q0 13 8.5 21.5t21.5 8.5q15 0 26 -7t11 -15q0 -14 -9.5 -23t-23.5 -9t-24 7t-10 17zM115 151q17 -39 35 -57
q20 -20 49 -33q7 34 73 100q18 18 82.5 76t81.5 75q36 36 42 67q-27 32 -71 76q-27 -36 -55 -64q-13 -13 -80.5 -71t-77.5 -68q-79 -79 -79 -101z" />
    <glyph glyph-name="ampersand" unicode="&#x26;" horiz-adv-x="642" 
d="M-6 253q0 77 53.5 136.5t134.5 59.5q34 0 77 -10t71 -10q14 0 32 12.5t24 30.5q0 2 1.5 7t2.5 6h48q-4 -12 -10 -27q-4 -9 -22.5 -51t-24.5 -65q-3 -11 -7 -27q5 0 8 3q23 17 69 17q14 0 23 -1q-4 32 -11 57q0 1 -1.5 6t-2.5 8.5t-1 4.5q35 11 63 11q22 0 36 -3
q13 -22 22 -90q32 4 60 32q21 -40 21 -87q0 -41 -15 -78q-23 -23 -76 -24q-27 -96 -100.5 -158.5t-178.5 -62.5q-126 0 -211 83.5t-85 219.5zM4 263q0 -129 79 -206t197 -77q103 0 172.5 63t91.5 159q5 -1 10 -1q48 0 64 16q12 29 12 66q0 29 -9 54q-27 -20 -70 -20
q-2 20 -7.5 53t-9.5 39q-16 2 -23 2q-21 0 -39 -5q10 -34 14 -84q-5 0 -14 1t-16.5 1.5t-14.5 0.5q-40 0 -58 -13q-9 -42 -21 -108q38 7 70 7q21 0 48 -3q-16 -68 -62 -111t-118 -43q-47 0 -87 23t-61 62q2 19 30 29t66 10q0 18 -0.5 26t-2 17.5t-6 13t-11.5 3.5
q-18 0 -47 -2.5t-46 -2.5q7 26 30 43.5t53 17.5q56 0 110 -40q13 65 24 104q7 25 24.5 65t22.5 52h-5q-7 -22 -30 -39t-44 -17q-31 0 -74 10t-74 10q-68 0 -118 -54.5t-50 -121.5zM180 245q25 3 58 3q26 0 33 -18t7 -62v-20h-20q-56 0 -74 -18q42 -66 126 -66q114 0 154 116
q-11 1 -22 1q-14 0 -52 -4.5t-48 -6.5l7 41q-14 11 -23 17q-48 36 -98 36q-30 0 -48 -19z" />
    <glyph glyph-name="quotesingle" unicode="'" horiz-adv-x="183" 
d="M8 544q0 -34 26 -51q8 4 15 4q17 0 17 -19q0 -18 -13.5 -44.5t-28.5 -41.5q12 -5 25 -5q19 0 38.5 7t28.5 15q17 27 31.5 68t14.5 76q0 76 -70 76q-34 0 -59 -23t-25 -62zM-2 534q0 50 29.5 77.5t74.5 27.5t67.5 -26.5t22.5 -69.5q0 -78 -51 -157q-33 -29 -82 -29
q-31 0 -60 19q52 47 56 90q-6 0 -13 -6q-44 25 -44 74z" />
    <glyph glyph-name="parenleft" unicode="(" horiz-adv-x="275" 
d="M1 291q0 -153 55.5 -244t139.5 -91q35 0 61 15l-6 156q-8 -9 -25.5 -17t-30.5 -8q-21 0 -39.5 15.5t-18.5 35.5q0 32 22.5 60.5t50.5 28.5q16 0 32 -8l25 340q-106 0 -186 -83.5t-80 -199.5zM-9 281q0 131 84.5 217t201.5 86h21q0 -2 -0.5 -11t-0.5 -10
q-25 -342 -27 -371q-37 20 -50 20q-18 0 -35.5 -22t-17.5 -47q0 -12 12.5 -21.5t25.5 -9.5q31 0 74 58q0 -5 1 -26.5t1 -26.5q2 -44 3 -79t1.5 -49t1 -23.5t0.5 -15.5q-38 -24 -81 -24q-95 0 -155 98t-60 257z" />
    <glyph glyph-name="parenright" unicode=")" horiz-adv-x="275" 
d="M3 550l13 -277q16 8 32 8q35 0 55 -27.5t20 -64.5q0 -31 -15 -55.5t-36 -24.5q-36 0 -56 24l-9 -189q30 -17 64 -17q84 0 140 90.5t56 243.5q0 117 -79.5 203t-184.5 86zM-8 560h21q115 0 199.5 -92.5t84.5 -216.5q0 -159 -60.5 -256.5t-155.5 -97.5q-42 0 -75 19
q-6 3 -10 7q0 2 0.5 8t0.5 7l12 237l33 -39q14 -17 40 -17q11 0 21 17.5t10 42.5q0 30 -15 51t-40 21q-12 0 -22 -5l-28 -15q0 1 -1 14.5t-1 16.5q-4 106 -13 278q0 1 -0.5 9.5t-0.5 10.5z" />
    <glyph glyph-name="asterisk" unicode="*" horiz-adv-x="352" 
d="M7 243q40 11 80 -1l10 -3q-23 -19 -41 -44q-7 -10 -7 -23q0 -24 19 -38q29 -23 78 -36q0 40 24 75l6 9q15 -33 29 -52q12 -17 35 -17q15 0 27 9q27 21 58 64q-36 11 -64 46l-6 8q34 3 58 11q29 10 29 41q0 6 -3 14q-12 39 -42 77q-21 -31 -63 -47l-10 -4q7 35 7 60
q0 17 -14 29.5t-31 12.5q-33 0 -84 -17q23 -30 24 -75v-10q-33 18 -54 25q-8 2 -12 2q-14 0 -25.5 -8.5t-16.5 -22.5q-11 -35 -11 -85zM-3 207v26q0 55 11 92q7 20 24 32t38 12q13 0 43 -13q-4 22 -17 39l-18 23l27 9q51 18 90 18q25 0 45.5 -18t20.5 -45q0 -18 -1 -27
q12 7 29 31l16 23l18 -24q30 -38 45 -82q4 -12 4 -21q0 -20 -11.5 -36.5t-31.5 -23.5q-8 -3 -24 -7q19 -15 36 -20l27 -8l-17 -23q-32 -44 -62 -68q-17 -13 -39 -13q-34 0 -51 25q-7 10 -14 22q-9 -22 -9 -42v-26l-25 7q-53 15 -85 39q-27 20 -27 54q0 20 11 35q5 7 17 21
q-23 3 -45 -4z" />
    <glyph glyph-name="plus" unicode="+" horiz-adv-x="389" 
d="M-4 126v21q0 68 5 133l1 9q1 1 7 5q29 21 89 21h4q-7 35 -34 73l1 13q77 19 81 20q34 6 81 6q27 -2 45 -20.5t18 -46.5q0 -22 -2 -52h1q43 0 73 20l21 13q1 -2 4.5 -11t4.5 -12q12 -32 12 -78q0 -52 -19 -99q-27 -27 -95 -28q6 -30 6 -36q0 -25 -16.5 -40t-39.5 -15
q-19 0 -49 1.5t-50.5 1.5t-37.5 -3l-20 -3l-2 20q0 3 2 17t5 36t5 38q-56 0 -80 -3q-2 0 -10.5 -0.5t-10.5 -0.5zM8 155q45 3 83 3q2 0 9.5 -0.5t14.5 -0.5q-1 -4 -2 -13t-2 -14q-2 -14 -5.5 -35.5t-5.5 -32.5t-2 -12q19 3 40.5 3t50.5 -1.5t47 -1.5q16 0 26 9.5t10 25.5
q0 6 -5 28q-6 27 -8 37h17h11q60 2 77 19q16 40 16 79q0 43 -11 71q-33 -21 -78 -23h-29q0 2 0.5 6.5t0.5 6.5q3 25 3 59q0 22 -13.5 35t-34.5 13q-37 0 -130 -21q24 -29 30 -80l1 -13q-9 0 -18 0.5t-11 0.5q-53 0 -77 -17q-5 -62 -5 -131z" />
    <glyph glyph-name="comma" unicode="," horiz-adv-x="183" 
d="M8 44q0 -34 26 -51q8 4 15 4q17 0 17 -19q0 -18 -13.5 -44.5t-28.5 -41.5q12 -5 25 -5q19 0 38.5 7t28.5 15q17 27 31.5 68t14.5 76q0 76 -70 76q-34 0 -59 -23t-25 -62zM-2 34q0 50 29.5 77.5t74.5 27.5t67.5 -26.5t22.5 -69.5q0 -78 -51 -157q-33 -29 -82 -29
q-31 0 -60 19q52 47 56 90q-6 0 -13 -6q-44 25 -44 74z" />
    <glyph glyph-name="hyphen" unicode="-" horiz-adv-x="349" 
d="M-4 116v21q0 78 5 143l1 9q1 1 7 5q29 21 89 21q25 0 78 -3.5t77 -3.5q43 0 73 20l21 13q1 -2 4.5 -11t4.5 -12q12 -32 12 -78q0 -53 -19 -100q-28 -28 -105 -28q-16 0 -73 4t-74 4q-56 0 -80 -3q-2 0 -10.5 -0.5t-10.5 -0.5zM8 145q45 3 81 3q18 0 75.5 -4t71.5 -4
q69 0 88 19q16 40 16 89q0 43 -11 71q-36 -23 -84 -23q-26 0 -78.5 3.5t-76.5 3.5q-53 0 -77 -17q-5 -62 -5 -141z" />
    <glyph glyph-name="period" unicode="." horiz-adv-x="174" 
d="M-2 34q0 53 30 79t74 26q40 0 64 -23.5t24 -61.5q0 -45 -33.5 -74.5t-80.5 -29.5q-32 0 -55 25t-23 59zM10 42q0 -26 17.5 -45t40.5 -19q39 0 66.5 23.5t27.5 60.5q0 29 -17.5 47t-50.5 18q-34 0 -59 -23t-25 -62z" />
    <glyph glyph-name="slash" unicode="/" horiz-adv-x="391" 
d="M2 134q37 -44 85 -92q27 36 55 64q13 13 81 71.5t78 68.5q79 79 79 100q-18 41 -45 68q-25 25 -54 38q-7 -34 -73 -100q-18 -18 -82.5 -76t-81.5 -75q-36 -36 -42 -67zM-10 118l2 9q9 42 48 81q18 18 82 75.5t81 74.5q50 50 67 89q6 14 6 24q50 -19 84 -53q30 -30 50 -77
v-5q0 -30 -85 -115q-11 -11 -79 -69t-80 -70q-36 -36 -66 -81q-71 71 -104 110z" />
    <glyph glyph-name="zero" unicode="0" horiz-adv-x="404" 
d="M84 182q0 17 12.5 29.5t30.5 12.5q16 0 27 -7.5t11 -18.5q0 -16 -13 -28t-31 -12q-15 0 -26 7t-11 17zM6 230q0 -90 48 -150t117 -60q87 0 148 56t61 140q0 81 -62 138.5t-149 57.5q-68 0 -115.5 -44t-47.5 -138zM-4 220q0 106 52.5 154t130.5 48q95 0 163 -63t68 -153
q0 -93 -66.5 -154.5t-162.5 -61.5q-79 0 -132 66.5t-53 163.5z" />
    <glyph glyph-name="one" unicode="1" horiz-adv-x="282" 
d="M18 248q30 32 71 46q-10 -103 -10.5 -145.5t7.5 -100.5q41 -7 100 -7q28 0 49 13.5t21 40.5q0 26 -9 85t-9 70q0 37 8 110.5t8 95.5q-43 0 -77 1q-34 0 -80 -18t-77 -46q-12 -35 -11.5 -77.5t9.5 -67.5zM9 231q-10 27 -11.5 73t14.5 95q36 33 85.5 50.5t89.5 17.5
q31 -1 77 -1h20v-20q0 -25 -8 -98t-8 -108q0 -7 9 -68t9 -87q0 -33 -25.5 -53.5t-64.5 -20.5q-61 0 -103 7l-15 3q-1 3 -1.5 7.5t-0.5 7.5q-8 65 -8 100.5t8 116.5q-14 -8 -33 -28q-2 -3 -11 -12.5t-11 -11.5z" />
    <glyph glyph-name="two" unicode="2" horiz-adv-x="404" 
d="M6 107q-7 -19 -5.5 -49t13.5 -37q58 -3 129 -3q102 0 169 8q39 5 48 38q18 66 25 152h-6q-35 -30 -164 -30q73 51 102.5 89t29.5 91q0 50 -43 85t-104 35q-74 0 -158 -25l6 -133q37 23 54 23t28 -12.5t11 -31.5q0 -42 -51 -97q-6 -7 -21 -22.5t-21 -22t-15.5 -18
t-15.5 -21t-11 -19.5zM-3 104q6 12 12.5 22t17 22.5t16 19t21.5 23t21 22.5q46 51 46 84q0 24 -19 24q-17 0 -72 -39l-10 186q99 30 178 30q68 0 118.5 -41.5t50.5 -100.5q0 -48 -21 -84t-68 -74q68 5 93 28h36q-8 -104 -28 -177q-12 -46 -65 -53q-69 -8 -171 -8
q-128 0 -139 6q-20 13 -22.5 52t5.5 58z" />
    <glyph glyph-name="three" unicode="3" horiz-adv-x="345" 
d="M2 25q86 -32 149 -32q68 0 120 41.5t52 98.5q0 102 -119 130q78 49 78 129q0 41 -37 64.5t-86 23.5q-77 0 -152 -40q13 -53 28 -151q29 29 71 29q26 0 26 -19q0 -14 -17.5 -23.5t-42.5 -9.5l1 -64q37 -9 37 -36q0 -13 -10.5 -22.5t-25.5 -9.5q-18 0 -66 29zM-9 1
q0 82 9 187q70 -44 84 -44q16 0 16 12q0 11 -22 17q-6 0 -15 3v16q-1 34 -1.5 51.5t-0.5 22.5q-1 -1 -3 -3.5t-8.5 -9l-17.5 -17.5q-19 132 -38 207q86 47 173 47q56 0 100.5 -28.5t44.5 -79.5q0 -74 -54 -122q95 -40 95 -137q0 -65 -57 -112.5t-135 -47.5q-74 0 -170 38z
" />
    <glyph glyph-name="four" unicode="4" horiz-adv-x="430" 
d="M8 112q44 0 115 -5t95 -6q-1 -45 5 -104q70 -12 99 -12q54 0 54 54q0 11 -0.5 40t-0.5 43q25 10 29 23q13 40 6 100q-10 -5 -34 -13q4 64 14 140q-55 0 -89 1q-23 -18 -45 -64.5t-30 -94.5q-38 0 -63 5q0 1 30 58t41 82t25.5 71t14.5 80q-47 8 -95 8q-27 0 -47 -14
t-23 -40q-5 -50 -15.5 -85t-37 -92t-39.5 -90q-9 -52 -9 -85zM-2 82q0 49 10 110q14 35 39.5 91.5t36 90.5t15.5 82q7 72 90 72q44 0 115 -11q0 -89 -54 -204q26 51 52 71q24 0 61 -1t60 -1l-15 -130q3 1 28 14q6 -32 6 -68q0 -46 -9 -70q-6 -17 -27 -28v-71
q0 -35 -19 -54.5t-55 -19.5q-46 0 -117 15q-7 56 -7 102q-105 9 -210 10z" />
    <glyph glyph-name="five" unicode="5" horiz-adv-x="395" 
d="M26 500q-8 -155 7 -289q67 40 131 40q35 0 58 -19t23 -43q0 -59 -89 -59q-66 0 -126 44q0 -102 15 -172q89 -33 150 -33q75 0 130.5 50t55.5 118q0 90 -57.5 142t-141.5 52q-23 0 -46 -6q0 5 0.5 18.5t0.5 25.5q59 13 119 13q50 0 89 -25q16 65 -5 125q-8 23 -34 29.5
t-69 6.5q-41 -1 -110.5 -9.5t-100.5 -8.5zM16 511q52 1 120 8.5t111 8.5q23 0 36.5 -1t34 -5t33 -15t18.5 -28q13 -36 13 -76q0 -34 -14 -88q-49 37 -102 37q-51 0 -99 -10v-2q8 1 25 1q92 0 155.5 -58t63.5 -156q0 -76 -61.5 -132t-144.5 -56q-68 0 -167 38q-18 83 -18 187
v40l3 -3q-18 83 -7 310z" />
    <glyph glyph-name="six" unicode="6" horiz-adv-x="452" 
d="M21 226q0 -96 61 -164.5t175 -68.5q82 0 129 47.5t47 112.5q0 53 -44.5 99t-115.5 46q-53 0 -109 -28q11 86 104 86q61 0 108 -22q14 49 56 160h-4q-12 -30 -46 -30q-14 0 -59.5 7.5t-73.5 7.5q-104 0 -166 -76t-62 -177zM187 160q0 16 13 27.5t29 11.5q28 0 47 -14.5
t19 -34.5t-13.5 -33.5t-33.5 -13.5q-25 0 -43 17t-18 40zM11 216q0 111 65.5 192t182.5 81q27 0 74.5 -7.5t58.5 -7.5q15 0 19.5 4.5t13.5 25.5h47q-53 -136 -73 -208q-60 30 -121 30q-52 0 -72 -31q39 13 77 13q79 0 129.5 -52t50.5 -113q0 -73 -52.5 -126.5t-143.5 -53.5
q-120 0 -188 73t-68 180z" />
    <glyph glyph-name="seven" unicode="7" horiz-adv-x="362" 
d="M23 346q36 23 95 23q38 0 69 -7q-37 -74 -79 -191.5t-42 -181.5q47 -8 111 -8q27 0 47 14t23 40q16 164 90 349q9 53 9 115q-42 0 -108 11t-105 12q-91 0 -105 -36q-29 -75 -5 -140zM18 485q18 48 118 48q41 0 108.5 -12t131.5 -12q0 -79 -10 -140q-73 -186 -89 -346
q-4 -35 -30 -53.5t-60 -18.5q-60 0 -131 11q0 134 111 375q-16 2 -39 2q-62 0 -105 -33q-12 30 -17.5 48.5t-4 54.5t16.5 76z" />
    <glyph glyph-name="eight" unicode="8" horiz-adv-x="437" 
d="M113 152q0 29 40 71q26 -7 43 -24t17 -39q0 -20 -17.5 -34t-42.5 -14q-17 0 -28.5 12t-11.5 28zM194 348q0 14 14.5 24.5t34.5 10.5q8 0 14.5 -6.5t6.5 -15.5q0 -18 -17 -35t-33 -23q-12 11 -16 19t-4 26zM12 106q0 -52 58.5 -88.5t140.5 -36.5q85 0 144.5 47.5
t59.5 115.5q0 52 -40 87.5t-95 50.5q76 58 76 113q0 42 -38 72t-92 30q-76 0 -123.5 -41.5t-49.5 -105.5q0 -51 58 -80q-38 -24 -68.5 -71.5t-30.5 -92.5zM2 96q0 44 24.5 88t59.5 75q-43 35 -43 81q3 76 54 121.5t139 45.5q61 0 105.5 -35t44.5 -87t-56 -106
q49 -21 82 -57.5t33 -87.5q0 -77 -66.5 -130t-157.5 -53q-88 0 -153.5 41t-65.5 104z" />
    <glyph glyph-name="nine" unicode="9" horiz-adv-x="453" 
d="M9 326q0 -69 53 -119t150 -50q27 0 54 9q-28 -52 -93 -52q-67 0 -120 28q-16 -53 -16 -113q75 -36 158 -36q102 0 163.5 77.5t61.5 179.5q0 98 -60 167t-175 69q-82 0 -129 -47.5t-47 -112.5zM147 279q0 19 13.5 32.5t33.5 13.5q25 0 43 -17t18 -40q0 -16 -12.5 -27
t-28.5 -11q-28 0 -47.5 14.5t-19.5 34.5zM-1 316q0 76 51 128t145 52q123 0 189 -74.5t66 -180.5q0 -109 -67 -193.5t-178 -84.5q-87 0 -178 43q0 81 24 155q41 -21 67 -29t65 -8q11 0 27 4q-100 4 -155.5 59t-55.5 129z" />
    <glyph glyph-name="colon" unicode=":" horiz-adv-x="174" 
d="M-2 344q0 53 30 79t74 26q40 0 64 -23.5t24 -61.5q0 -45 -33.5 -74.5t-80.5 -29.5q-32 0 -55 25t-23 59zM10 352q0 -26 17.5 -45t40.5 -19q39 0 66.5 23.5t27.5 60.5q0 29 -17.5 47t-50.5 18q-34 0 -59 -23t-25 -62zM-2 74q0 53 30 79t74 26q40 0 64 -23.5t24 -61.5
q0 -45 -33.5 -74.5t-80.5 -29.5q-32 0 -55 25t-23 59zM10 82q0 -26 17.5 -45t40.5 -19q39 0 66.5 23.5t27.5 60.5q0 29 -17.5 47t-50.5 18q-34 0 -59 -23t-25 -62z" />
    <glyph glyph-name="semicolon" unicode=";" horiz-adv-x="174" 
d="M8 44q0 -34 26 -51q8 4 15 4q17 0 17 -19q0 -18 -13.5 -44.5t-28.5 -41.5q12 -5 25 -5q19 0 38.5 7t28.5 15q17 27 31.5 68t14.5 76q0 76 -70 76q-34 0 -59 -23t-25 -62zM-2 34q0 50 29.5 77.5t74.5 27.5t67.5 -26.5t22.5 -69.5q0 -78 -51 -157q-33 -29 -82 -29
q-31 0 -60 19q52 47 56 90q-6 0 -13 -6q-44 25 -44 74zM-2 344q0 53 30 79t74 26q40 0 64 -23.5t24 -61.5q0 -45 -33.5 -74.5t-80.5 -29.5q-32 0 -55 25t-23 59zM10 352q0 -26 17.5 -45t40.5 -19q39 0 66.5 23.5t27.5 60.5q0 29 -17.5 47t-50.5 18q-34 0 -59 -23t-25 -62z
" />
    <glyph glyph-name="less" unicode="&#x3c;" horiz-adv-x="358" 
d="M1 261q29 -29 67 -86t65 -85q52 -52 91 -52q24 0 62.5 30.5t61.5 84.5q-25 5 -63.5 32t-67.5 71q89 57 131 115q-29 40 -61 72q-31 31 -57 31q-16 0 -28 -12q-92 -102 -201 -201zM-20 257q8 7 32 28.5t31 28t26 24t29.5 28t27.5 28t33.5 35.5t36.5 40q18 18 42 18
q36 0 74 -38q36 -36 72 -86q-29 -40 -56.5 -65.5t-70.5 -54.5q10 -13 20.5 -23.5t20.5 -18.5t19.5 -14.5t18 -10.5t16 -7t14 -4.5t10.5 -2.5l8 -2h3q-24 -57 -56.5 -93t-55 -46.5t-40.5 -10.5q-47 0 -105 58q-27 29 -66.5 86.5t-67.5 85.5l-9 9t-5 6z" />
    <glyph glyph-name="equal" unicode="=" horiz-adv-x="349" 
d="M8 83q40 8 81 8q18 0 75.5 -5.5t71.5 -5.5q69 0 88 19q14 45 14 84q0 21 -3 40q-30 -19 -90 -19q-26 0 -78.5 4.5t-76.5 4.5q-47 0 -73 -19q-9 -56 -9 -111zM7 245q45 6 94 6q18 0 69.5 -5t65.5 -5q63 0 86 23q17 42 17 75q0 23 -10 50q-36 -23 -84 -23q-26 0 -84 3.5
t-82 3.5q-49 0 -66 -17q-6 -75 -6 -111zM-3 212v23q0 36 7 120q15 17 32.5 22.5t52.5 5.5q25 0 83.5 -3.5t82.5 -3.5q43 0 73 20q11 5 21 13q20 -45 20 -80q0 -37 -20 -86l-5 -7l16 10q8 -37 8 -74q0 -43 -16 -94q-28 -28 -106 -28q-17 0 -74 5.5t-73 5.5q-42 0 -77 -8
q-20 -4 -24 -4v24q0 42 10 122q24 18 47 23q-28 -2 -35 -3q-2 -1 -11.5 -2t-11.5 -1z" />
    <glyph glyph-name="greater" unicode="&#x3e;" horiz-adv-x="358" 
d="M1 141q29 -40 61 -72q31 -31 56 -31q16 0 28 12q87 97 202 201q-29 29 -67.5 86t-65.5 85q-52 52 -91 52q-24 0 -62 -30.5t-61 -84.5q25 -5 65 -33t69 -72q-86 -47 -134 -113zM-20 337l9 22q24 58 67 92.5t76 34.5q47 0 108 -61q28 -30 65 -85t82 -100q-8 -7 -28 -25.5
t-27 -25t-23.5 -22t-25 -23.5t-23.5 -23t-27 -28t-28.5 -30.5t-33.5 -36.5q-18 -18 -43 -18q-34 0 -71 37q-39 39 -73 88l9 13q47 64 122 105q-58 73 -135 86z" />
    <glyph glyph-name="question" unicode="?" horiz-adv-x="293" 
d="M-9 553q100 23 159 23q77 0 121 -34.5t44 -99.5q0 -56 -77 -103q-3 -1 -3 -5q2 1 10.5 4t10.5 4q14 -54 17 -81.5t3 -105.5q-52 -12 -108 -18q30 -6 48 -28t18 -55q0 -45 -33.5 -74.5t-80.5 -29.5q-32 0 -55 25t-23 59q0 38 21 65t53 36q-63 2 -88.5 28.5t-25.5 59.5
q0 49 48 93q38 34 38 67q0 11 -6 18t-14 7q-9 0 -18.5 -3t-15.5 -6.5t-17 -9.5t-17 -9q-9 132 -9 173zM54 42q0 -26 17.5 -45t40.5 -19q39 0 66.5 23.5t27.5 60.5q0 29 -17.5 47t-50.5 18q-34 0 -59 -23t-25 -62zM4 543l6 -123q32 16 50 16q17 0 29 -13.5t12 -32.5
q0 -42 -43 -81q-14 -13 -21 -20.5t-14.5 -23.5t-7.5 -34q0 -69 100 -69q41 0 133 18q0 95 -13 143q-21 -7 -38 -7q-16 0 -16 9q0 16 39 39q67 42 67 86q0 56 -38 84.5t-107 28.5q-17 0 -36.5 -2t-31.5 -4.5t-35.5 -7t-34.5 -6.5z" />
    <glyph glyph-name="at" unicode="@" horiz-adv-x="515" 
d="M1 221q0 -108 69.5 -185.5t196.5 -77.5q88 0 138 49q1 8 1 12q0 5 -3 10q-64 -31 -121 -31q-88 0 -144 53t-56 148q0 82 53 132t140 50q65 0 104.5 -35.5t39.5 -94.5q0 -66 -20 -112.5t-60 -46.5q-11 0 -24 5l40 173q9 40 19 61h-15q-21 -22 -39 -22q-7 0 -32.5 7
t-46.5 7q-43 0 -80.5 -43.5t-37.5 -87.5q0 -64 37.5 -102.5t91.5 -38.5q34 0 60 17q21 -15 54 -15q50 0 96 60.5t46 134.5q0 110 -67 182.5t-168 72.5q-126 0 -199 -84.5t-73 -197.5zM216 179q0 21 16 36t38 15q4 0 12 -1q-2 -21 -5 -63.5t-5 -63.5q-56 18 -56 77zM349 102
q24 0 42 39.5t18 99.5q0 33 -13 55q-7 -25 -11 -40q-4 -16 -18 -77.5t-18 -76.5zM-9 211q0 59 18.5 112.5t54 96.5t92 68t127.5 25q110 0 182.5 -78t72.5 -197q0 -64 -33 -120.5t-80 -81.5q11 -7 11 -27q0 -4 -3 -22q-59 -59 -156 -59q-136 0 -211 83t-75 200zM112 200l2 -3
q7 50 48.5 93t88.5 43q23 0 49.5 -7t29.5 -7q8 0 24 16q-30 16 -69 16q-76 0 -122.5 -41t-50.5 -110zM144 76q47 -68 148 -68q40 0 80 15q-27 2 -50 12q-28 -14 -60 -14q-72 0 -116 56zM246 169q0 -30 18 -45q2 17 6 75q-24 -6 -24 -30z" />
    <glyph glyph-name="A" unicode="A" horiz-adv-x="606" 
d="M190 225q0 19 9.5 34t25.5 18l66 -101l-4 -2q-13 12 -20 14q-13 3 -31.5 5.5t-26 4.5t-13.5 8t-6 19zM2 37q0 -19 22 -33t54 -14q34 0 58 12t24 28q0 74 7 105q96 -3 126.5 -15.5t54.5 -67.5q14 -36 15 -50q25 -2 76 -8.5t87 -6.5q23 0 41.5 17.5t18.5 32.5
q0 35 -22.5 81t-48 80.5t-72.5 94t-69 89.5q-29 41 -33 78q-59 8 -91 0.5t-72 -38.5q0 -148 -78 -285q-11 -19 -54.5 -49.5t-43.5 -50.5zM218 217v-4l1 -2q5 -3 32 -6l-8 12l-11 16.5t-6 9.5q-8 -11 -8 -26zM-10 29q0 25 19.5 43.5t45 36t34.5 32.5q76 133 76 273v13
q35 27 62 38.5t70 11.5q14 0 70 -8q0 -1 1 -7t1 -8q4 -34 29 -68q23 -32 72 -94t74 -96t47.5 -81.5t22.5 -85.5q0 -23 -24.5 -46.5t-55.5 -23.5q-38 0 -89.5 7t-74.5 8l-17 1q0 1 -1 8t-1 9q-2 16 -13 45q-20 46 -43.5 56t-103.5 13q-3 -16 -3 -84q0 -26 -30 -43t-72 -17
q-39 0 -67.5 19t-28.5 48z" />
    <glyph glyph-name="B" unicode="B" horiz-adv-x="471" 
d="M194 165q6 -1 16 -1q40 0 40 28t-36 36q-10 -42 -20 -63zM-14 -45l13 41q35 127 35 237t-13 232l-2 19l19 5q18 4 59.5 25t88.5 38t92 17q62 0 106 -37t44 -105q0 -76 -50 -118q47 -20 78 -56.5t31 -86.5q0 -97 -72 -150t-172 -53q-33 0 -79 12t-60 12q-20 0 -39 -3.5
t-26 -6t-29 -12t-24 -10.5zM158 163q9 13 19.5 45.5t10.5 50.5q30 0 52 -16t22 -43q0 -48 -60 -48q-27 0 -44 11zM185 387q22 15 33 15q20 0 20 -21q0 -18 -17 -35t-33 -23q-3 51 -3 64zM12 -1q38 16 84 16q20 0 65.5 -12t73.5 -12q94 0 159 47.5t65 135.5q0 52 -39.5 87.5
t-93.5 50.5q39 23 56.5 49.5t17.5 73.5q0 59 -37.5 90.5t-92.5 31.5q-41 0 -85.5 -17.5t-85.5 -38.5t-65 -25q14 -131 14 -235q0 -115 -36 -242z" />
    <glyph glyph-name="C" unicode="C" horiz-adv-x="419" 
d="M6 245q0 -87 57 -140t140 -53q102 0 183 74q-9 19 -20 28q-27 -26 -68.5 -42t-80.5 -16t-63 18.5t-24 57.5q0 33 24.5 55.5t59.5 22.5q56 0 110 -40q14 70 31 130q7 25 24.5 65t22.5 52h-4q-7 -22 -30 -39t-44 -17q-31 0 -74 10t-74 10q-68 0 -119 -54.5t-51 -121.5z
M-6 238q0 84 52 140t136 56q34 0 78 -10.5t72 -10.5q13 0 31 12.5t24 30.5q1 2 3 8l1 5h44q-38 -88 -53 -143q-19 -63 -30 -127q-2 -5 -6 -31q-15 10 -25 18q-48 36 -99 36q-27 0 -45.5 -17t-18.5 -41q0 -56 67 -56q36 0 73.5 15t61.5 38q10 10 13 12l13 -11q10 -9 17 -18
q5 -8 10 -19q1 -1 3 -5.5t2 -6.5l-10 -10q-86 -79 -197 -79q-91 0 -154 59t-63 155z" />
    <glyph glyph-name="D" unicode="D" horiz-adv-x="496" 
d="M163 173q0 28 10 52q26 0 41.5 -13t15.5 -35q0 -19 -19.5 -33.5t-43.5 -16.5q-4 32 -4 46zM15 385q0 -27 3.5 -130.5t3.5 -156.5q0 -50 -3 -83q42 6 79 6q24 0 71.5 -8.5t89.5 -8.5q96 0 159.5 71t63.5 177q0 80 -56.5 137t-136.5 57q-51 0 -132.5 -21t-132.5 -27
q-9 -2 -9 -13zM191 165q0 -11 1 -22q26 11 26 26q0 21 -23 26q-4 -18 -4 -30zM2 377q0 16 5.5 24t21.5 10q50 7 131.5 27.5t136.5 20.5q88 0 150.5 -63t62.5 -152q0 -113 -69 -190.5t-174 -77.5q-44 0 -91.5 8.5t-69.5 8.5q-36 0 -76 -6l-25 -3l2 24q3 48 3 82
q0 52 -4 155.5t-4 131.5z" />
    <glyph glyph-name="E" unicode="E" horiz-adv-x="355" 
d="M-2 432q0 31 33 31q63 -15 119 -15q73 0 166 7q1 0 4.5 0.5t4.5 0.5q2 -3 3 -3.5t1.5 -1t2.5 -3.5q30 -34 30 -84q0 -33 -15 -81q-1 -2 -4 -13.5t-4 -13.5q-3 1 -11.5 8.5t-11.5 8.5q-23 18 -60 18h-5.5t-3.5 -0.5t-2 -0.5h-1q18 -24 18 -63q0 -12 -2 -42q0 -1 -0.5 -4
t-0.5 -4l-6 -6q32 9 61 35q2 2 9.5 9t9.5 9l12 -24q18 -39 18 -87q0 -55 -9 -84q-1 -2 -2.5 -6.5t-1.5 -6.5l-13 -1q-96 -8 -182 -8q-73 0 -132 4q-2 0 -10.5 0.5t-10.5 0.5l2 21q3 27 8.5 63.5t8.5 65t3 60.5q0 110 -26 210zM14 429q22 -91 22 -187q0 -40 -3.5 -78
t-9.5 -76.5t-7 -48.5q59 -4 131 -4q84 0 180 8q8 28 8 78q0 45 -16 78q-48 -43 -109 -43q-40 0 -76 11q0 9 7 25q26 -11 40 -11q33 0 51 14q2 30 2 40q0 32 -14 51q-43 -11 -71 -11q-3 11 -3 28q65 16 102 16q40 0 72 -22q14 44 14 75q0 42 -25 71q-93 -7 -167 -7
q-33 0 -69.5 5t-41.5 5q-17 0 -17 -17z" />
    <glyph glyph-name="F" unicode="F" horiz-adv-x="390" 
d="M12 64q10 -3 22.5 -5.5t25 -4t40.5 -4.5t55 -7q10 64 12 119q90 2 114 8q18 69 18 98q0 8 -8 8q-16 0 -52 -5.5t-48 -5.5q-9 0 -18 5t-9 12q0 37 8 55q15 9 38 9q25 0 67.5 -14t52.5 -14q17 2 28 10.5t11 19.5l13 83q-12 43 -58.5 56.5t-125.5 13.5q-84 0 -180 -37
q8 -88 8 -207q0 -109 -14 -193zM-2 42q3 9 3 17q13 78 13 190q0 118 -8 205q0 2 -1 8t-1 7l14 6q98 38 188 38q39 0 65.5 -2.5t58.5 -10t52 -25.5t28 -46v-2t1 -3l-1 -4q-2 -8 -7 -41t-6 -41q-2 -23 -19.5 -34t-37.5 -13l-1 -1h-1q-14 0 -56.5 14t-63.5 14q-13 0 -22 -3
q-4 -16 -4 -36q2 -2 7 -2q12 0 46.5 5.5t53.5 5.5q12 0 20 -8t8 -20q0 -32 -19 -104q0 -1 -1 -5.5t-2 -5.5q-3 -1 -11 -3q-31 -8 -99 -8q-4 -46 -13 -102q0 -2 -1 -9.5t-2 -9.5l-19 3q-27 4 -55 7t-41.5 4.5t-26.5 4t-23 5.5z" />
    <glyph glyph-name="G" unicode="G" horiz-adv-x="480" 
d="M0 268q0 -91 48 -158t132 -67q62 0 100 17q-12 -22 -18 -44q42 6 97 6q9 0 29 -1.5t28 -1.5q17 0 27 16q11 18 13 43q1 25 1 68q0 71 -11 148q-49 -40 -108 -40q-18 0 -48 10t-48 10q-7 0 -11.5 -4t-6 -12.5t-2 -15t-0.5 -19.5q17 -1 29.5 -6.5t12.5 -12.5q0 -16 -24 -30
t-54 -14q-36 0 -55 26t-19 72q0 30 27 48t61 18q28 0 60.5 -14t54.5 -14t33.5 13.5t19.5 38.5q14 44 31 111t23 88q-33 -67 -84 -67q-34 0 -82.5 14.5t-74.5 14.5q-82 0 -131.5 -73t-49.5 -168zM140 250q0 -78 54 -78q37 0 54 19q-12 4 -19 4l-19 1q0 4 -0.5 17t-0.5 16
q0 35 15 48q10 9 26 9h4l3 -1q-26 11 -49 11q-28 0 -48 -14t-20 -32zM-12 260q0 110 52 185.5t149 75.5q32 0 80.5 -14.5t76.5 -14.5q36 0 68 62l37 -14q-50 -185 -57 -206q-22 -65 -71 -66q7 -2 23 -2q50 0 95 36l27 21l5 -34q12 -84 12 -151q0 -19 -2 -69q-2 -31 -15 -53
q-16 -25 -44 -25q-9 0 -29 1.5t-28 1.5q-55 0 -94 -6l-32 -5l9 31q2 4 2 6q-28 -5 -64 -5q-95 0 -147.5 74t-52.5 171z" />
    <glyph glyph-name="H" unicode="H" horiz-adv-x="467" 
d="M16 38q12 -4 26.5 -6t49 -5.5t67.5 -8.5q11 65 12 112q108 3 112 3q-2 -15 -11.5 -43t-9.5 -42q0 -16 11 -25.5t27 -9.5q63 0 130 -12q0 6 -7 79.5t-7 115.5q0 123 34 248q-68 22 -120 22q-21 0 -34 -13t-13 -35v-178q-14 -1 -45 -5.5t-43 -4.5q-9 0 -18 5t-9 12
q0 43 31 214q-84 0 -180 -37q11 -85 11 -202q0 -100 -14 -184zM2 17l3 16q13 78 13 181q0 109 -12 199q0 1 -1 9t-1 9l15 5q103 40 188 40h24q0 -7 -4 -27q-30 -163 -31 -206q3 -1 7 -1q8 0 36 4t32 4q0 25 -0.5 78.5t-0.5 83.5t18 48.5t48 18.5q54 0 128 -24q6 -3 18 -6
q0 -2 -2 -9.5t-3 -9.5q-33 -119 -33 -242q0 -40 7 -113.5t7 -81.5v-24q-10 2 -24 4q-65 12 -126 12q-24 0 -41 15.5t-17 39.5q0 15 15 63q-23 -1 -66 -1q-1 -20 -13 -95q0 -2 -1 -10t-2 -10q-12 3 -19 3q-27 4 -55 7t-41.5 4.5t-26.5 4t-23 5.5z" />
    <glyph glyph-name="I" unicode="I" horiz-adv-x="223" 
d="M8 385q34 -43 34 -162q0 -23 -6 -67t-12 -79.5t-6 -36.5q19 3 40.5 3t50.5 -1.5t47 -1.5q16 0 26 9.5t10 25.5q0 4 -10 46.5t-10 53.5q0 29 7 84t7 99q0 22 -13.5 35t-34.5 13q-37 0 -130 -21zM34 492q0 -24 16 -41.5t38 -17.5q38 0 64 22t26 57q0 51 -64 51
q-33 0 -56.5 -19.5t-23.5 -51.5zM-12 378l1 13q68 17 81 19q-21 9 -34.5 29.5t-13.5 44.5q0 40 29 65.5t71 25.5q41 0 62.5 -20t21.5 -51q0 -60 -55 -87q27 -2 45 -20.5t18 -46.5q0 -45 -7 -100.5t-7 -82.5q0 -6 10 -47.5t10 -52.5q0 -25 -16.5 -40t-39.5 -15q-19 0 -49 1.5
t-50.5 1.5t-37.5 -3l-20 -3l-2 20q0 8 12.5 83t12.5 103q0 48 -6.5 80.5t-13.5 47t-22 35.5z" />
    <glyph glyph-name="J" unicode="J" horiz-adv-x="339" 
d="M8 419q0 -41 12 -73q36 23 84 23q24 0 62 -7q-12 -72 -12 -186q0 -18 -15 -29.5t-33 -11.5q-24 0 -70 23l-6 -139q17 -3 44 -10t49.5 -11.5t44.5 -4.5q67 0 114.5 41t47.5 99q0 38 -6 122t-6 109q0 93 11 152q-26 0 -103.5 10.5t-113.5 10.5q-63 0 -84 -29
q-20 -26 -20 -89zM-5 411q0 70 24 102q27 37 101 37q37 0 114.5 -11t102.5 -11h24q-1 -3 -3 -11.5t-2 -11.5q-10 -58 -10 -149q0 -23 6 -107.5t6 -123.5q0 -67 -54 -113.5t-128 -46.5q-24 0 -45 4t-49.5 11t-47.5 11l-17 4l9 187l28 -14q40 -21 60 -21q11 0 19.5 6t8.5 15
q0 103 9 170q-21 3 -39 3q-56 0 -96 -31q-21 50 -21 101z" />
    <glyph glyph-name="K" unicode="K" horiz-adv-x="420" 
d="M6 481q40 -88 40 -208q0 -39 -6 -72.5t-16.5 -75t-15.5 -70.5q41 -23 86 -23q51 0 66 34l-2 125q7 -8 46 -45.5t58 -67.5q34 -51 34 -94q3 2 28 17.5t39.5 26t29.5 27t15 29.5q0 22 -16 41q-40 50 -126 134q67 30 108 73q34 35 34 78q0 30 -30 48.5t-56 18.5
q-22 0 -50 -32q-21 -23 -38.5 -45.5t-40 -52t-37.5 -48.5q6 20 6 34q0 5 0.5 57t-0.5 57q0 19 -16 28q-25 12 -66 12q-30 0 -74 -6zM-13 490q70 10 101 10q100 0 101 -61q1 -40 1 -80q42 56 73 91q35 40 67 40t69 -24t37 -64q0 -29 -9 -48.5t-31 -43.5q-37 -40 -88 -65
q65 -63 107 -115q21 -26 21 -54q0 -14 -7 -27t-23.5 -27.5t-31 -24t-44 -28.5t-46.5 -31v38q0 36 -31 83q-17 26 -65 74q1 -45 0 -79l-1 -2q-1 -3 -2 -5.5t-3.5 -6.5t-6 -8t-8 -8t-11 -7.5t-14 -6.5t-18 -4.5t-22.5 -1.5q-52 0 -111 33q7 42 18.5 85t17 73.5t5.5 69.5
q0 125 -45 225z" />
    <glyph glyph-name="L" unicode="L" horiz-adv-x="352" 
d="M14 473q0 -22 9 -84t9 -110q0 -83 -8 -150t-8 -87q42 0 105 -10t102 -11q91 0 105 36q16 42 16 103q0 39 -11 67q-36 -23 -84 -23q-31 0 -62 7q3 30 5 54t2.5 48.5t0.5 37.5t-1.5 41t-2 36t-3.5 44.5t-4 47.5q-41 7 -100 7q-28 0 -49 -13.5t-21 -40.5zM2 467q0 35 24 54
t64 19q57 0 105 -8q10 0 16 -2q0 -2 0.5 -8.5t0.5 -7.5q9 -108 10 -143t-5 -150q30 -4 40 -4q38 0 71 22q14 10 21 14q1 -2 11 -27q12 -34 12 -74q0 -66 -17 -110q-19 -49 -124 -49q-42 1 -104.5 11t-102.5 10h-20v20q0 24 8 89.5t8 147.5q0 48 -9 109.5t-9 86.5z" />
    <glyph glyph-name="M" unicode="M" horiz-adv-x="600" 
d="M3 65q0 -10 11 -22t34 -21q36 -7 104 -5l71 172q21 -72 73 -131q65 49 90 118q9 -32 35 -108t31 -83q15 18 41.5 28.5t48 13.5t38 13.5t16.5 31.5q-6 33 -17 84.5t-41.5 155t-56.5 140.5q-83 0 -114 -3l-71 -139q-5 -10 -8 -3q-9 14 -36 73t-41 68l-69 -2q-35 0 -38 -11
q-11 -30 -56 -188t-45 -182zM-9 57q0 25 42 174t59 202q3 9 4 11t15 8t39 6q26 0 43 0.5t23.5 1t8.5 0.5q12 -7 21 -19t14.5 -23.5t17 -37t20.5 -44.5q56 110 63 125q42 3 139 3q32 -46 63 -146t46 -177l15 -77q0 -28 -17.5 -43.5t-40.5 -19t-50 -12.5t-40 -25l-16 -20
l-16 21q-8 10 -54 149q-27 -43 -89 -91q-47 54 -70 102l-57 -135l-13 -1q-65 -2 -111 6q-28 10 -43.5 27t-15.5 35z" />
    <glyph glyph-name="N" unicode="N" horiz-adv-x="526" 
d="M13 40q30 -20 68 -20q33 0 58 14q16 61 16 142q0 30 -5 58q61 -22 124.5 -112.5t72.5 -163.5q20 -6 65 -6q24 0 56 15q16 29 26.5 152.5t13.5 232.5l2 108q0 58 -5 128q-1 1 -5.5 6.5t-6.5 8t-7.5 7.5t-9.5 7.5t-10.5 6.5t-13 6t-15 3.5t-17.5 1.5t-63 -9q24 -43 27 -159
t-20 -255q-137 251 -316 251q-31 0 -31 -16q0 -42 12 -102.5t12 -104.5q0 -82 -28 -200zM-3 23l3 14q28 115 28 195q0 41 -12 102.5t-12 104.5q0 20 10.5 28.5t40.5 8.5q170 0 305 -213q11 92 13.5 159t-6 109.5t-13 57.5t-16.5 41q45 17 91 17q10 0 19.5 -1.5t18 -5
t15.5 -6.5t13.5 -8t11 -9t9.5 -9.5t7 -8t5 -7.5l4 -4q6 -81 6 -136q0 -44 -2 -128t-14 -214.5t-31 -166.5q-44 -19 -71 -19q-48 0 -83 11q-9 79 -59.5 151t-95.5 104q0 -4 0.5 -11t0.5 -11q0 -86 -19 -156q-37 -20 -75 -20q-43 0 -79 22z" />
    <glyph glyph-name="O" unicode="O" horiz-adv-x="372" 
d="M72 132q0 14 9.5 24t23.5 10t24 -6t10 -16q0 -13 -8.5 -22.5t-21.5 -9.5q-15 0 -26 6t-11 14zM4 190q0 -102 55 -130l-12 -6q15 -20 44 -32t58 -12q93 0 151 44.5t58 121.5q0 64 -62 110t-149 46q-52 0 -91.5 -40.5t-51.5 -101.5zM100 128q8 -4 17 -4q10 0 10 10
q-4 4 -14 4q-11 0 -13 -10zM-8 182v2v2q14 73 57.5 115.5t105.5 42.5q94 0 162.5 -50.5t68.5 -125.5q0 -84 -62.5 -135t-166.5 -51q-32 0 -65.5 13.5t-52.5 38.5q-15 20 -16 21q1 0 2.5 0.5t2.5 1.5q-36 41 -36 125z" />
    <glyph glyph-name="P" unicode="P" horiz-adv-x="489" 
d="M173 280q0 24 8 45q18 0 34.5 -5.5t16.5 -18.5q0 -18 -17 -31t-40 -13q-2 14 -2 23zM8 38q0 -40 75 -40q43 0 77 18q21 42 21 105q0 39 -4 84q36 -9 90 -9q80 0 146.5 52.5t66.5 143.5q0 64 -50.5 105.5t-122.5 41.5q-49 0 -133.5 -34t-141.5 -41q-9 -2 -9 -13
q0 -41 6.5 -103.5t6.5 -108.5q0 -36 -7 -83.5t-14 -81t-7 -36.5zM201 272q18 8 19 18q-8 4 -17 5q-2 -9 -2 -23zM-4 30q0 4 7 38.5t14 81t7 81.5q0 44 -6.5 106.5t-6.5 105.5q0 29 23 33q57 7 142.5 41.5t138.5 34.5q79 0 136 -47.5t57 -120.5q0 -100 -73 -158t-160 -58
q-41 0 -68 4q2 -24 2 -59q0 -68 -23 -114l-3 -6l-6 -3q-37 -20 -86 -20q-53 0 -74 18t-21 42z" />
    <glyph glyph-name="Q" unicode="Q" horiz-adv-x="349" 
d="M12 40q21 -37 98.5 -75.5t129.5 -38.5q40 0 63 39.5t44 135.5l-3 1q-17 -34 -34.5 -50.5t-45.5 -16.5q-21 0 -63.5 13.5t-76 24.5t-66.5 5t-46 -38zM70 260q0 12 8.5 20t19.5 8q12 0 20.5 -5.5t8.5 -12.5q0 -11 -7.5 -18.5t-17.5 -7.5q-13 0 -22.5 5t-9.5 11zM2 290
q0 -102 55 -130l-12 -6q19 -26 81 -26q90 0 150 40.5t60 107.5q0 62 -56 104t-145 42q-48 0 -85 -37.5t-48 -94.5zM-3 32l4 9q16 39 53.5 48t74 -2t80.5 -25.5t63 -14.5q21 0 34 12.5t28 43.5l8 15q1 0 17 -5q1 0 1 -0.5t1 -0.5l18 -6q0 -2 -1.5 -8.5t-2.5 -8.5
q-22 -98 -48.5 -144.5t-78.5 -46.5q-58 0 -140 41.5t-105 82.5zM-11 285q13 66 52 107t102 41q96 0 158.5 -47t62.5 -118q0 -75 -65 -121.5t-165 -46.5q-72 0 -97 34q-1 1 -16 21q1 0 2.5 0.5t2.5 1.5q-37 43 -37 128z" />
    <glyph glyph-name="R" unicode="R" horiz-adv-x="478" 
d="M182 342q31 0 51.5 -5t20.5 -13q0 -13 -8.5 -20.5t-21 -11.5t-30.5 -7q-5 -1 -7 -1zM0 14q77 -16 169 -16q16 0 24.5 11t8.5 27q0 105 -13 192q54 -39 71 -85.5t17 -152.5q27 -20 62 -20q57 0 95 49t42 107q-42 0 -62 13t-27 46q-8 39 -32 62.5t-63 23.5q62 17 99.5 55.5
t37.5 90.5q0 41 -36.5 71.5t-87.5 30.5q-39 0 -98 -26.5t-98 -26.5q-15 0 -28 1.5t-29 3.5t-28 3q2 -30 6 -74.5t6.5 -79.5t2.5 -75t-6 -76t-17 -79.5t-16 -75.5zM-15 -10l3 19q6 33 16.5 77t16.5 78t6 73t-2.5 74t-6.5 79t-6 75q0 3 -1 12t-1 11q2 0 12 -1t12 -1
q11 -1 38 -4.5t45 -3.5q34 0 94 26.5t102 26.5q58 0 101 -36.5t43 -85.5q0 -91 -96 -143q42 -27 54 -85q5 -24 18.5 -33.5t50.5 -9.5h21q0 -1 -0.5 -10t-0.5 -11q-5 -65 -48 -120t-109 -55q-42 0 -74 24q-1 0 -4 3t-4 3v10q0 81 -8.5 121t-32.5 68q6 -57 6 -143
q0 -23 -14 -40.5t-39 -17.5q-93 0 -173 16z" />
    <glyph glyph-name="S" unicode="S" horiz-adv-x="325" 
d="M13 19q17 -3 44 -10t49.5 -11.5t44.5 -4.5q67 0 114.5 41t47.5 99q0 36 -22 64t-58 39q-49 15 -55 24q-2 4 -2 7q0 9 14 9q29 0 52 -7q13 96 48 161q-102 20 -152 20q-45 0 -79 -26t-34 -62q0 -53 42 -98q43 -46 43 -98q0 -19 -12 -32.5t-29 -13.5q-8 0 -16 3.5t-18 10
t-16 9.5zM0 -5l7 141q0 3 1 15.5t1 15.5l28 -14q7 -4 16 -9.5t14.5 -8.5t9.5 -3q8 0 14.5 7.5t6.5 18.5q0 42 -38 84q-47 51 -47 112q0 52 39.5 80t93.5 28q53 0 156 -20q3 -1 14 -3.5t13 -2.5q-1 -3 -6 -12t-7 -11q-35 -65 -46 -155q0 -1 -1.5 -9t-1.5 -10q34 -17 54 -47
t20 -67q0 -67 -54 -113.5t-128 -46.5q-24 0 -45 4t-49.5 11t-47.5 11z" />
    <glyph glyph-name="T" unicode="T" horiz-adv-x="504" 
d="M5 398q0 -36 12 -67q36 23 83 23q32 0 63 -7q-12 -72 -12 -168q0 -28 2.5 -58t6.5 -65t6 -58q41 -7 100 -7q28 0 49 13.5t21 40.5q0 24 -8.5 87t-10.5 108q0 16 -1.5 59.5t-2.5 64.5q14 -1 52.5 -6.5t61.5 -5.5q49 0 57 30q18 69 18 128q0 19 -19 19q-18 0 -58.5 -6.5
t-66.5 -6.5q-42 0 -117.5 10t-113.5 11q-91 0 -105 -37q-17 -45 -17 -102zM-8 390q0 71 16 113q19 50 127 50q42 -1 116.5 -13t114.5 -12q23 0 63 6.5t62 6.5q16 0 27 -10q12 -11 12 -29q0 -53 -19 -132q-12 -46 -76 -46q-24 0 -94 10q1 -20 2.5 -55t1.5 -47
q2 -43 10.5 -105.5t8.5 -89.5q0 -37 -28 -55.5t-62 -18.5q-62 0 -104 7l-15 3l-1 15q-2 21 -6 57t-6.5 66.5t-2.5 59.5q0 89 9 152q-21 3 -40 3q-44 0 -72 -19l-21 -14l-9 23q-14 37 -14 74z" />
    <glyph glyph-name="U" unicode="U" 
d="M12 404q2 -11 12 -39.5t10 -42.5q0 -11 -5.5 -60.5t-5.5 -83.5q0 -49 38 -82.5t102 -33.5q73 0 117 76.5t44 199.5q0 44 -12 76t-28 32q-26 0 -32 -22q2 -9 14 -34t12 -40q0 -32 -15 -54.5t-37 -22.5q-18 0 -31 40t-13 97q0 11 -27.5 18.5t-66.5 7.5q-60 0 -76 -32z
M-3 404l4 6q26 38 95 38q44 0 79 -11t35 -35q0 -34 5 -61.5t10.5 -39.5t9.5 -16q11 2 21 18t10 39q0 11 -11 33.5t-14 34.5q0 1 -0.5 2l-1.5 3q2 4 2 6q4 17 19 27t32 10q28 0 44 -37t16 -91q0 -134 -50 -215t-131 -81q-71 0 -115.5 39t-44.5 97q0 36 5.5 85.5t5.5 57.5
q0 10 -10 40.5t-12 39.5z" />
    <glyph glyph-name="V" unicode="V" horiz-adv-x="340" 
d="M5 224q0 -24 18 -87.5t27 -84.5q16 -41 48.5 -70.5t72.5 -29.5q37 28 73 103q36 76 59 146t27 102l5 32q0 37 -22 37q-36 0 -63 -7q-36 -9 -46 -37q-39 -110 -49 -158l-39 113q-27 -5 -52 -15q-37 -15 -48 -24.5t-11 -19.5zM-8 218q0 17 16 32t42 24.5t46.5 15t40.5 8.5
l23 -69l32 97q13 40 60 51q30 7 69 7q19 0 30.5 -16t11.5 -41q0 -10 -5.5 -40.5t-28.5 -102t-59 -146.5q-40 -80 -84 -114q-58 0 -94 35t-53 78l-5 15q-5 16 -12 37.5t-14 45.5t-11.5 47t-4.5 36z" />
    <glyph glyph-name="W" unicode="W" horiz-adv-x="451" 
d="M8 224q0 -42 46 -172q6 -17 10 -25.5t13 -16.5t21 -7l28 1q24 2 38 21q7 10 33 50q1 2 2.5 1t2.5 -3l27 -75q31 -3 59 -3q37 0 66 60q34 71 51 121q15 43 27.5 94.5t12.5 64.5q0 37 -22 37q-33 0 -67 -9q-36 -9 -46 -37q-18 -53 -46 -90q-3 8 -6 20.5t-5 18t-5 12t-6.5 9
t-8.5 3.5l-15 -1q-11 0 -18.5 -16.5t-17 -39t-23.5 -34.5l-33 77q-31 -5 -57 -16q-61 -25 -61 -45zM-4 216q0 25 14.5 36.5t58.5 28.5q35 14 76 18q20 -40 28 -58q3 6 9 21.5t10 23.5t12.5 15.5t20.5 8.5l17 1q28 -5 37 -34q12 24 20 47q9 27 22 36.5t39 15.5q28 8 71 8
q19 0 30.5 -16t11.5 -41q0 -17 -14 -72.5t-27 -93.5q-23 -62 -52 -123q-34 -71 -84 -71q-30 0 -61 3q-2 0 -5.5 0.5t-7.5 0.5q0 1 -2 6t-2 6q-13 39 -15 43q-2 -3 -4.5 -7t-5.5 -8t-4 -6q-20 -27 -54 -29l-28 -1q-20 -1 -34.5 11.5t-19.5 23.5t-10 28q-47 147 -47 178z" />
    <glyph glyph-name="X" unicode="X" horiz-adv-x="516" 
d="M3 31q0 -15 38 -37.5t72 -22.5q15 0 33 30q52 96 85 157q40 -50 105 -115q44 -46 70 -46t65 41t39 63q0 13 -23 34.5t-58 51t-53 54.5q-12 14 -25 18q11 7 23 26q26 38 65 92t54 75q-109 93 -161 93q-26 -11 -41 -31q-16 -21 -28.5 -39.5t-28.5 -44t-26 -41.5
q-25 19 -50.5 51t-26.5 59q-17 -18 -52.5 -47t-55 -49t-19.5 -34q0 -13 16 -31q16 -19 91 -94q-15 -29 -45 -83.5t-46.5 -87.5t-16.5 -42zM-9 23q0 12 11.5 36t43 81.5t49.5 92.5q-58 56 -82 84q-21 25 -21 44t13.5 39.5t29.5 35t52.5 44.5t58.5 50q0 -8 4 -23.5t20 -44.5
t41 -52q57 88 72 108q22 27 49 38h1.5t1.5 1h5q52 0 174 -98q2 -1 7.5 -6t6.5 -6q-2 -5 -10 -15q-100 -138 -119 -166q-1 -1 -9 -11l4 -4q5 -4 6 -6q19 -26 55.5 -56t59.5 -53t23 -43q0 -30 -44.5 -77t-79.5 -47q-33 0 -85 52q-50 50 -86 93l-72 -131q-22 -40 -50 -40
q-41 0 -85.5 27t-44.5 53z" />
    <glyph glyph-name="Y" unicode="Y" horiz-adv-x="425" 
d="M2 400q0 -22 13 -36q36 -40 52 -59t41 -63t25 -76q0 -112 -3 -160q41 -8 106 -8q25 0 41.5 22t16.5 53q0 30 -3 76.5t-3 76.5q0 16 18 38q6 7 31 35.5t34 40t24.5 33t21.5 38t6 31.5q0 13 -11.5 22.5t-27.5 9.5q-40 0 -68 -17q19 -21 19 -54q0 -52 -56 -121
q-17 40 -29 64.5t-33.5 60t-46 53.5t-50.5 18q-49 0 -83.5 -23t-34.5 -55zM-10 392q0 49 40 73.5t98 24.5q30 0 57 -18.5t49 -52t33 -54.5t25 -52q31 43 31 82q0 24 -14 41q-10 10 -16 18q2 1 10.5 5.5t10.5 6.5q34 20 78 20q23 0 41 -14.5t18 -37.5q0 -11 -3.5 -23.5
t-7 -22.5t-13 -24.5t-14.5 -22t-18.5 -23.5t-18 -21.5t-19.5 -22.5t-17 -19q-3 -3 -6.5 -7t-4.5 -5q-13 -17 -13 -25q0 -28 3 -75t3 -78q0 -38 -22 -66.5t-56 -28.5q-67 0 -110 8q-12 4 -19 4l1 17q3 47 3 159q0 63 -111 185q-18 21 -18 49z" />
    <glyph glyph-name="Z" unicode="Z" horiz-adv-x="414" 
d="M-3 79q0 -25 14 -28q58 -3 129 -3q102 0 169 8q39 5 48 38q18 66 25 152h-6q-35 -30 -164 -30q25 40 75 99.5t77 102.5q17 27 17 69q0 15 -19 18q-76 14 -157 14q-69 0 -132 -12q-10 -1 -14 -16q-22 -91 -22 -178q56 34 110 34q11 0 16 -1q-21 -31 -53.5 -73.5t-57 -77.5
t-46.5 -78q-9 -17 -9 -38zM-17 69q0 27 12 49q20 39 40.5 69.5t53 72.5t43.5 57q-44 -8 -77 -29q-3 -2 -16 -9.5t-14 -8.5v35q0 89 22 182q5 29 30 33q59 11 136 11q83 0 161 -14q35 -6 35 -38q0 -48 -20 -80q-27 -43 -72 -97t-59 -73q86 3 113 26q1 1 2.5 3t2.5 3l36 -3
q0 -2 -1 -11.5t-1 -10.5q-7 -82 -26 -155q-12 -46 -65 -53q-69 -8 -171 -8q-108 0 -135 3q-30 8 -30 46z" />
    <glyph glyph-name="bracketleft" unicode="[" horiz-adv-x="345" 
d="M4 612q0 -22 9 -226t9 -252q0 -84 -8 -150t-8 -87q42 0 105 -10t102 -11q91 0 105 36q7 19 10.5 34.5t1.5 31t-3 21t-7.5 21.5t-6.5 17q-36 -23 -84 -23q-36 0 -67 7q14 143 4 444q7 -1 40.5 -6.5t55.5 -5.5q50 0 57 30q18 69 18 118q0 19 -19 19q-18 0 -75.5 -5.5
t-83.5 -5.5q-131 6 -155 3zM-8 621q14 2 19 2q36 1 38 2t47.5 -2t72.5 -4q24 0 82 5.5t77 5.5q17 0 28 -11.5t11 -27.5q0 -44 -19 -122q-5 -19 -25 -32.5t-51 -13.5q-26 0 -75 9q8 -269 -3 -404q36 -4 45 -4q43 0 73 20q14 10 21 14l9 -24q1 -2 6.5 -17t7 -19t4 -18.5
t1.5 -24.5t-4 -26t-10 -34q-19 -49 -124 -49q-42 1 -104.5 11t-102.5 10h-21v20q0 24 8 89.5t8 147.5q0 46 -9 250.5t-9 227.5z" />
    <glyph glyph-name="backslash" unicode="\" horiz-adv-x="391" 
d="M1 360q6 -31 42 -67q17 -17 81.5 -75t82.5 -76q66 -66 73 -100q27 12 54 39q28 28 45 67q0 22 -79 101q-10 10 -78 68t-81 71q-28 28 -55 64q-48 -48 -85 -92zM-14 358q42 49 110 117l16 -21q20 -28 54 -62q12 -11 79.5 -69.5t78.5 -69.5q85 -85 85 -115v-4l-2 -4
q-19 -46 -48 -74q-28 -28 -61 -43l-22 -9l-6 23q-7 31 -67 91q-18 17 -82.5 75t-81.5 76q-37 37 -49 76z" />
    <glyph glyph-name="bracketright" unicode="]" horiz-adv-x="346" 
d="M2 607q0 -85 12 -140q30 -8 67 -8q41 0 91 12q-10 -294 5 -444q-36 -6 -72 -6q-43 0 -79 10q-19 -53 -6 -115q18 -33 106 -33q34 1 98.5 5t108.5 4q0 20 -8 92t-8 156q0 48 9 252t9 226q-49 6 -155 1q-26 0 -83.5 3.5t-75.5 3.5q-19 0 -19 -19zM-9 600q0 17 11 27t28 10
q20 0 78 -3.5t82 -3.5q119 5 157 1l18 -2v-21q0 -23 -9 -227.5t-9 -250.5q0 -82 8 -153t8 -95v-20h-20q-44 0 -107.5 -4t-99.5 -5q-103 0 -125 46q-17 74 4 130l7 17q34 -15 93 -15q14 0 50 3q-11 136 -3 402q-39 -7 -71 -7q-35 0 -71 9q-1 0 -6.5 1t-6.5 2l-2 12
q-14 66 -14 147z" />
    <glyph glyph-name="underscore" unicode="_" horiz-adv-x="349" 
d="M-4 -184v21q0 78 5 143l1 9q1 1 7 5q29 21 89 21q25 0 78 -3.5t77 -3.5q43 0 73 20l21 13q1 -2 4.5 -11t4.5 -12q12 -32 12 -78q0 -53 -19 -100q-28 -28 -105 -28q-16 0 -73 4t-74 4q-56 0 -80 -3q-2 0 -10.5 -0.5t-10.5 -0.5zM8 -155q45 3 81 3q18 0 75.5 -4t71.5 -4
q69 0 88 19q16 40 16 89q0 43 -11 71q-36 -23 -84 -23q-26 0 -78.5 3.5t-76.5 3.5q-53 0 -77 -17q-5 -62 -5 -141z" />
    <glyph glyph-name="a" unicode="a" horiz-adv-x="606" 
d="M190 225q0 19 9.5 34t25.5 18l66 -101l-4 -2q-13 12 -20 14q-13 3 -31.5 5.5t-26 4.5t-13.5 8t-6 19zM2 37q0 -19 22 -33t54 -14q34 0 58 12t24 28q0 74 7 105q96 -3 126.5 -15.5t54.5 -67.5q14 -36 15 -50q25 -2 76 -8.5t87 -6.5q23 0 41.5 17.5t18.5 32.5
q0 35 -22.5 81t-48 80.5t-72.5 94t-69 89.5q-29 41 -33 78q-59 8 -91 0.5t-72 -38.5q0 -148 -78 -285q-11 -19 -54.5 -49.5t-43.5 -50.5zM218 217v-4l1 -2q5 -3 32 -6l-8 12l-11 16.5t-6 9.5q-8 -11 -8 -26zM-10 29q0 25 19.5 43.5t45 36t34.5 32.5q76 133 76 273v13
q35 27 62 38.5t70 11.5q14 0 70 -8q0 -1 1 -7t1 -8q4 -34 29 -68q23 -32 72 -94t74 -96t47.5 -81.5t22.5 -85.5q0 -23 -24.5 -46.5t-55.5 -23.5q-38 0 -89.5 7t-74.5 8l-17 1q0 1 -1 8t-1 9q-2 16 -13 45q-20 46 -43.5 56t-103.5 13q-3 -16 -3 -84q0 -26 -30 -43t-72 -17
q-39 0 -67.5 19t-28.5 48z" />
    <glyph glyph-name="b" unicode="b" horiz-adv-x="471" 
d="M194 165q6 -1 16 -1q40 0 40 28t-36 36q-10 -42 -20 -63zM-14 -45l13 41q35 127 35 237t-13 232l-2 19l19 5q18 4 59.5 25t88.5 38t92 17q62 0 106 -37t44 -105q0 -76 -50 -118q47 -20 78 -56.5t31 -86.5q0 -97 -72 -150t-172 -53q-33 0 -79 12t-60 12q-20 0 -39 -3.5
t-26 -6t-29 -12t-24 -10.5zM158 163q9 13 19.5 45.5t10.5 50.5q30 0 52 -16t22 -43q0 -48 -60 -48q-27 0 -44 11zM185 387q22 15 33 15q20 0 20 -21q0 -18 -17 -35t-33 -23q-3 51 -3 64zM12 -1q38 16 84 16q20 0 65.5 -12t73.5 -12q94 0 159 47.5t65 135.5q0 52 -39.5 87.5
t-93.5 50.5q39 23 56.5 49.5t17.5 73.5q0 59 -37.5 90.5t-92.5 31.5q-41 0 -85.5 -17.5t-85.5 -38.5t-65 -25q14 -131 14 -235q0 -115 -36 -242z" />
    <glyph glyph-name="c" unicode="c" horiz-adv-x="419" 
d="M6 245q0 -87 57 -140t140 -53q102 0 183 74q-9 19 -20 28q-27 -26 -68.5 -42t-80.5 -16t-63 18.5t-24 57.5q0 33 24.5 55.5t59.5 22.5q56 0 110 -40q14 70 31 130q7 25 24.5 65t22.5 52h-4q-7 -22 -30 -39t-44 -17q-31 0 -74 10t-74 10q-68 0 -119 -54.5t-51 -121.5z
M-6 238q0 84 52 140t136 56q34 0 78 -10.5t72 -10.5q13 0 31 12.5t24 30.5q1 2 3 8l1 5h44q-38 -88 -53 -143q-19 -63 -30 -127q-2 -5 -6 -31q-15 10 -25 18q-48 36 -99 36q-27 0 -45.5 -17t-18.5 -41q0 -56 67 -56q36 0 73.5 15t61.5 38q10 10 13 12l13 -11q10 -9 17 -18
q5 -8 10 -19q1 -1 3 -5.5t2 -6.5l-10 -10q-86 -79 -197 -79q-91 0 -154 59t-63 155z" />
    <glyph glyph-name="d" unicode="d" horiz-adv-x="496" 
d="M163 173q0 28 10 52q26 0 41.5 -13t15.5 -35q0 -19 -19.5 -33.5t-43.5 -16.5q-4 32 -4 46zM15 385q0 -27 3.5 -130.5t3.5 -156.5q0 -50 -3 -83q42 6 79 6q24 0 71.5 -8.5t89.5 -8.5q96 0 159.5 71t63.5 177q0 80 -56.5 137t-136.5 57q-51 0 -132.5 -21t-132.5 -27
q-9 -2 -9 -13zM191 165q0 -11 1 -22q26 11 26 26q0 21 -23 26q-4 -18 -4 -30zM2 377q0 16 5.5 24t21.5 10q50 7 131.5 27.5t136.5 20.5q88 0 150.5 -63t62.5 -152q0 -113 -69 -190.5t-174 -77.5q-44 0 -91.5 8.5t-69.5 8.5q-36 0 -76 -6l-25 -3l2 24q3 48 3 82
q0 52 -4 155.5t-4 131.5z" />
    <glyph glyph-name="e" unicode="e" horiz-adv-x="355" 
d="M-2 432q0 31 33 31q63 -15 119 -15q73 0 166 7q1 0 4.5 0.5t4.5 0.5q2 -3 3 -3.5t1.5 -1t2.5 -3.5q30 -34 30 -84q0 -33 -15 -81q-1 -2 -4 -13.5t-4 -13.5q-3 1 -11.5 8.5t-11.5 8.5q-23 18 -60 18h-5.5t-3.5 -0.5t-2 -0.5h-1q18 -24 18 -63q0 -12 -2 -42q0 -1 -0.5 -4
t-0.5 -4l-6 -6q32 9 61 35q2 2 9.5 9t9.5 9l12 -24q18 -39 18 -87q0 -55 -9 -84q-1 -2 -2.5 -6.5t-1.5 -6.5l-13 -1q-96 -8 -182 -8q-73 0 -132 4q-2 0 -10.5 0.5t-10.5 0.5l2 21q3 27 8.5 63.5t8.5 65t3 60.5q0 110 -26 210zM14 429q22 -91 22 -187q0 -40 -3.5 -78
t-9.5 -76.5t-7 -48.5q59 -4 131 -4q84 0 180 8q8 28 8 78q0 45 -16 78q-48 -43 -109 -43q-40 0 -76 11q0 9 7 25q26 -11 40 -11q33 0 51 14q2 30 2 40q0 32 -14 51q-43 -11 -71 -11q-3 11 -3 28q65 16 102 16q40 0 72 -22q14 44 14 75q0 42 -25 71q-93 -7 -167 -7
q-33 0 -69.5 5t-41.5 5q-17 0 -17 -17z" />
    <glyph glyph-name="f" unicode="f" horiz-adv-x="390" 
d="M12 64q10 -3 22.5 -5.5t25 -4t40.5 -4.5t55 -7q10 64 12 119q90 2 114 8q18 69 18 98q0 8 -8 8q-16 0 -52 -5.5t-48 -5.5q-9 0 -18 5t-9 12q0 37 8 55q15 9 38 9q25 0 67.5 -14t52.5 -14q17 2 28 10.5t11 19.5l13 83q-12 43 -58.5 56.5t-125.5 13.5q-84 0 -180 -37
q8 -88 8 -207q0 -109 -14 -193zM-2 42q3 9 3 17q13 78 13 190q0 118 -8 205q0 2 -1 8t-1 7l14 6q98 38 188 38q39 0 65.5 -2.5t58.5 -10t52 -25.5t28 -46v-2t1 -3l-1 -4q-2 -8 -7 -41t-6 -41q-2 -23 -19.5 -34t-37.5 -13l-1 -1h-1q-14 0 -56.5 14t-63.5 14q-13 0 -22 -3
q-4 -16 -4 -36q2 -2 7 -2q12 0 46.5 5.5t53.5 5.5q12 0 20 -8t8 -20q0 -32 -19 -104q0 -1 -1 -5.5t-2 -5.5q-3 -1 -11 -3q-31 -8 -99 -8q-4 -46 -13 -102q0 -2 -1 -9.5t-2 -9.5l-19 3q-27 4 -55 7t-41.5 4.5t-26.5 4t-23 5.5z" />
    <glyph glyph-name="g" unicode="g" horiz-adv-x="480" 
d="M0 268q0 -91 48 -158t132 -67q62 0 100 17q-12 -22 -18 -44q42 6 97 6q9 0 29 -1.5t28 -1.5q17 0 27 16q11 18 13 43q1 25 1 68q0 71 -11 148q-49 -40 -108 -40q-18 0 -48 10t-48 10q-7 0 -11.5 -4t-6 -12.5t-2 -15t-0.5 -19.5q17 -1 29.5 -6.5t12.5 -12.5q0 -16 -24 -30
t-54 -14q-36 0 -55 26t-19 72q0 30 27 48t61 18q28 0 60.5 -14t54.5 -14t33.5 13.5t19.5 38.5q14 44 31 111t23 88q-33 -67 -84 -67q-34 0 -82.5 14.5t-74.5 14.5q-82 0 -131.5 -73t-49.5 -168zM140 250q0 -78 54 -78q37 0 54 19q-12 4 -19 4l-19 1q0 4 -0.5 17t-0.5 16
q0 35 15 48q10 9 26 9h4l3 -1q-26 11 -49 11q-28 0 -48 -14t-20 -32zM-12 260q0 110 52 185.5t149 75.5q32 0 80.5 -14.5t76.5 -14.5q36 0 68 62l37 -14q-50 -185 -57 -206q-22 -65 -71 -66q7 -2 23 -2q50 0 95 36l27 21l5 -34q12 -84 12 -151q0 -19 -2 -69q-2 -31 -15 -53
q-16 -25 -44 -25q-9 0 -29 1.5t-28 1.5q-55 0 -94 -6l-32 -5l9 31q2 4 2 6q-28 -5 -64 -5q-95 0 -147.5 74t-52.5 171z" />
    <glyph glyph-name="h" unicode="h" horiz-adv-x="467" 
d="M16 38q12 -4 26.5 -6t49 -5.5t67.5 -8.5q11 65 12 112q108 3 112 3q-2 -15 -11.5 -43t-9.5 -42q0 -16 11 -25.5t27 -9.5q63 0 130 -12q0 6 -7 79.5t-7 115.5q0 123 34 248q-68 22 -120 22q-21 0 -34 -13t-13 -35v-178q-14 -1 -45 -5.5t-43 -4.5q-9 0 -18 5t-9 12
q0 43 31 214q-84 0 -180 -37q11 -85 11 -202q0 -100 -14 -184zM2 17l3 16q13 78 13 181q0 109 -12 199q0 1 -1 9t-1 9l15 5q103 40 188 40h24q0 -7 -4 -27q-30 -163 -31 -206q3 -1 7 -1q8 0 36 4t32 4q0 25 -0.5 78.5t-0.5 83.5t18 48.5t48 18.5q54 0 128 -24q6 -3 18 -6
q0 -2 -2 -9.5t-3 -9.5q-33 -119 -33 -242q0 -40 7 -113.5t7 -81.5v-24q-10 2 -24 4q-65 12 -126 12q-24 0 -41 15.5t-17 39.5q0 15 15 63q-23 -1 -66 -1q-1 -20 -13 -95q0 -2 -1 -10t-2 -10q-12 3 -19 3q-27 4 -55 7t-41.5 4.5t-26.5 4t-23 5.5z" />
    <glyph glyph-name="i" unicode="i" horiz-adv-x="223" 
d="M8 385q34 -43 34 -162q0 -23 -6 -67t-12 -79.5t-6 -36.5q19 3 40.5 3t50.5 -1.5t47 -1.5q16 0 26 9.5t10 25.5q0 4 -10 46.5t-10 53.5q0 29 7 84t7 99q0 22 -13.5 35t-34.5 13q-37 0 -130 -21zM34 492q0 -24 16 -41.5t38 -17.5q38 0 64 22t26 57q0 51 -64 51
q-33 0 -56.5 -19.5t-23.5 -51.5zM-12 378l1 13q68 17 81 19q-21 9 -34.5 29.5t-13.5 44.5q0 40 29 65.5t71 25.5q41 0 62.5 -20t21.5 -51q0 -60 -55 -87q27 -2 45 -20.5t18 -46.5q0 -45 -7 -100.5t-7 -82.5q0 -6 10 -47.5t10 -52.5q0 -25 -16.5 -40t-39.5 -15q-19 0 -49 1.5
t-50.5 1.5t-37.5 -3l-20 -3l-2 20q0 8 12.5 83t12.5 103q0 48 -6.5 80.5t-13.5 47t-22 35.5z" />
    <glyph glyph-name="j" unicode="j" horiz-adv-x="339" 
d="M8 419q0 -41 12 -73q36 23 84 23q24 0 62 -7q-12 -72 -12 -186q0 -18 -15 -29.5t-33 -11.5q-24 0 -70 23l-6 -139q17 -3 44 -10t49.5 -11.5t44.5 -4.5q67 0 114.5 41t47.5 99q0 38 -6 122t-6 109q0 93 11 152q-26 0 -103.5 10.5t-113.5 10.5q-63 0 -84 -29
q-20 -26 -20 -89zM-5 411q0 70 24 102q27 37 101 37q37 0 114.5 -11t102.5 -11h24q-1 -3 -3 -11.5t-2 -11.5q-10 -58 -10 -149q0 -23 6 -107.5t6 -123.5q0 -67 -54 -113.5t-128 -46.5q-24 0 -45 4t-49.5 11t-47.5 11l-17 4l9 187l28 -14q40 -21 60 -21q11 0 19.5 6t8.5 15
q0 103 9 170q-21 3 -39 3q-56 0 -96 -31q-21 50 -21 101z" />
    <glyph glyph-name="k" unicode="k" horiz-adv-x="420" 
d="M6 481q40 -88 40 -208q0 -39 -6 -72.5t-16.5 -75t-15.5 -70.5q41 -23 86 -23q51 0 66 34l-2 125q7 -8 46 -45.5t58 -67.5q34 -51 34 -94q3 2 28 17.5t39.5 26t29.5 27t15 29.5q0 22 -16 41q-40 50 -126 134q67 30 108 73q34 35 34 78q0 30 -30 48.5t-56 18.5
q-22 0 -50 -32q-21 -23 -38.5 -45.5t-40 -52t-37.5 -48.5q6 20 6 34q0 5 0.5 57t-0.5 57q0 19 -16 28q-25 12 -66 12q-30 0 -74 -6zM-13 490q70 10 101 10q100 0 101 -61q1 -40 1 -80q42 56 73 91q35 40 67 40t69 -24t37 -64q0 -29 -9 -48.5t-31 -43.5q-37 -40 -88 -65
q65 -63 107 -115q21 -26 21 -54q0 -14 -7 -27t-23.5 -27.5t-31 -24t-44 -28.5t-46.5 -31v38q0 36 -31 83q-17 26 -65 74q1 -45 0 -79l-1 -2q-1 -3 -2 -5.5t-3.5 -6.5t-6 -8t-8 -8t-11 -7.5t-14 -6.5t-18 -4.5t-22.5 -1.5q-52 0 -111 33q7 42 18.5 85t17 73.5t5.5 69.5
q0 125 -45 225z" />
    <glyph glyph-name="l" unicode="l" horiz-adv-x="352" 
d="M14 473q0 -22 9 -84t9 -110q0 -83 -8 -150t-8 -87q42 0 105 -10t102 -11q91 0 105 36q16 42 16 103q0 39 -11 67q-36 -23 -84 -23q-31 0 -62 7q3 30 5 54t2.5 48.5t0.5 37.5t-1.5 41t-2 36t-3.5 44.5t-4 47.5q-41 7 -100 7q-28 0 -49 -13.5t-21 -40.5zM2 467q0 35 24 54
t64 19q57 0 105 -8q10 0 16 -2q0 -2 0.5 -8.5t0.5 -7.5q9 -108 10 -143t-5 -150q30 -4 40 -4q38 0 71 22q14 10 21 14q1 -2 11 -27q12 -34 12 -74q0 -66 -17 -110q-19 -49 -124 -49q-42 1 -104.5 11t-102.5 10h-20v20q0 24 8 89.5t8 147.5q0 48 -9 109.5t-9 86.5z" />
    <glyph glyph-name="m" unicode="m" horiz-adv-x="600" 
d="M3 65q0 -10 11 -22t34 -21q36 -7 104 -5l71 172q21 -72 73 -131q65 49 90 118q9 -32 35 -108t31 -83q15 18 41.5 28.5t48 13.5t38 13.5t16.5 31.5q-6 33 -17 84.5t-41.5 155t-56.5 140.5q-83 0 -114 -3l-71 -139q-5 -10 -8 -3q-9 14 -36 73t-41 68l-69 -2q-35 0 -38 -11
q-11 -30 -56 -188t-45 -182zM-9 57q0 25 42 174t59 202q3 9 4 11t15 8t39 6q26 0 43 0.5t23.5 1t8.5 0.5q12 -7 21 -19t14.5 -23.5t17 -37t20.5 -44.5q56 110 63 125q42 3 139 3q32 -46 63 -146t46 -177l15 -77q0 -28 -17.5 -43.5t-40.5 -19t-50 -12.5t-40 -25l-16 -20
l-16 21q-8 10 -54 149q-27 -43 -89 -91q-47 54 -70 102l-57 -135l-13 -1q-65 -2 -111 6q-28 10 -43.5 27t-15.5 35z" />
    <glyph glyph-name="n" unicode="n" horiz-adv-x="526" 
d="M13 40q30 -20 68 -20q33 0 58 14q16 61 16 142q0 30 -5 58q61 -22 124.5 -112.5t72.5 -163.5q20 -6 65 -6q24 0 56 15q16 29 26.5 152.5t13.5 232.5l2 108q0 58 -5 128q-1 1 -5.5 6.5t-6.5 8t-7.5 7.5t-9.5 7.5t-10.5 6.5t-13 6t-15 3.5t-17.5 1.5t-63 -9q24 -43 27 -159
t-20 -255q-137 251 -316 251q-31 0 -31 -16q0 -42 12 -102.5t12 -104.5q0 -82 -28 -200zM-3 23l3 14q28 115 28 195q0 41 -12 102.5t-12 104.5q0 20 10.5 28.5t40.5 8.5q170 0 305 -213q11 92 13.5 159t-6 109.5t-13 57.5t-16.5 41q45 17 91 17q10 0 19.5 -1.5t18 -5
t15.5 -6.5t13.5 -8t11 -9t9.5 -9.5t7 -8t5 -7.5l4 -4q6 -81 6 -136q0 -44 -2 -128t-14 -214.5t-31 -166.5q-44 -19 -71 -19q-48 0 -83 11q-9 79 -59.5 151t-95.5 104q0 -4 0.5 -11t0.5 -11q0 -86 -19 -156q-37 -20 -75 -20q-43 0 -79 22z" />
    <glyph glyph-name="o" unicode="o" horiz-adv-x="372" 
d="M72 132q0 14 9.5 24t23.5 10t24 -6t10 -16q0 -13 -8.5 -22.5t-21.5 -9.5q-15 0 -26 6t-11 14zM4 190q0 -102 55 -130l-12 -6q15 -20 44 -32t58 -12q93 0 151 44.5t58 121.5q0 64 -62 110t-149 46q-52 0 -91.5 -40.5t-51.5 -101.5zM100 128q8 -4 17 -4q10 0 10 10
q-4 4 -14 4q-11 0 -13 -10zM-8 182v2v2q14 73 57.5 115.5t105.5 42.5q94 0 162.5 -50.5t68.5 -125.5q0 -84 -62.5 -135t-166.5 -51q-32 0 -65.5 13.5t-52.5 38.5q-15 20 -16 21q1 0 2.5 0.5t2.5 1.5q-36 41 -36 125z" />
    <glyph glyph-name="p" unicode="p" horiz-adv-x="489" 
d="M173 280q0 24 8 45q18 0 34.5 -5.5t16.5 -18.5q0 -18 -17 -31t-40 -13q-2 14 -2 23zM8 38q0 -40 75 -40q43 0 77 18q21 42 21 105q0 39 -4 84q36 -9 90 -9q80 0 146.5 52.5t66.5 143.5q0 64 -50.5 105.5t-122.5 41.5q-49 0 -133.5 -34t-141.5 -41q-9 -2 -9 -13
q0 -41 6.5 -103.5t6.5 -108.5q0 -36 -7 -83.5t-14 -81t-7 -36.5zM201 272q18 8 19 18q-8 4 -17 5q-2 -9 -2 -23zM-4 30q0 4 7 38.5t14 81t7 81.5q0 44 -6.5 106.5t-6.5 105.5q0 29 23 33q57 7 142.5 41.5t138.5 34.5q79 0 136 -47.5t57 -120.5q0 -100 -73 -158t-160 -58
q-41 0 -68 4q2 -24 2 -59q0 -68 -23 -114l-3 -6l-6 -3q-37 -20 -86 -20q-53 0 -74 18t-21 42z" />
    <glyph glyph-name="q" unicode="q" horiz-adv-x="349" 
d="M12 40q21 -37 98.5 -75.5t129.5 -38.5q40 0 63 39.5t44 135.5l-3 1q-17 -34 -34.5 -50.5t-45.5 -16.5q-21 0 -63.5 13.5t-76 24.5t-66.5 5t-46 -38zM70 260q0 12 8.5 20t19.5 8q12 0 20.5 -5.5t8.5 -12.5q0 -11 -7.5 -18.5t-17.5 -7.5q-13 0 -22.5 5t-9.5 11zM2 290
q0 -102 55 -130l-12 -6q19 -26 81 -26q90 0 150 40.5t60 107.5q0 62 -56 104t-145 42q-48 0 -85 -37.5t-48 -94.5zM-3 32l4 9q16 39 53.5 48t74 -2t80.5 -25.5t63 -14.5q21 0 34 12.5t28 43.5l8 15q1 0 17 -5q1 0 1 -0.5t1 -0.5l18 -6q0 -2 -1.5 -8.5t-2.5 -8.5
q-22 -98 -48.5 -144.5t-78.5 -46.5q-58 0 -140 41.5t-105 82.5zM-11 285q13 66 52 107t102 41q96 0 158.5 -47t62.5 -118q0 -75 -65 -121.5t-165 -46.5q-72 0 -97 34q-1 1 -16 21q1 0 2.5 0.5t2.5 1.5q-37 43 -37 128z" />
    <glyph glyph-name="r" unicode="r" horiz-adv-x="478" 
d="M182 342q31 0 51.5 -5t20.5 -13q0 -13 -8.5 -20.5t-21 -11.5t-30.5 -7q-5 -1 -7 -1zM0 14q77 -16 169 -16q16 0 24.5 11t8.5 27q0 105 -13 192q54 -39 71 -85.5t17 -152.5q27 -20 62 -20q57 0 95 49t42 107q-42 0 -62 13t-27 46q-8 39 -32 62.5t-63 23.5q62 17 99.5 55.5
t37.5 90.5q0 41 -36.5 71.5t-87.5 30.5q-39 0 -98 -26.5t-98 -26.5q-15 0 -28 1.5t-29 3.5t-28 3q2 -30 6 -74.5t6.5 -79.5t2.5 -75t-6 -76t-17 -79.5t-16 -75.5zM-15 -10l3 19q6 33 16.5 77t16.5 78t6 73t-2.5 74t-6.5 79t-6 75q0 3 -1 12t-1 11q2 0 12 -1t12 -1
q11 -1 38 -4.5t45 -3.5q34 0 94 26.5t102 26.5q58 0 101 -36.5t43 -85.5q0 -91 -96 -143q42 -27 54 -85q5 -24 18.5 -33.5t50.5 -9.5h21q0 -1 -0.5 -10t-0.5 -11q-5 -65 -48 -120t-109 -55q-42 0 -74 24q-1 0 -4 3t-4 3v10q0 81 -8.5 121t-32.5 68q6 -57 6 -143
q0 -23 -14 -40.5t-39 -17.5q-93 0 -173 16z" />
    <glyph glyph-name="s" unicode="s" horiz-adv-x="325" 
d="M13 19q17 -3 44 -10t49.5 -11.5t44.5 -4.5q67 0 114.5 41t47.5 99q0 36 -22 64t-58 39q-49 15 -55 24q-2 4 -2 7q0 9 14 9q29 0 52 -7q13 96 48 161q-102 20 -152 20q-45 0 -79 -26t-34 -62q0 -53 42 -98q43 -46 43 -98q0 -19 -12 -32.5t-29 -13.5q-8 0 -16 3.5t-18 10
t-16 9.5zM0 -5l7 141q0 3 1 15.5t1 15.5l28 -14q7 -4 16 -9.5t14.5 -8.5t9.5 -3q8 0 14.5 7.5t6.5 18.5q0 42 -38 84q-47 51 -47 112q0 52 39.5 80t93.5 28q53 0 156 -20q3 -1 14 -3.5t13 -2.5q-1 -3 -6 -12t-7 -11q-35 -65 -46 -155q0 -1 -1.5 -9t-1.5 -10q34 -17 54 -47
t20 -67q0 -67 -54 -113.5t-128 -46.5q-24 0 -45 4t-49.5 11t-47.5 11z" />
    <glyph glyph-name="t" unicode="t" horiz-adv-x="504" 
d="M5 398q0 -36 12 -67q36 23 83 23q32 0 63 -7q-12 -72 -12 -168q0 -28 2.5 -58t6.5 -65t6 -58q41 -7 100 -7q28 0 49 13.5t21 40.5q0 24 -8.5 87t-10.5 108q0 16 -1.5 59.5t-2.5 64.5q14 -1 52.5 -6.5t61.5 -5.5q49 0 57 30q18 69 18 128q0 19 -19 19q-18 0 -58.5 -6.5
t-66.5 -6.5q-42 0 -117.5 10t-113.5 11q-91 0 -105 -37q-17 -45 -17 -102zM-8 390q0 71 16 113q19 50 127 50q42 -1 116.5 -13t114.5 -12q23 0 63 6.5t62 6.5q16 0 27 -10q12 -11 12 -29q0 -53 -19 -132q-12 -46 -76 -46q-24 0 -94 10q1 -20 2.5 -55t1.5 -47
q2 -43 10.5 -105.5t8.5 -89.5q0 -37 -28 -55.5t-62 -18.5q-62 0 -104 7l-15 3l-1 15q-2 21 -6 57t-6.5 66.5t-2.5 59.5q0 89 9 152q-21 3 -40 3q-44 0 -72 -19l-21 -14l-9 23q-14 37 -14 74z" />
    <glyph glyph-name="u" unicode="u" 
d="M12 404q2 -11 12 -39.5t10 -42.5q0 -11 -5.5 -60.5t-5.5 -83.5q0 -49 38 -82.5t102 -33.5q73 0 117 76.5t44 199.5q0 44 -12 76t-28 32q-26 0 -32 -22q2 -9 14 -34t12 -40q0 -32 -15 -54.5t-37 -22.5q-18 0 -31 40t-13 97q0 11 -27.5 18.5t-66.5 7.5q-60 0 -76 -32z
M-3 404l4 6q26 38 95 38q44 0 79 -11t35 -35q0 -34 5 -61.5t10.5 -39.5t9.5 -16q11 2 21 18t10 39q0 11 -11 33.5t-14 34.5q0 1 -0.5 2l-1.5 3q2 4 2 6q4 17 19 27t32 10q28 0 44 -37t16 -91q0 -134 -50 -215t-131 -81q-71 0 -115.5 39t-44.5 97q0 36 5.5 85.5t5.5 57.5
q0 10 -10 40.5t-12 39.5z" />
    <glyph glyph-name="v" unicode="v" horiz-adv-x="340" 
d="M5 224q0 -24 18 -87.5t27 -84.5q16 -41 48.5 -70.5t72.5 -29.5q37 28 73 103q36 76 59 146t27 102l5 32q0 37 -22 37q-36 0 -63 -7q-36 -9 -46 -37q-39 -110 -49 -158l-39 113q-27 -5 -52 -15q-37 -15 -48 -24.5t-11 -19.5zM-8 218q0 17 16 32t42 24.5t46.5 15t40.5 8.5
l23 -69l32 97q13 40 60 51q30 7 69 7q19 0 30.5 -16t11.5 -41q0 -10 -5.5 -40.5t-28.5 -102t-59 -146.5q-40 -80 -84 -114q-58 0 -94 35t-53 78l-5 15q-5 16 -12 37.5t-14 45.5t-11.5 47t-4.5 36z" />
    <glyph glyph-name="w" unicode="w" horiz-adv-x="451" 
d="M8 224q0 -42 46 -172q6 -17 10 -25.5t13 -16.5t21 -7l28 1q24 2 38 21q7 10 33 50q1 2 2.5 1t2.5 -3l27 -75q31 -3 59 -3q37 0 66 60q34 71 51 121q15 43 27.5 94.5t12.5 64.5q0 37 -22 37q-33 0 -67 -9q-36 -9 -46 -37q-18 -53 -46 -90q-3 8 -6 20.5t-5 18t-5 12t-6.5 9
t-8.5 3.5l-15 -1q-11 0 -18.5 -16.5t-17 -39t-23.5 -34.5l-33 77q-31 -5 -57 -16q-61 -25 -61 -45zM-4 216q0 25 14.5 36.5t58.5 28.5q35 14 76 18q20 -40 28 -58q3 6 9 21.5t10 23.5t12.5 15.5t20.5 8.5l17 1q28 -5 37 -34q12 24 20 47q9 27 22 36.5t39 15.5q28 8 71 8
q19 0 30.5 -16t11.5 -41q0 -17 -14 -72.5t-27 -93.5q-23 -62 -52 -123q-34 -71 -84 -71q-30 0 -61 3q-2 0 -5.5 0.5t-7.5 0.5q0 1 -2 6t-2 6q-13 39 -15 43q-2 -3 -4.5 -7t-5.5 -8t-4 -6q-20 -27 -54 -29l-28 -1q-20 -1 -34.5 11.5t-19.5 23.5t-10 28q-47 147 -47 178z" />
    <glyph glyph-name="x" unicode="x" horiz-adv-x="516" 
d="M3 31q0 -15 38 -37.5t72 -22.5q15 0 33 30q52 96 85 157q40 -50 105 -115q44 -46 70 -46t65 41t39 63q0 13 -23 34.5t-58 51t-53 54.5q-12 14 -25 18q11 7 23 26q26 38 65 92t54 75q-109 93 -161 93q-26 -11 -41 -31q-16 -21 -28.5 -39.5t-28.5 -44t-26 -41.5
q-25 19 -50.5 51t-26.5 59q-17 -18 -52.5 -47t-55 -49t-19.5 -34q0 -13 16 -31q16 -19 91 -94q-15 -29 -45 -83.5t-46.5 -87.5t-16.5 -42zM-9 23q0 12 11.5 36t43 81.5t49.5 92.5q-58 56 -82 84q-21 25 -21 44t13.5 39.5t29.5 35t52.5 44.5t58.5 50q0 -8 4 -23.5t20 -44.5
t41 -52q57 88 72 108q22 27 49 38h1.5t1.5 1h5q52 0 174 -98q2 -1 7.5 -6t6.5 -6q-2 -5 -10 -15q-100 -138 -119 -166q-1 -1 -9 -11l4 -4q5 -4 6 -6q19 -26 55.5 -56t59.5 -53t23 -43q0 -30 -44.5 -77t-79.5 -47q-33 0 -85 52q-50 50 -86 93l-72 -131q-22 -40 -50 -40
q-41 0 -85.5 27t-44.5 53z" />
    <glyph glyph-name="y" unicode="y" horiz-adv-x="425" 
d="M2 400q0 -22 13 -36q36 -40 52 -59t41 -63t25 -76q0 -112 -3 -160q41 -8 106 -8q25 0 41.5 22t16.5 53q0 30 -3 76.5t-3 76.5q0 16 18 38q6 7 31 35.5t34 40t24.5 33t21.5 38t6 31.5q0 13 -11.5 22.5t-27.5 9.5q-40 0 -68 -17q19 -21 19 -54q0 -52 -56 -121
q-17 40 -29 64.5t-33.5 60t-46 53.5t-50.5 18q-49 0 -83.5 -23t-34.5 -55zM-10 392q0 49 40 73.5t98 24.5q30 0 57 -18.5t49 -52t33 -54.5t25 -52q31 43 31 82q0 24 -14 41q-10 10 -16 18q2 1 10.5 5.5t10.5 6.5q34 20 78 20q23 0 41 -14.5t18 -37.5q0 -11 -3.5 -23.5
t-7 -22.5t-13 -24.5t-14.5 -22t-18.5 -23.5t-18 -21.5t-19.5 -22.5t-17 -19q-3 -3 -6.5 -7t-4.5 -5q-13 -17 -13 -25q0 -28 3 -75t3 -78q0 -38 -22 -66.5t-56 -28.5q-67 0 -110 8q-12 4 -19 4l1 17q3 47 3 159q0 63 -111 185q-18 21 -18 49z" />
    <glyph glyph-name="z" unicode="z" horiz-adv-x="414" 
d="M-3 79q0 -25 14 -28q58 -3 129 -3q102 0 169 8q39 5 48 38q18 66 25 152h-6q-35 -30 -164 -30q25 40 75 99.5t77 102.5q17 27 17 69q0 15 -19 18q-76 14 -157 14q-69 0 -132 -12q-10 -1 -14 -16q-22 -91 -22 -178q56 34 110 34q11 0 16 -1q-21 -31 -53.5 -73.5t-57 -77.5
t-46.5 -78q-9 -17 -9 -38zM-17 69q0 27 12 49q20 39 40.5 69.5t53 72.5t43.5 57q-44 -8 -77 -29q-3 -2 -16 -9.5t-14 -8.5v35q0 89 22 182q5 29 30 33q59 11 136 11q83 0 161 -14q35 -6 35 -38q0 -48 -20 -80q-27 -43 -72 -97t-59 -73q86 3 113 26q1 1 2.5 3t2.5 3l36 -3
q0 -2 -1 -11.5t-1 -10.5q-7 -82 -26 -155q-12 -46 -65 -53q-69 -8 -171 -8q-108 0 -135 3q-30 8 -30 46z" />
    <glyph glyph-name="asciitilde" unicode="~" horiz-adv-x="349" 
d="M6 146q39 34 86 34q18 0 69.5 -23t76.5 -23q43 0 72.5 34.5t29.5 84.5q0 43 -11 71q-33 -37 -82 -37q-32 0 -81.5 21.5t-71.5 21.5q-29 0 -47 -13.5t-26.5 -41t-11.5 -56.5t-3 -73zM-6 88v45q0 52 3.5 84.5t14 63.5t33.5 45.5t59 14.5q27 0 76 -22t77 -22q38 0 66 31
q3 4 11.5 13.5t10.5 11.5q1 -3 6.5 -16t6.5 -16q12 -32 12 -78q0 -57 -35 -98t-87 -41q-28 0 -80.5 23t-65.5 23q-20 0 -41.5 -9.5t-31.5 -19.5q-21 -21 -35 -33z" />
    <glyph glyph-name="cent" unicode="&#xa2;" horiz-adv-x="419" 
d="M6 255q0 -77 45 -127.5t115 -62.5q0 -108 10 -157q38 -10 90 -10q-7 68 -7 171q70 16 127 67q-9 19 -20 28q-27 -26 -68.5 -42t-80.5 -16t-63 18.5t-24 57.5q0 33 24.5 55.5t59.5 22.5q56 0 110 -40q14 70 31 130q7 25 24.5 65t22.5 52h-4q-7 -22 -30 -39t-44 -17
q-30 0 -60 7q0 150 -12 192q-25 22 -53 22q-27 0 -43 -12q14 -73 14 -189q-66 -2 -115 -56t-49 -120zM-4 245q0 72 47 129.5t117 64.5q-2 110 -13 167l-3 14q1 1 5 3.5t5 3.5q20 15 55 15t71 -31q12 -39 14 -186q24 -4 38 -4t32 12.5t24 30.5q1 1 2.5 6t1.5 7h49
q-4 -12 -10 -27q-4 -9 -22.5 -51t-24.5 -65q-15 -53 -36 -158q-28 20 -41.5 29t-35.5 17t-47 8q-27 0 -45.5 -17t-18.5 -41q0 -56 67 -56q35 0 72.5 15.5t61.5 38.5q10 10 13 12q22 -18 30 -29t16 -32l-10 -10q-55 -49 -121 -68q1 -89 9 -175q-84 0 -129 13q-12 53 -13 158
q-72 17 -116 71.5t-44 134.5z" />
    <glyph glyph-name="cedilla" unicode="&#xb8;" horiz-adv-x="243" 
d="M8 -184q53 -25 113 -25q40 0 67.5 23.5t27.5 56.5q0 69 -97 101l18 37h-57l-25 -58q30 -14 30 -42q0 -6 -7 -11.5t-15 -5.5q-26 0 -38 14q-17 -35 -17 -90zM-5 -193q0 72 31 127l9 -3l37 88h107l-23 -46q37 -13 63.5 -40.5t26.5 -71.5q0 -43 -34 -71.5t-81 -28.5
q-65 0 -136 33v13z" />
    <glyph glyph-name="Agrave" unicode="&#xc0;" horiz-adv-x="606" 
d="M106 698q3 -2 55 -72.5t81 -86.5q24 -13 107 -13q-6 31 -10.5 50t-16.5 45t-28 40.5t-44 25.5t-65 11h-79zM72 709h123q42 0 74 -13t50 -30.5t31.5 -47t18 -48.5t10.5 -50q1 -3 2.5 -12t1.5 -12h-24q-91 0 -117 15q-19 10 -42.5 35.5t-41 49.5t-34.5 48.5t-20 27.5
q-2 2 -9 11t-13 16t-10 10zM190 225q0 19 9.5 34t25.5 18l66 -101l-4 -2q-13 12 -20 14q-13 3 -31.5 5.5t-26 4.5t-13.5 8t-6 19zM2 37q0 -19 22 -33t54 -14q34 0 58 12t24 28q0 74 7 105q96 -3 126.5 -15.5t54.5 -67.5q14 -36 15 -50q25 -2 76 -8.5t87 -6.5q23 0 41.5 17.5
t18.5 32.5q0 35 -22.5 81t-48 80.5t-72.5 94t-69 89.5q-29 41 -33 78q-59 8 -91 0.5t-72 -38.5q0 -148 -78 -285q-11 -19 -54.5 -49.5t-43.5 -50.5zM218 217v-4l1 -2q5 -3 32 -6l-8 12l-11 16.5t-6 9.5q-8 -11 -8 -26zM-10 29q0 25 19.5 43.5t45 36t34.5 32.5q76 133 76 273
v13q35 27 62 38.5t70 11.5q14 0 70 -8q0 -1 1 -7t1 -8q4 -34 29 -68q23 -32 72 -94t74 -96t47.5 -81.5t22.5 -85.5q0 -23 -24.5 -46.5t-55.5 -23.5q-38 0 -89.5 7t-74.5 8l-17 1q0 1 -1 8t-1 9q-2 16 -13 45q-20 46 -43.5 56t-103.5 13q-3 -16 -3 -84q0 -26 -30 -43t-72 -17
q-39 0 -67.5 19t-28.5 48z" />
    <glyph glyph-name="Aacute" unicode="&#xc1;" horiz-adv-x="606" 
d="M210 524q82 0 106 13q29 16 81.5 86.5t55.5 72.5h-79q-37 0 -65 -11t-44 -25.5t-28 -40.5t-16.5 -45t-10.5 -50zM194 496q16 89 32 121q43 91 156 91h116q-2 -1 -32 -45t-68.5 -91t-63.5 -60q-30 -16 -116 -16h-24zM190 225q0 19 9.5 34t25.5 18l66 -101l-4 -2
q-13 12 -20 14q-13 3 -31.5 5.5t-26 4.5t-13.5 8t-6 19zM2 37q0 -19 22 -33t54 -14q34 0 58 12t24 28q0 74 7 105q96 -3 126.5 -15.5t54.5 -67.5q14 -36 15 -50q25 -2 76 -8.5t87 -6.5q23 0 41.5 17.5t18.5 32.5q0 35 -22.5 81t-48 80.5t-72.5 94t-69 89.5q-29 41 -33 78
q-59 8 -91 0.5t-72 -38.5q0 -148 -78 -285q-11 -19 -54.5 -49.5t-43.5 -50.5zM218 217v-4l1 -2q5 -3 32 -6l-8 12l-11 16.5t-6 9.5q-8 -11 -8 -26zM-10 29q0 25 19.5 43.5t45 36t34.5 32.5q76 133 76 273v13q35 27 62 38.5t70 11.5q14 0 70 -8q0 -1 1 -7t1 -8q4 -34 29 -68
q23 -32 72 -94t74 -96t47.5 -81.5t22.5 -85.5q0 -23 -24.5 -46.5t-55.5 -23.5q-38 0 -89.5 7t-74.5 8l-17 1q0 1 -1 8t-1 9q-2 16 -13 45q-20 46 -43.5 56t-103.5 13q-3 -16 -3 -84q0 -26 -30 -43t-72 -17q-39 0 -67.5 19t-28.5 48z" />
    <glyph glyph-name="Acircumflex" unicode="&#xc2;" horiz-adv-x="606" 
d="M149 592q0 -20 24 -42q18 -16 43 -31q64 42 96 94q35 -21 56 -48t25 -46q52 21 52 58q0 28 -42 66q-24 21 -52 39.5t-37 28.5q-18 2 -22 2q-13 0 -26 -8q-47 -44 -107 -93q-10 -9 -10 -20zM139 582q0 21 17 36q26 22 58.5 52t47.5 42q16 11 40 11q13 0 31 -3
q13 -13 42.5 -33.5t50.5 -38.5q49 -44 49 -81q0 -57 -87 -85q-7 54 -61 94q-40 -52 -100 -91q-34 19 -57 40q-31 28 -31 57zM190 225q0 19 9.5 34t25.5 18l66 -101l-4 -2q-13 12 -20 14q-13 3 -31.5 5.5t-26 4.5t-13.5 8t-6 19zM2 37q0 -19 22 -33t54 -14q34 0 58 12t24 28
q0 74 7 105q96 -3 126.5 -15.5t54.5 -67.5q14 -36 15 -50q25 -2 76 -8.5t87 -6.5q23 0 41.5 17.5t18.5 32.5q0 35 -22.5 81t-48 80.5t-72.5 94t-69 89.5q-29 41 -33 78q-59 8 -91 0.5t-72 -38.5q0 -148 -78 -285q-11 -19 -54.5 -49.5t-43.5 -50.5zM218 217v-4l1 -2
q5 -3 32 -6l-8 12l-11 16.5t-6 9.5q-8 -11 -8 -26zM-10 29q0 25 19.5 43.5t45 36t34.5 32.5q76 133 76 273v13q35 27 62 38.5t70 11.5q14 0 70 -8q0 -1 1 -7t1 -8q4 -34 29 -68q23 -32 72 -94t74 -96t47.5 -81.5t22.5 -85.5q0 -23 -24.5 -46.5t-55.5 -23.5q-38 0 -89.5 7
t-74.5 8l-17 1q0 1 -1 8t-1 9q-2 16 -13 45q-20 46 -43.5 56t-103.5 13q-3 -16 -3 -84q0 -26 -30 -43t-72 -17q-39 0 -67.5 19t-28.5 48z" />
    <glyph glyph-name="Atilde" unicode="&#xc3;" horiz-adv-x="606" 
d="M126 532q39 34 86 34q18 0 69.5 -23t76.5 -23q43 0 72.5 34.5t29.5 84.5q0 43 -11 71q-33 -37 -82 -37q-32 0 -81.5 21.5t-71.5 21.5q-29 0 -47 -13.5t-26.5 -41t-11.5 -56.5t-3 -73zM114 474v45q0 52 3.5 84.5t14 63.5t33.5 45.5t59 14.5q27 0 76 -22t77 -22q38 0 66 31
q3 4 11.5 13.5t10.5 11.5q1 -3 6.5 -16t6.5 -16q12 -32 12 -78q0 -57 -35 -98t-87 -41q-28 0 -80.5 23t-65.5 23q-20 0 -41.5 -9.5t-31.5 -19.5q-21 -21 -35 -33zM190 225q0 19 9.5 34t25.5 18l66 -101l-4 -2q-13 12 -20 14q-13 3 -31.5 5.5t-26 4.5t-13.5 8t-6 19zM2 37
q0 -19 22 -33t54 -14q34 0 58 12t24 28q0 74 7 105q96 -3 126.5 -15.5t54.5 -67.5q14 -36 15 -50q25 -2 76 -8.5t87 -6.5q23 0 41.5 17.5t18.5 32.5q0 35 -22.5 81t-48 80.5t-72.5 94t-69 89.5q-29 41 -33 78q-59 8 -91 0.5t-72 -38.5q0 -148 -78 -285q-11 -19 -54.5 -49.5
t-43.5 -50.5zM218 217v-4l1 -2q5 -3 32 -6l-8 12l-11 16.5t-6 9.5q-8 -11 -8 -26zM-10 29q0 25 19.5 43.5t45 36t34.5 32.5q76 133 76 273v13q35 27 62 38.5t70 11.5q14 0 70 -8q0 -1 1 -7t1 -8q4 -34 29 -68q23 -32 72 -94t74 -96t47.5 -81.5t22.5 -85.5q0 -23 -24.5 -46.5
t-55.5 -23.5q-38 0 -89.5 7t-74.5 8l-17 1q0 1 -1 8t-1 9q-2 16 -13 45q-20 46 -43.5 56t-103.5 13q-3 -16 -3 -84q0 -26 -30 -43t-72 -17q-39 0 -67.5 19t-28.5 48z" />
    <glyph glyph-name="Adieresis" unicode="&#xc4;" horiz-adv-x="606" 
d="M149 577q0 -18 11.5 -31t26.5 -13q32 0 53 17.5t21 46.5q0 36 -48 36q-27 0 -45.5 -15.5t-18.5 -40.5zM321 577q0 -18 11.5 -31t26.5 -13q32 0 53 17.5t21 46.5q0 36 -48 36q-27 0 -45.5 -15.5t-18.5 -40.5zM137 569q0 34 25 55t59 21q68 0 68 -56q0 -37 -27 -60.5
t-67 -23.5q-25 0 -41.5 19.5t-16.5 44.5zM309 569q0 34 25 55t59 21q68 0 68 -56q0 -37 -27 -60.5t-67 -23.5q-25 0 -41.5 19.5t-16.5 44.5zM190 225q0 19 9.5 34t25.5 18l66 -101l-4 -2q-13 12 -20 14q-13 3 -31.5 5.5t-26 4.5t-13.5 8t-6 19zM2 37q0 -19 22 -33t54 -14
q34 0 58 12t24 28q0 74 7 105q96 -3 126.5 -15.5t54.5 -67.5q14 -36 15 -50q25 -2 76 -8.5t87 -6.5q23 0 41.5 17.5t18.5 32.5q0 35 -22.5 81t-48 80.5t-72.5 94t-69 89.5q-29 41 -33 78q-59 8 -91 0.5t-72 -38.5q0 -148 -78 -285q-11 -19 -54.5 -49.5t-43.5 -50.5zM218 217
v-4l1 -2q5 -3 32 -6l-8 12l-11 16.5t-6 9.5q-8 -11 -8 -26zM-10 29q0 25 19.5 43.5t45 36t34.5 32.5q76 133 76 273v13q35 27 62 38.5t70 11.5q14 0 70 -8q0 -1 1 -7t1 -8q4 -34 29 -68q23 -32 72 -94t74 -96t47.5 -81.5t22.5 -85.5q0 -23 -24.5 -46.5t-55.5 -23.5
q-38 0 -89.5 7t-74.5 8l-17 1q0 1 -1 8t-1 9q-2 16 -13 45q-20 46 -43.5 56t-103.5 13q-3 -16 -3 -84q0 -26 -30 -43t-72 -17q-39 0 -67.5 19t-28.5 48z" />
    <glyph glyph-name="Aring" unicode="&#xc5;" horiz-adv-x="606" 
d="M190 225q0 19 9.5 34t25.5 18l66 -101l-4 -2q-13 12 -20 14q-13 3 -31.5 5.5t-26 4.5t-13.5 8t-6 19zM2 37q0 -19 22 -33t54 -14q34 0 58 12t24 28q0 74 7 105q96 -3 126.5 -15.5t54.5 -67.5q14 -36 15 -50q25 -2 76 -8.5t87 -6.5q23 0 41.5 17.5t18.5 32.5
q0 35 -22.5 81t-48 80.5t-72.5 94t-69 89.5q-21 28 -28 58q-5 22 -5 35q7 3 14 8q47 31 47 90q0 45 -43.5 77t-104.5 32q-36 0 -64 -27.5t-36 -70.5q0 -48 23 -83.5t64 -42.5q-30 -9 -63 -36q0 -148 -78 -285q-11 -19 -54.5 -49.5t-43.5 -50.5zM218 217v-4l1 -2q5 -3 32 -6
l-8 12l-11 16.5t-6 9.5q-8 -11 -8 -26zM-10 29q0 25 19.5 43.5t45 36t34.5 32.5q76 133 76 273v13q11 9 33 23q-54 41 -54 124v8q23 110 120 110q68 0 118 -36.5t50 -92.5q0 -73 -63 -111q4 -31 29 -66q23 -32 72 -94t74 -96t47.5 -81.5t22.5 -85.5q0 -23 -24.5 -46.5
t-55.5 -23.5q-38 0 -89.5 7t-74.5 8l-17 1q0 1 -1 8t-1 9q-2 16 -13 45q-20 46 -43.5 56t-103.5 13q-3 -16 -3 -84q0 -26 -30 -43t-72 -17q-39 0 -67.5 19t-28.5 48zM211 536q0 14 9.5 24t23.5 10t24 -6.5t10 -16.5q0 -13 -8.5 -22t-21.5 -9q-15 0 -26 6t-11 14zM237 533
q6 -3 17 -3q10 0 10 10q-4 4 -14 4t-13 -11z" />
    <glyph glyph-name="AE" unicode="&#xc6;" horiz-adv-x="655" 
d="M2 37q0 -19 22 -33t54 -14q34 0 58 12t24 28q0 77 7 105q96 -3 126.5 -15.5t54.5 -67.5q5 -21 8 -34q40 13 91 13q84 0 180 8q8 28 8 82q0 45 -16 78q-48 -43 -109 -43q-40 0 -76 11q0 9 7 25q26 -11 40 -11q33 0 51 14q2 30 2 40q0 32 -14 51q-60 -13 -88 -13
q-3 11 -3 28q74 18 119 18q40 0 72 -22q14 44 14 75q0 44 -25 73q-93 -7 -167 -7q-48 0 -99 9.5t-54 9.5q-38 0 -60.5 -6.5t-50.5 -28.5q0 -108 -39 -205q-27 -66 -49 -92q-20 -23 -43.5 -39t-34 -25t-10.5 -24zM190 225q0 20 11.5 34.5t32.5 17.5l61 -101l-8 -2
q-13 12 -20 14q-13 3 -31.5 5.5t-26 4.5t-13.5 8t-6 19zM-8 27q0 25 11 37.5t36.5 28.5t43.5 36q19 22 45 86q39 97 39 197v13q3 3 9 6q29 23 54 29.5t69 6.5q6 0 55 -9.5t98 -9.5q73 0 166 7q1 0 5 1h4l4 -4l3 -4q30 -34 30 -86q0 -44 -23 -108q-13 12 -21 18t-24.5 11.5
t-37.5 5.5q-3 0 -7 -0.5t-5 -0.5q18 -24 18 -63q0 -12 -2 -42v-4t-1 -4l-6 -6q27 7 59 37l19 18q1 -2 7 -13t7 -13q18 -39 18 -87q0 -57 -9 -88q-1 -4 -4 -13h-8l-5 -1q-96 -8 -182 -8q-48 0 -85 -12q-2 -1 -10.5 -4t-10.5 -3q0 2 -5 22q-1 4 -3.5 16t-3.5 16q-20 45 -44 55
t-102 13q-3 -21 -3 -84q0 -26 -30 -43t-72 -17q-39 0 -67.5 19t-28.5 48zM220 215v-4l1 -2q4 -2 39 -7l-25 41q-15 -9 -15 -28z" />
    <glyph glyph-name="Ccedilla" unicode="&#xc7;" horiz-adv-x="419" 
d="M6 245q0 -76 43 -126t111 -63l-24 -55q30 -16 30 -42q0 -6 -7 -11.5t-15 -5.5q-26 0 -38 14q-17 -35 -17 -91q53 -25 113 -25q40 0 67.5 23.5t27.5 56.5q0 70 -97 102l15 31q97 5 171 73q-9 19 -20 28q-27 -26 -68.5 -42t-80.5 -16t-63 18.5t-24 57.5q0 33 24.5 55.5
t59.5 22.5q56 0 110 -40q14 70 31 130q7 25 24.5 65t22.5 52h-4q-7 -22 -30 -39t-44 -17q-31 0 -74 10t-74 10q-68 0 -119 -54.5t-51 -121.5zM-6 238q0 84 52 140t136 56q34 0 78 -10.5t72 -10.5q13 0 31 12.5t24 30.5q1 2 3 8l1 5h44q-38 -88 -53 -143q-19 -63 -30 -127
q-2 -5 -6 -31q-15 10 -25 18q-48 36 -99 36q-27 0 -45.5 -17t-18.5 -41q0 -56 67 -56q36 0 73.5 15t61.5 38q10 10 13 12l13 -11q10 -9 17 -18q5 -8 10 -19q1 -1 3 -5.5t2 -6.5l-10 -10q-74 -67 -169 -77l-2 -4q37 -13 63.5 -40.5t26.5 -71.5q0 -43 -34 -71.5t-81 -28.5
q-62 0 -136 34v12q0 73 31 128l9 -3l23 54q-65 20 -105 74t-40 129z" />
    <glyph glyph-name="Egrave" unicode="&#xc8;" horiz-adv-x="355" 
d="M-14 678q3 -2 55 -72.5t81 -86.5q24 -13 107 -13q-6 31 -10.5 50t-16.5 45t-28 40.5t-44 25.5t-65 11h-79zM-48 689h123q42 0 74 -13t50 -30.5t31.5 -47t18 -48.5t10.5 -50q1 -3 2.5 -12t1.5 -12h-24q-91 0 -117 15q-19 10 -42.5 35.5t-41 49.5t-34.5 48.5t-20 27.5
q-2 2 -9 11t-13 16t-10 10zM-2 432q0 31 33 31q63 -15 119 -15q73 0 166 7q1 0 4.5 0.5t4.5 0.5q2 -3 3 -3.5t1.5 -1t2.5 -3.5q30 -34 30 -84q0 -33 -15 -81q-1 -2 -4 -13.5t-4 -13.5q-3 1 -11.5 8.5t-11.5 8.5q-23 18 -60 18h-5.5t-3.5 -0.5t-2 -0.5h-1q18 -24 18 -63
q0 -12 -2 -42q0 -1 -0.5 -4t-0.5 -4l-6 -6q32 9 61 35q2 2 9.5 9t9.5 9l12 -24q18 -39 18 -87q0 -55 -9 -84q-1 -2 -2.5 -6.5t-1.5 -6.5l-13 -1q-96 -8 -182 -8q-73 0 -132 4q-2 0 -10.5 0.5t-10.5 0.5l2 21q3 27 8.5 63.5t8.5 65t3 60.5q0 110 -26 210zM14 429
q22 -91 22 -187q0 -40 -3.5 -78t-9.5 -76.5t-7 -48.5q59 -4 131 -4q84 0 180 8q8 28 8 78q0 45 -16 78q-48 -43 -109 -43q-40 0 -76 11q0 9 7 25q26 -11 40 -11q33 0 51 14q2 30 2 40q0 32 -14 51q-43 -11 -71 -11q-3 11 -3 28q65 16 102 16q40 0 72 -22q14 44 14 75
q0 42 -25 71q-93 -7 -167 -7q-33 0 -69.5 5t-41.5 5q-17 0 -17 -17z" />
    <glyph glyph-name="Eacute" unicode="&#xc9;" horiz-adv-x="355" 
d="M90 504q82 0 106 13q29 16 81.5 86.5t55.5 72.5h-79q-37 0 -65 -11t-44 -25.5t-28 -40.5t-16.5 -45t-10.5 -50zM74 476q16 89 32 121q43 91 156 91h116q-2 -1 -32 -45t-68.5 -91t-63.5 -60q-30 -16 -116 -16h-24zM-2 432q0 31 33 31q63 -15 119 -15q73 0 166 7
q1 0 4.5 0.5t4.5 0.5q2 -3 3 -3.5t1.5 -1t2.5 -3.5q30 -34 30 -84q0 -33 -15 -81q-1 -2 -4 -13.5t-4 -13.5q-3 1 -11.5 8.5t-11.5 8.5q-23 18 -60 18h-5.5t-3.5 -0.5t-2 -0.5h-1q18 -24 18 -63q0 -12 -2 -42q0 -1 -0.5 -4t-0.5 -4l-6 -6q32 9 61 35q2 2 9.5 9t9.5 9l12 -24
q18 -39 18 -87q0 -55 -9 -84q-1 -2 -2.5 -6.5t-1.5 -6.5l-13 -1q-96 -8 -182 -8q-73 0 -132 4q-2 0 -10.5 0.5t-10.5 0.5l2 21q3 27 8.5 63.5t8.5 65t3 60.5q0 110 -26 210zM14 429q22 -91 22 -187q0 -40 -3.5 -78t-9.5 -76.5t-7 -48.5q59 -4 131 -4q84 0 180 8q8 28 8 78
q0 45 -16 78q-48 -43 -109 -43q-40 0 -76 11q0 9 7 25q26 -11 40 -11q33 0 51 14q2 30 2 40q0 32 -14 51q-43 -11 -71 -11q-3 11 -3 28q65 16 102 16q40 0 72 -22q14 44 14 75q0 42 -25 71q-93 -7 -167 -7q-33 0 -69.5 5t-41.5 5q-17 0 -17 -17z" />
    <glyph glyph-name="Ecircumflex" unicode="&#xca;" horiz-adv-x="355" 
d="M29 572q0 -20 24 -42q18 -16 43 -31q64 42 96 94q35 -21 56 -48t25 -46q52 21 52 58q0 28 -42 66q-24 21 -52 39.5t-37 28.5q-18 2 -22 2q-13 0 -26 -8q-47 -44 -107 -93q-10 -9 -10 -20zM19 562q0 21 17 36q26 22 58.5 52t47.5 42q16 11 40 11q13 0 31 -3
q13 -13 42.5 -33.5t50.5 -38.5q49 -44 49 -81q0 -57 -87 -85q-7 54 -61 94q-40 -52 -100 -91q-34 19 -57 40q-31 28 -31 57zM-2 432q0 31 33 31q63 -15 119 -15q73 0 166 7q1 0 4.5 0.5t4.5 0.5q2 -3 3 -3.5t1.5 -1t2.5 -3.5q30 -34 30 -84q0 -33 -15 -81q-1 -2 -4 -13.5
t-4 -13.5q-3 1 -11.5 8.5t-11.5 8.5q-23 18 -60 18h-5.5t-3.5 -0.5t-2 -0.5h-1q18 -24 18 -63q0 -12 -2 -42q0 -1 -0.5 -4t-0.5 -4l-6 -6q32 9 61 35q2 2 9.5 9t9.5 9l12 -24q18 -39 18 -87q0 -55 -9 -84q-1 -2 -2.5 -6.5t-1.5 -6.5l-13 -1q-96 -8 -182 -8q-73 0 -132 4
q-2 0 -10.5 0.5t-10.5 0.5l2 21q3 27 8.5 63.5t8.5 65t3 60.5q0 110 -26 210zM14 429q22 -91 22 -187q0 -40 -3.5 -78t-9.5 -76.5t-7 -48.5q59 -4 131 -4q84 0 180 8q8 28 8 78q0 45 -16 78q-48 -43 -109 -43q-40 0 -76 11q0 9 7 25q26 -11 40 -11q33 0 51 14q2 30 2 40
q0 32 -14 51q-43 -11 -71 -11q-3 11 -3 28q65 16 102 16q40 0 72 -22q14 44 14 75q0 42 -25 71q-93 -7 -167 -7q-33 0 -69.5 5t-41.5 5q-17 0 -17 -17z" />
    <glyph glyph-name="Edieresis" unicode="&#xcb;" horiz-adv-x="355" 
d="M31 555q0 -18 11.5 -31t26.5 -13q32 0 53 17.5t21 46.5q0 36 -48 36q-27 0 -45.5 -15.5t-18.5 -40.5zM203 555q0 -18 11.5 -31t26.5 -13q32 0 53 17.5t21 46.5q0 36 -48 36q-27 0 -45.5 -15.5t-18.5 -40.5zM19 547q0 34 25 55t59 21q68 0 68 -56q0 -37 -27 -60.5
t-67 -23.5q-25 0 -41.5 19.5t-16.5 44.5zM191 547q0 34 25 55t59 21q68 0 68 -56q0 -37 -27 -60.5t-67 -23.5q-25 0 -41.5 19.5t-16.5 44.5zM-2 432q0 31 33 31q63 -15 119 -15q73 0 166 7q1 0 4.5 0.5t4.5 0.5q2 -3 3 -3.5t1.5 -1t2.5 -3.5q30 -34 30 -84q0 -33 -15 -81
q-1 -2 -4 -13.5t-4 -13.5q-3 1 -11.5 8.5t-11.5 8.5q-23 18 -60 18h-5.5t-3.5 -0.5t-2 -0.5h-1q18 -24 18 -63q0 -12 -2 -42q0 -1 -0.5 -4t-0.5 -4l-6 -6q32 9 61 35q2 2 9.5 9t9.5 9l12 -24q18 -39 18 -87q0 -55 -9 -84q-1 -2 -2.5 -6.5t-1.5 -6.5l-13 -1q-96 -8 -182 -8
q-73 0 -132 4q-2 0 -10.5 0.5t-10.5 0.5l2 21q3 27 8.5 63.5t8.5 65t3 60.5q0 110 -26 210zM14 429q22 -91 22 -187q0 -40 -3.5 -78t-9.5 -76.5t-7 -48.5q59 -4 131 -4q84 0 180 8q8 28 8 78q0 45 -16 78q-48 -43 -109 -43q-40 0 -76 11q0 9 7 25q26 -11 40 -11q33 0 51 14
q2 30 2 40q0 32 -14 51q-43 -11 -71 -11q-3 11 -3 28q65 16 102 16q40 0 72 -22q14 44 14 75q0 42 -25 71q-93 -7 -167 -7q-33 0 -69.5 5t-41.5 5q-17 0 -17 -17z" />
    <glyph glyph-name="Igrave" unicode="&#xcc;" horiz-adv-x="223" 
d="M8 385q34 -43 34 -162q0 -23 -6.5 -68t-12 -79.5t-5.5 -35.5q19 3 40.5 3t50.5 -1.5t47 -1.5q16 0 26 9.5t10 25.5q0 4 -10 46.5t-10 53.5q0 29 7 84t7 99q0 22 -13.5 35t-34.5 13q-37 0 -130 -21zM-12 378l1 13q68 17 81 19q40 7 81 7q27 -2 45 -20.5t18 -46.5
q0 -45 -7 -100.5t-7 -82.5q0 -6 10 -47.5t10 -52.5q0 -25 -16.5 -40t-39.5 -15q-19 0 -49 1.5t-50.5 1.5t-37.5 -3l-20 -3l-2 20q-1 6 12 82.5t13 103.5q0 48 -6.5 80.5t-13.5 47t-22 35.5zM-78 687q3 -2 55 -72.5t81 -86.5q24 -13 107 -13q-6 31 -10.5 50t-16.5 45
t-28 40.5t-44 25.5t-65 11h-79zM-112 698h123q42 0 74 -13t50 -30.5t31.5 -47t18 -48.5t10.5 -50q1 -3 2.5 -12t1.5 -12h-24q-91 0 -117 15q-19 10 -42.5 35.5t-41 49.5t-34.5 48.5t-20 27.5q-2 2 -9 11t-13 16t-10 10z" />
    <glyph glyph-name="Iacute" unicode="&#xcd;" horiz-adv-x="223" 
d="M8 385q34 -43 34 -162q0 -23 -6.5 -68t-12 -79.5t-5.5 -35.5q19 3 40.5 3t50.5 -1.5t47 -1.5q16 0 26 9.5t10 25.5q0 4 -10 46.5t-10 53.5q0 29 7 84t7 99q0 22 -13.5 35t-34.5 13q-37 0 -130 -21zM-12 378l1 13q68 17 81 19q40 7 81 7q27 -2 45 -20.5t18 -46.5
q0 -45 -7 -100.5t-7 -82.5q0 -6 10 -47.5t10 -52.5q0 -25 -16.5 -40t-39.5 -15q-19 0 -49 1.5t-50.5 1.5t-37.5 -3l-20 -3l-2 20q-1 6 12 82.5t13 103.5q0 48 -6.5 80.5t-13.5 47t-22 35.5zM9 513q82 0 106 13q29 16 81.5 86.5t55.5 72.5h-79q-37 0 -65 -11t-44 -25.5
t-28 -40.5t-16.5 -45t-10.5 -50zM-7 485q16 89 32 121q43 91 156 91h116q-2 -1 -32 -45t-68.5 -91t-63.5 -60q-30 -16 -116 -16h-24z" />
    <glyph glyph-name="Icircumflex" unicode="&#xce;" horiz-adv-x="223" 
d="M8 385q34 -43 34 -162q0 -23 -6.5 -68t-12 -79.5t-5.5 -35.5q19 3 40.5 3t50.5 -1.5t47 -1.5q16 0 26 9.5t10 25.5q0 4 -10 46.5t-10 53.5q0 29 7 84t7 99q0 22 -13.5 35t-34.5 13q-37 0 -130 -21zM-12 378l1 13q68 17 81 19q40 7 81 7q27 -2 45 -20.5t18 -46.5
q0 -45 -7 -100.5t-7 -82.5q0 -6 10 -47.5t10 -52.5q0 -25 -16.5 -40t-39.5 -15q-19 0 -49 1.5t-50.5 1.5t-37.5 -3l-20 -3l-2 20q-1 6 12 82.5t13 103.5q0 48 -6.5 80.5t-13.5 47t-22 35.5zM-48 577q0 -20 24 -42q18 -16 43 -31q64 42 96 94q35 -21 56 -48t25 -46
q52 21 52 58q0 28 -42 66q-24 21 -52 39.5t-37 28.5q-18 2 -22 2q-13 0 -26 -8q-47 -44 -107 -93q-10 -9 -10 -20zM-58 567q0 21 17 36q26 22 58.5 52t47.5 42q16 11 40 11q13 0 31 -3q13 -13 42.5 -33.5t50.5 -38.5q49 -44 49 -81q0 -57 -87 -85q-7 54 -61 94
q-40 -52 -100 -91q-34 19 -57 40q-31 28 -31 57z" />
    <glyph glyph-name="Idieresis" unicode="&#xcf;" horiz-adv-x="223" 
d="M8 385q34 -43 34 -162q0 -23 -6.5 -68t-12 -79.5t-5.5 -35.5q19 3 40.5 3t50.5 -1.5t47 -1.5q16 0 26 9.5t10 25.5q0 4 -10 46.5t-10 53.5q0 29 7 84t7 99q0 22 -13.5 35t-34.5 13q-37 0 -130 -21zM-12 378l1 13q68 17 81 19q40 7 81 7q27 -2 45 -20.5t18 -46.5
q0 -45 -7 -100.5t-7 -82.5q0 -6 10 -47.5t10 -52.5q0 -25 -16.5 -40t-39.5 -15q-19 0 -49 1.5t-50.5 1.5t-37.5 -3l-20 -3l-2 20q-1 6 12 82.5t13 103.5q0 48 -6.5 80.5t-13.5 47t-22 35.5zM-39 579q0 -18 11.5 -31t26.5 -13q32 0 53 17.5t21 46.5q0 36 -48 36
q-27 0 -45.5 -15.5t-18.5 -40.5zM133 579q0 -18 11.5 -31t26.5 -13q32 0 53 17.5t21 46.5q0 36 -48 36q-27 0 -45.5 -15.5t-18.5 -40.5zM-51 571q0 34 25 55t59 21q68 0 68 -56q0 -37 -27 -60.5t-67 -23.5q-25 0 -41.5 19.5t-16.5 44.5zM121 571q0 34 25 55t59 21
q68 0 68 -56q0 -37 -27 -60.5t-67 -23.5q-25 0 -41.5 19.5t-16.5 44.5z" />
    <glyph glyph-name="Eth" unicode="&#xd0;" horiz-adv-x="506" 
d="M0 170h34q1 -25 1 -72q0 -41 -6 -83q42 6 79 6q24 0 71.5 -8.5t89.5 -8.5q96 0 159.5 71t63.5 177q0 80 -56.5 137t-136.5 57q-51 0 -130.5 -20.5t-131.5 -27.5q-9 -2 -9 -13q0 -35 4 -159l-32 1v-57zM171 171h47l2 49l-48 2q2 14 11 35q33 0 56 -18t23 -44t-25 -44.5
t-62 -20.5q-2 13 -4 41zM-11 140l1 20v41t1 37l31 -1q0 14 -2 66.5t-2 71.5q0 28 26 32q52 7 131 28t134 21q88 0 150.5 -62.5t62.5 -151.5q0 -113 -69 -190.5t-174 -77.5q-44 0 -91.5 8.5t-69.5 8.5q-36 0 -76 -6l-26 -4l3 26q6 40 6 81q0 3 -0.5 20t-0.5 32h-35z" />
    <glyph glyph-name="Ntilde" unicode="&#xd1;" horiz-adv-x="526" 
d="M13 40q30 -20 68 -20q33 0 58 14q16 61 16 142q0 30 -5 58q61 -22 124.5 -112.5t72.5 -163.5q20 -6 65 -6q24 0 56 15q16 29 26.5 122.5t13.5 172.5l2 78q0 39 -5 109q-32 32 -97 32q-19 0 -51 -5q19 -52 19 -110q0 -59 -12 -154q-137 251 -316 251q-31 0 -31 -16
q0 -42 12 -102.5t12 -104.5q0 -82 -28 -200zM-3 24q31 112 31 208q0 41 -12 103t-12 105q0 36 51 36q169 0 303 -210q5 46 5 92q0 38 -4.5 60t-21.5 68q56 8 78 8q70 0 113 -43q6 -96 6 -118q0 -32 -2 -92t-13 -161t-30 -136q-38 -19 -71 -19q-47 0 -82 11q-9 79 -59.5 151
t-95.5 104q0 -3 0.5 -11t0.5 -11q0 -89 -19 -156q-37 -21 -75 -21q-21 0 -39 5t-26.5 10.5zM75 522q39 34 86 34q18 0 69.5 -23t76.5 -23q43 0 72.5 34.5t29.5 84.5q0 43 -11 71q-33 -37 -82 -37q-32 0 -81.5 21.5t-71.5 21.5q-29 0 -47 -13.5t-26.5 -41t-11.5 -56.5t-3 -73
zM63 464v45q0 52 3.5 84.5t14 63.5t33.5 45.5t59 14.5q27 0 76 -22t77 -22q38 0 66 31q3 4 11.5 13.5t10.5 11.5q1 -3 6.5 -16t6.5 -16q12 -32 12 -78q0 -57 -35 -98t-87 -41q-28 0 -80.5 23t-65.5 23q-20 0 -41.5 -9.5t-31.5 -19.5q-21 -21 -35 -33z" />
    <glyph glyph-name="Ograve" unicode="&#xd2;" horiz-adv-x="372" 
d="M-5 568q3 -2 55 -72.5t81 -86.5q24 -13 107 -13q-6 31 -10.5 50t-16.5 45t-28 40.5t-44 25.5t-65 11h-79zM-39 579h123q42 0 74 -13t50 -30.5t31.5 -47t18 -48.5t10.5 -50q1 -3 2.5 -12t1.5 -12h-24q-91 0 -117 15q-19 10 -42.5 35.5t-41 49.5t-34.5 48.5t-20 27.5
q-2 2 -9 11t-13 16t-10 10zM72 132q0 14 9.5 24t23.5 10t24 -6t10 -16q0 -13 -8.5 -22.5t-21.5 -9.5q-15 0 -26 6t-11 14zM4 190q0 -102 55 -130l-12 -6q15 -20 44 -32t58 -12q93 0 151 44.5t58 121.5q0 64 -62 110t-149 46q-52 0 -91.5 -40.5t-51.5 -101.5zM100 128
q8 -4 17 -4q10 0 10 10q-4 4 -14 4q-11 0 -13 -10zM-8 182v2v2q14 73 57.5 115.5t105.5 42.5q94 0 162.5 -50.5t68.5 -125.5q0 -84 -62.5 -135t-166.5 -51q-32 0 -65.5 13.5t-52.5 38.5q-15 20 -16 21q1 0 2.5 0.5t2.5 1.5q-36 41 -36 125z" />
    <glyph glyph-name="Oacute" unicode="&#xd3;" horiz-adv-x="372" 
d="M95 386q82 0 106 13q29 16 81.5 86.5t55.5 72.5h-79q-37 0 -65 -11t-44 -25.5t-28 -40.5t-16.5 -45t-10.5 -50zM79 358q16 89 32 121q43 91 156 91h116q-2 -1 -32 -45t-68.5 -91t-63.5 -60q-30 -16 -116 -16h-24zM72 132q0 14 9.5 24t23.5 10t24 -6t10 -16
q0 -13 -8.5 -22.5t-21.5 -9.5q-15 0 -26 6t-11 14zM4 190q0 -102 55 -130l-12 -6q15 -20 44 -32t58 -12q93 0 151 44.5t58 121.5q0 64 -62 110t-149 46q-52 0 -91.5 -40.5t-51.5 -101.5zM100 128q8 -4 17 -4q10 0 10 10q-4 4 -14 4q-11 0 -13 -10zM-8 182v2v2
q14 73 57.5 115.5t105.5 42.5q94 0 162.5 -50.5t68.5 -125.5q0 -84 -62.5 -135t-166.5 -51q-32 0 -65.5 13.5t-52.5 38.5q-15 20 -16 21q1 0 2.5 0.5t2.5 1.5q-36 41 -36 125z" />
    <glyph glyph-name="Ocircumflex" unicode="&#xd4;" horiz-adv-x="372" 
d="M38 462q0 -20 24 -42q18 -16 43 -31q64 42 96 94q35 -21 56 -48t25 -46q52 21 52 58q0 28 -42 66q-24 21 -52 39.5t-37 28.5q-18 2 -22 2q-13 0 -26 -8q-47 -44 -107 -93q-10 -9 -10 -20zM28 452q0 21 17 36q26 22 58.5 52t47.5 42q16 11 40 11q13 0 31 -3
q13 -13 42.5 -33.5t50.5 -38.5q49 -44 49 -81q0 -57 -87 -85q-7 54 -61 94q-40 -52 -100 -91q-34 19 -57 40q-31 28 -31 57zM72 132q0 14 9.5 24t23.5 10t24 -6t10 -16q0 -13 -8.5 -22.5t-21.5 -9.5q-15 0 -26 6t-11 14zM4 190q0 -102 55 -130l-12 -6q15 -20 44 -32t58 -12
q93 0 151 44.5t58 121.5q0 64 -62 110t-149 46q-52 0 -91.5 -40.5t-51.5 -101.5zM100 128q8 -4 17 -4q10 0 10 10q-4 4 -14 4q-11 0 -13 -10zM-8 182v2v2q14 73 57.5 115.5t105.5 42.5q94 0 162.5 -50.5t68.5 -125.5q0 -84 -62.5 -135t-166.5 -51q-32 0 -65.5 13.5
t-52.5 38.5q-15 20 -16 21q1 0 2.5 0.5t2.5 1.5q-36 41 -36 125z" />
    <glyph glyph-name="Otilde" unicode="&#xd5;" horiz-adv-x="372" 
d="M15 402q39 34 86 34q18 0 69.5 -23t76.5 -23q43 0 72.5 34.5t29.5 84.5q0 43 -11 71q-33 -37 -82 -37q-32 0 -81.5 21.5t-71.5 21.5q-29 0 -47 -13.5t-26.5 -41t-11.5 -56.5t-3 -73zM3 344v45q0 52 3.5 84.5t14 63.5t33.5 45.5t59 14.5q27 0 76 -22t77 -22q38 0 66 31
q3 4 11.5 13.5t10.5 11.5q1 -3 6.5 -16t6.5 -16q12 -32 12 -78q0 -57 -35 -98t-87 -41q-28 0 -80.5 23t-65.5 23q-20 0 -41.5 -9.5t-31.5 -19.5q-21 -21 -35 -33zM72 132q0 14 9.5 24t23.5 10t24 -6t10 -16q0 -13 -8.5 -22.5t-21.5 -9.5q-15 0 -26 6t-11 14zM4 190
q0 -102 55 -130l-12 -6q15 -20 44 -32t58 -12q93 0 151 44.5t58 121.5q0 64 -62 110t-149 46q-52 0 -91.5 -40.5t-51.5 -101.5zM100 128q8 -4 17 -4q10 0 10 10q-4 4 -14 4q-11 0 -13 -10zM-8 182v2v2q14 73 57.5 115.5t105.5 42.5q94 0 162.5 -50.5t68.5 -125.5
q0 -84 -62.5 -135t-166.5 -51q-32 0 -65.5 13.5t-52.5 38.5q-15 20 -16 21q1 0 2.5 0.5t2.5 1.5q-36 41 -36 125z" />
    <glyph glyph-name="Odieresis" unicode="&#xd6;" horiz-adv-x="372" 
d="M38 447q0 -18 11.5 -31t26.5 -13q32 0 53 17.5t21 46.5q0 36 -48 36q-27 0 -45.5 -15.5t-18.5 -40.5zM210 447q0 -18 11.5 -31t26.5 -13q32 0 53 17.5t21 46.5q0 36 -48 36q-27 0 -45.5 -15.5t-18.5 -40.5zM26 439q0 34 25 55t59 21q68 0 68 -56q0 -37 -27 -60.5
t-67 -23.5q-25 0 -41.5 19.5t-16.5 44.5zM198 439q0 34 25 55t59 21q68 0 68 -56q0 -37 -27 -60.5t-67 -23.5q-25 0 -41.5 19.5t-16.5 44.5zM72 132q0 14 9.5 24t23.5 10t24 -6t10 -16q0 -13 -8.5 -22.5t-21.5 -9.5q-15 0 -26 6t-11 14zM4 190q0 -102 55 -130l-12 -6
q15 -20 44 -32t58 -12q93 0 151 44.5t58 121.5q0 64 -62 110t-149 46q-52 0 -91.5 -40.5t-51.5 -101.5zM100 128q8 -4 17 -4q10 0 10 10q-4 4 -14 4q-11 0 -13 -10zM-8 182v2v2q14 73 57.5 115.5t105.5 42.5q94 0 162.5 -50.5t68.5 -125.5q0 -84 -62.5 -135t-166.5 -51
q-32 0 -65.5 13.5t-52.5 38.5q-15 20 -16 21q1 0 2.5 0.5t2.5 1.5q-36 41 -36 125z" />
    <glyph glyph-name="Oslash" unicode="&#xd8;" horiz-adv-x="380" 
d="M72 132q0 14 9.5 24t23.5 10t24 -6t10 -16q0 -13 -8.5 -22.5t-21.5 -9.5q-15 0 -26 6t-11 14zM4 190q0 -102 54 -130l-23 -36q-30 -42 -30 -73q23 -31 67 -62q21 42 43 73l31 48h3q93 0 151 44.5t58 121.5q0 53 -45 95q52 78 52 101q-14 30 -40.5 49t-42.5 23
q-1 -37 -55 -112q-4 -6 -7 -10q-38 10 -73 10q-52 0 -91.5 -40.5t-51.5 -101.5zM102 126q8 -4 17 -4q10 0 10 10q-4 4 -14 4q-11 0 -13 -10zM-6 182q12 71 56 115.5t107 44.5q32 0 65 -7q48 67 50 103l1 22q7 -1 19.5 -4.5t32 -13t39 -29.5t31.5 -47v-4q0 -29 -46 -98
q39 -46 39 -98q0 -83 -60.5 -133.5t-160.5 -52.5q-4 -5 -25 -39q-27 -40 -52 -92l-19 14q-47 32 -76 72q0 47 32 93l12 19q-45 38 -45 135z" />
    <glyph glyph-name="Ugrave" unicode="&#xd9;" 
d="M-20 664q3 -2 55 -72.5t81 -86.5q24 -13 107 -13q-6 31 -10.5 50t-16.5 45t-28 40.5t-44 25.5t-65 11h-79zM-54 675h123q42 0 74 -13t50 -30.5t31.5 -47t18 -48.5t10.5 -50q1 -3 2.5 -12t1.5 -12h-24q-91 0 -117 15q-19 10 -42.5 35.5t-41 49.5t-34.5 48.5t-20 27.5
q-2 2 -9 11t-13 16t-10 10zM12 404q2 -11 12 -39.5t10 -42.5q0 -11 -5.5 -60.5t-5.5 -83.5q0 -49 38 -82.5t102 -33.5q73 0 117 76.5t44 199.5q0 44 -12 76t-28 32q-26 0 -32 -22q2 -9 14 -34t12 -40q0 -32 -15 -54.5t-37 -22.5q-18 0 -31 40t-13 97q0 11 -27.5 18.5
t-66.5 7.5q-60 0 -76 -32zM-3 404l4 6q26 38 95 38q44 0 79 -11t35 -35q0 -34 5 -61.5t10.5 -39.5t9.5 -16q11 2 21 18t10 39q0 11 -11 33.5t-14 34.5q0 1 -0.5 2l-1.5 3q2 4 2 6q4 17 19 27t32 10q28 0 44 -37t16 -91q0 -134 -50 -215t-131 -81q-71 0 -115.5 39t-44.5 97
q0 36 5.5 85.5t5.5 57.5q0 10 -10 40.5t-12 39.5z" />
    <glyph glyph-name="Uacute" unicode="&#xda;" 
d="M84 490q82 0 106 13q29 16 81.5 86.5t55.5 72.5h-79q-37 0 -65 -11t-44 -25.5t-28 -40.5t-16.5 -45t-10.5 -50zM68 462q16 89 32 121q43 91 156 91h116q-2 -1 -32 -45t-68.5 -91t-63.5 -60q-30 -16 -116 -16h-24zM12 404q2 -11 12 -39.5t10 -42.5q0 -11 -5.5 -60.5
t-5.5 -83.5q0 -49 38 -82.5t102 -33.5q73 0 117 76.5t44 199.5q0 44 -12 76t-28 32q-26 0 -32 -22q2 -9 14 -34t12 -40q0 -32 -15 -54.5t-37 -22.5q-18 0 -31 40t-13 97q0 11 -27.5 18.5t-66.5 7.5q-60 0 -76 -32zM-3 404l4 6q26 38 95 38q44 0 79 -11t35 -35q0 -34 5 -61.5
t10.5 -39.5t9.5 -16q11 2 21 18t10 39q0 11 -11 33.5t-14 34.5q0 1 -0.5 2l-1.5 3q2 4 2 6q4 17 19 27t32 10q28 0 44 -37t16 -91q0 -134 -50 -215t-131 -81q-71 0 -115.5 39t-44.5 97q0 36 5.5 85.5t5.5 57.5q0 10 -10 40.5t-12 39.5z" />
    <glyph glyph-name="Ucircumflex" unicode="&#xdb;" 
d="M23 558q0 -20 24 -42q18 -16 43 -31q64 42 96 94q35 -21 56 -48t25 -46q52 21 52 58q0 28 -42 66q-24 21 -52 39.5t-37 28.5q-18 2 -22 2q-13 0 -26 -8q-47 -44 -107 -93q-10 -9 -10 -20zM13 548q0 21 17 36q26 22 58.5 52t47.5 42q16 11 40 11q13 0 31 -3
q13 -13 42.5 -33.5t50.5 -38.5q49 -44 49 -81q0 -57 -87 -85q-7 54 -61 94q-40 -52 -100 -91q-34 19 -57 40q-31 28 -31 57zM12 404q2 -11 12 -39.5t10 -42.5q0 -11 -5.5 -60.5t-5.5 -83.5q0 -49 38 -82.5t102 -33.5q73 0 117 76.5t44 199.5q0 44 -12 76t-28 32
q-26 0 -32 -22q2 -9 14 -34t12 -40q0 -32 -15 -54.5t-37 -22.5q-18 0 -31 40t-13 97q0 11 -27.5 18.5t-66.5 7.5q-60 0 -76 -32zM-3 404l4 6q26 38 95 38q44 0 79 -11t35 -35q0 -34 5 -61.5t10.5 -39.5t9.5 -16q11 2 21 18t10 39q0 11 -11 33.5t-14 34.5q0 1 -0.5 2l-1.5 3
q2 4 2 6q4 17 19 27t32 10q28 0 44 -37t16 -91q0 -134 -50 -215t-131 -81q-71 0 -115.5 39t-44.5 97q0 36 5.5 85.5t5.5 57.5q0 10 -10 40.5t-12 39.5z" />
    <glyph glyph-name="Udieresis" unicode="&#xdc;" 
d="M23 523q0 -18 11.5 -31t26.5 -13q32 0 53 17.5t21 46.5q0 36 -48 36q-27 0 -45.5 -15.5t-18.5 -40.5zM195 523q0 -18 11.5 -31t26.5 -13q32 0 53 17.5t21 46.5q0 36 -48 36q-27 0 -45.5 -15.5t-18.5 -40.5zM11 515q0 34 25 55t59 21q68 0 68 -56q0 -37 -27 -60.5
t-67 -23.5q-25 0 -41.5 19.5t-16.5 44.5zM183 515q0 34 25 55t59 21q68 0 68 -56q0 -37 -27 -60.5t-67 -23.5q-25 0 -41.5 19.5t-16.5 44.5zM12 394q2 -11 12 -39.5t10 -42.5q0 -11 -5.5 -60.5t-5.5 -83.5q0 -49 38 -82.5t102 -33.5q73 0 117 76.5t44 199.5q0 44 -12 76
t-28 32q-26 0 -32 -22q2 -9 14 -34t12 -40q0 -32 -15 -54.5t-37 -22.5q-18 0 -31 40t-13 97q0 11 -27.5 18.5t-66.5 7.5q-60 0 -76 -32zM-3 394l4 6q26 38 95 38q44 0 79 -11t35 -35q0 -34 5 -61.5t10.5 -39.5t9.5 -16q11 2 21 18t10 39q0 11 -11 33.5t-14 34.5q0 1 -0.5 2
l-1.5 3q2 4 2 6q4 17 19 27t32 10q28 0 44 -37t16 -91q0 -134 -50 -215t-131 -81q-71 0 -115.5 39t-44.5 97q0 36 5.5 85.5t5.5 57.5q0 10 -10 40.5t-12 39.5z" />
    <glyph glyph-name="Yacute" unicode="&#xdd;" horiz-adv-x="425" 
d="M153 524q82 0 106 13q29 16 81.5 86.5t55.5 72.5h-79q-37 0 -65 -11t-44 -25.5t-28 -40.5t-16.5 -45t-10.5 -50zM137 496q16 89 32 121q43 91 156 91h116q-2 -1 -32 -45t-68.5 -91t-63.5 -60q-30 -16 -116 -16h-24zM2 400q0 -22 13 -36q36 -40 52 -59t41 -63t25 -76
q0 -112 -3 -160q41 -8 106 -8q25 0 41.5 22t16.5 53q0 30 -3 76.5t-3 76.5q0 16 18 38q6 7 31 35.5t34 40t24.5 33t21.5 38t6 31.5q0 13 -11.5 22.5t-27.5 9.5q-40 0 -68 -17q19 -21 19 -54q0 -52 -56 -121q-17 40 -29 64.5t-33.5 60t-46 53.5t-50.5 18q-49 0 -83.5 -23
t-34.5 -55zM-10 392q0 49 40 73.5t98 24.5q30 0 57 -18.5t49 -52t33 -54.5t25 -52q31 43 31 82q0 24 -14 41q-10 10 -16 18q2 1 10.5 5.5t10.5 6.5q34 20 78 20q23 0 41 -14.5t18 -37.5q0 -11 -3.5 -23.5t-7 -22.5t-13 -24.5t-14.5 -22t-18.5 -23.5t-18 -21.5t-19.5 -22.5
t-17 -19q-3 -3 -6.5 -7t-4.5 -5q-13 -17 -13 -25q0 -28 3 -75t3 -78q0 -38 -22 -66.5t-56 -28.5q-67 0 -110 8q-12 4 -19 4l1 17q3 47 3 159q0 63 -111 185q-18 21 -18 49z" />
    <glyph glyph-name="germandbls" unicode="&#xdf;" horiz-adv-x="472" 
d="M6 -5q46 8 122 8q16 0 27 9.5t11 25.5q0 4 -2 48.5t-2 55.5q0 28 2.5 99t2.5 114q0 39 28 66t69 27q36 0 74 -20l-13 -32q-40 0 -68 -19.5t-28 -48.5q0 -52 30 -97t30 -78q0 -19 -12 -32.5t-29 -13.5q-18 0 -39 13l-6 -114q12 -2 40 -9t51 -12t36 -5q58 0 96.5 35
t38.5 92q0 39 -18 67t-40 39t-40 22.5t-18 21.5q0 6 7 18t19 17q36 91 100 294q-30 -29 -75 -29q-31 0 -76.5 14.5t-72.5 14.5q-88 0 -153.5 -58.5t-65.5 -142.5v-195q0 -23 -6.5 -70.5t-13.5 -85.5zM-4 -15q0 2 6.5 40.5t13 85.5t6.5 69v195q0 105 67 163t167 58
q30 0 78 -14.5t76 -14.5q37 0 61 24l20 25l26 -7l-13 -39q-63 -202 -100 -295l-3 -8l-8 -3q-8 -4 -13 -16q4 -3 26.5 -16t40 -26t33 -42t15.5 -67q0 -65 -44.5 -106t-110.5 -41q-15 0 -36 4.5t-50 11.5t-45 10l-17 4l2 33q-5 -21 -21.5 -30.5t-34.5 -9.5q-76 0 -119 -8
q-3 -1 -11.5 -2t-11.5 -2v24zM192 150l38 -22q19 -11 28 -11q8 0 14.5 7.5t6.5 18.5q0 21 -9.5 39.5t-20.5 32t-20.5 41t-9.5 62.5q0 40 29.5 61.5t72.5 25.5l1 3q-25 10 -48 10q-32 0 -54.5 -21.5t-22.5 -51.5q0 -43 -2.5 -110.5t-2.5 -84.5z" />
    <glyph glyph-name="agrave" unicode="&#xe0;" horiz-adv-x="606" 
d="M106 698q3 -2 55 -72.5t81 -86.5q24 -13 107 -13q-6 31 -10.5 50t-16.5 45t-28 40.5t-44 25.5t-65 11h-79zM72 709h123q42 0 74 -13t50 -30.5t31.5 -47t18 -48.5t10.5 -50q1 -3 2.5 -12t1.5 -12h-24q-91 0 -117 15q-19 10 -42.5 35.5t-41 49.5t-34.5 48.5t-20 27.5
q-2 2 -9 11t-13 16t-10 10zM190 225q0 19 9.5 34t25.5 18l66 -101l-4 -2q-13 12 -20 14q-13 3 -31.5 5.5t-26 4.5t-13.5 8t-6 19zM2 37q0 -19 22 -33t54 -14q34 0 58 12t24 28q0 74 7 105q96 -3 126.5 -15.5t54.5 -67.5q14 -36 15 -50q25 -2 76 -8.5t87 -6.5q23 0 41.5 17.5
t18.5 32.5q0 35 -22.5 81t-48 80.5t-72.5 94t-69 89.5q-29 41 -33 78q-59 8 -91 0.5t-72 -38.5q0 -148 -78 -285q-11 -19 -54.5 -49.5t-43.5 -50.5zM218 217v-4l1 -2q5 -3 32 -6l-8 12l-11 16.5t-6 9.5q-8 -11 -8 -26zM-10 29q0 25 19.5 43.5t45 36t34.5 32.5q76 133 76 273
v13q35 27 62 38.5t70 11.5q14 0 70 -8q0 -1 1 -7t1 -8q4 -34 29 -68q23 -32 72 -94t74 -96t47.5 -81.5t22.5 -85.5q0 -23 -24.5 -46.5t-55.5 -23.5q-38 0 -89.5 7t-74.5 8l-17 1q0 1 -1 8t-1 9q-2 16 -13 45q-20 46 -43.5 56t-103.5 13q-3 -16 -3 -84q0 -26 -30 -43t-72 -17
q-39 0 -67.5 19t-28.5 48z" />
    <glyph glyph-name="aacute" unicode="&#xe1;" horiz-adv-x="606" 
d="M210 524q82 0 106 13q29 16 81.5 86.5t55.5 72.5h-79q-37 0 -65 -11t-44 -25.5t-28 -40.5t-16.5 -45t-10.5 -50zM194 496q16 89 32 121q43 91 156 91h116q-2 -1 -32 -45t-68.5 -91t-63.5 -60q-30 -16 -116 -16h-24zM190 225q0 19 9.5 34t25.5 18l66 -101l-4 -2
q-13 12 -20 14q-13 3 -31.5 5.5t-26 4.5t-13.5 8t-6 19zM2 37q0 -19 22 -33t54 -14q34 0 58 12t24 28q0 74 7 105q96 -3 126.5 -15.5t54.5 -67.5q14 -36 15 -50q25 -2 76 -8.5t87 -6.5q23 0 41.5 17.5t18.5 32.5q0 35 -22.5 81t-48 80.5t-72.5 94t-69 89.5q-29 41 -33 78
q-59 8 -91 0.5t-72 -38.5q0 -148 -78 -285q-11 -19 -54.5 -49.5t-43.5 -50.5zM218 217v-4l1 -2q5 -3 32 -6l-8 12l-11 16.5t-6 9.5q-8 -11 -8 -26zM-10 29q0 25 19.5 43.5t45 36t34.5 32.5q76 133 76 273v13q35 27 62 38.5t70 11.5q14 0 70 -8q0 -1 1 -7t1 -8q4 -34 29 -68
q23 -32 72 -94t74 -96t47.5 -81.5t22.5 -85.5q0 -23 -24.5 -46.5t-55.5 -23.5q-38 0 -89.5 7t-74.5 8l-17 1q0 1 -1 8t-1 9q-2 16 -13 45q-20 46 -43.5 56t-103.5 13q-3 -16 -3 -84q0 -26 -30 -43t-72 -17q-39 0 -67.5 19t-28.5 48z" />
    <glyph glyph-name="acircumflex" unicode="&#xe2;" horiz-adv-x="606" 
d="M149 592q0 -20 24 -42q18 -16 43 -31q64 42 96 94q35 -21 56 -48t25 -46q52 21 52 58q0 28 -42 66q-24 21 -52 39.5t-37 28.5q-18 2 -22 2q-13 0 -26 -8q-47 -44 -107 -93q-10 -9 -10 -20zM139 582q0 21 17 36q26 22 58.5 52t47.5 42q16 11 40 11q13 0 31 -3
q13 -13 42.5 -33.5t50.5 -38.5q49 -44 49 -81q0 -57 -87 -85q-7 54 -61 94q-40 -52 -100 -91q-34 19 -57 40q-31 28 -31 57zM190 225q0 19 9.5 34t25.5 18l66 -101l-4 -2q-13 12 -20 14q-13 3 -31.5 5.5t-26 4.5t-13.5 8t-6 19zM2 37q0 -19 22 -33t54 -14q34 0 58 12t24 28
q0 74 7 105q96 -3 126.5 -15.5t54.5 -67.5q14 -36 15 -50q25 -2 76 -8.5t87 -6.5q23 0 41.5 17.5t18.5 32.5q0 35 -22.5 81t-48 80.5t-72.5 94t-69 89.5q-29 41 -33 78q-59 8 -91 0.5t-72 -38.5q0 -148 -78 -285q-11 -19 -54.5 -49.5t-43.5 -50.5zM218 217v-4l1 -2
q5 -3 32 -6l-8 12l-11 16.5t-6 9.5q-8 -11 -8 -26zM-10 29q0 25 19.5 43.5t45 36t34.5 32.5q76 133 76 273v13q35 27 62 38.5t70 11.5q14 0 70 -8q0 -1 1 -7t1 -8q4 -34 29 -68q23 -32 72 -94t74 -96t47.5 -81.5t22.5 -85.5q0 -23 -24.5 -46.5t-55.5 -23.5q-38 0 -89.5 7
t-74.5 8l-17 1q0 1 -1 8t-1 9q-2 16 -13 45q-20 46 -43.5 56t-103.5 13q-3 -16 -3 -84q0 -26 -30 -43t-72 -17q-39 0 -67.5 19t-28.5 48z" />
    <glyph glyph-name="atilde" unicode="&#xe3;" horiz-adv-x="606" 
d="M126 532q39 34 86 34q18 0 69.5 -23t76.5 -23q43 0 72.5 34.5t29.5 84.5q0 43 -11 71q-33 -37 -82 -37q-32 0 -81.5 21.5t-71.5 21.5q-29 0 -47 -13.5t-26.5 -41t-11.5 -56.5t-3 -73zM114 474v45q0 52 3.5 84.5t14 63.5t33.5 45.5t59 14.5q27 0 76 -22t77 -22q38 0 66 31
q3 4 11.5 13.5t10.5 11.5q1 -3 6.5 -16t6.5 -16q12 -32 12 -78q0 -57 -35 -98t-87 -41q-28 0 -80.5 23t-65.5 23q-20 0 -41.5 -9.5t-31.5 -19.5q-21 -21 -35 -33zM190 225q0 19 9.5 34t25.5 18l66 -101l-4 -2q-13 12 -20 14q-13 3 -31.5 5.5t-26 4.5t-13.5 8t-6 19zM2 37
q0 -19 22 -33t54 -14q34 0 58 12t24 28q0 74 7 105q96 -3 126.5 -15.5t54.5 -67.5q14 -36 15 -50q25 -2 76 -8.5t87 -6.5q23 0 41.5 17.5t18.5 32.5q0 35 -22.5 81t-48 80.5t-72.5 94t-69 89.5q-29 41 -33 78q-59 8 -91 0.5t-72 -38.5q0 -148 -78 -285q-11 -19 -54.5 -49.5
t-43.5 -50.5zM218 217v-4l1 -2q5 -3 32 -6l-8 12l-11 16.5t-6 9.5q-8 -11 -8 -26zM-10 29q0 25 19.5 43.5t45 36t34.5 32.5q76 133 76 273v13q35 27 62 38.5t70 11.5q14 0 70 -8q0 -1 1 -7t1 -8q4 -34 29 -68q23 -32 72 -94t74 -96t47.5 -81.5t22.5 -85.5q0 -23 -24.5 -46.5
t-55.5 -23.5q-38 0 -89.5 7t-74.5 8l-17 1q0 1 -1 8t-1 9q-2 16 -13 45q-20 46 -43.5 56t-103.5 13q-3 -16 -3 -84q0 -26 -30 -43t-72 -17q-39 0 -67.5 19t-28.5 48z" />
    <glyph glyph-name="adieresis" unicode="&#xe4;" horiz-adv-x="606" 
d="M149 577q0 -18 11.5 -31t26.5 -13q32 0 53 17.5t21 46.5q0 36 -48 36q-27 0 -45.5 -15.5t-18.5 -40.5zM321 577q0 -18 11.5 -31t26.5 -13q32 0 53 17.5t21 46.5q0 36 -48 36q-27 0 -45.5 -15.5t-18.5 -40.5zM137 569q0 34 25 55t59 21q68 0 68 -56q0 -37 -27 -60.5
t-67 -23.5q-25 0 -41.5 19.5t-16.5 44.5zM309 569q0 34 25 55t59 21q68 0 68 -56q0 -37 -27 -60.5t-67 -23.5q-25 0 -41.5 19.5t-16.5 44.5zM190 225q0 19 9.5 34t25.5 18l66 -101l-4 -2q-13 12 -20 14q-13 3 -31.5 5.5t-26 4.5t-13.5 8t-6 19zM2 37q0 -19 22 -33t54 -14
q34 0 58 12t24 28q0 74 7 105q96 -3 126.5 -15.5t54.5 -67.5q14 -36 15 -50q25 -2 76 -8.5t87 -6.5q23 0 41.5 17.5t18.5 32.5q0 35 -22.5 81t-48 80.5t-72.5 94t-69 89.5q-29 41 -33 78q-59 8 -91 0.5t-72 -38.5q0 -148 -78 -285q-11 -19 -54.5 -49.5t-43.5 -50.5zM218 217
v-4l1 -2q5 -3 32 -6l-8 12l-11 16.5t-6 9.5q-8 -11 -8 -26zM-10 29q0 25 19.5 43.5t45 36t34.5 32.5q76 133 76 273v13q35 27 62 38.5t70 11.5q14 0 70 -8q0 -1 1 -7t1 -8q4 -34 29 -68q23 -32 72 -94t74 -96t47.5 -81.5t22.5 -85.5q0 -23 -24.5 -46.5t-55.5 -23.5
q-38 0 -89.5 7t-74.5 8l-17 1q0 1 -1 8t-1 9q-2 16 -13 45q-20 46 -43.5 56t-103.5 13q-3 -16 -3 -84q0 -26 -30 -43t-72 -17q-39 0 -67.5 19t-28.5 48z" />
    <glyph glyph-name="aring" unicode="&#xe5;" horiz-adv-x="606" 
d="M190 225q0 19 9.5 34t25.5 18l66 -101l-4 -2q-13 12 -20 14q-13 3 -31.5 5.5t-26 4.5t-13.5 8t-6 19zM2 37q0 -19 22 -33t54 -14q34 0 58 12t24 28q0 74 7 105q96 -3 126.5 -15.5t54.5 -67.5q14 -36 15 -50q25 -2 76 -8.5t87 -6.5q23 0 41.5 17.5t18.5 32.5
q0 35 -22.5 81t-48 80.5t-72.5 94t-69 89.5q-21 28 -28 58q-5 22 -5 35q7 3 14 8q47 31 47 90q0 45 -43.5 77t-104.5 32q-36 0 -64 -27.5t-36 -70.5q0 -48 23 -83.5t64 -42.5q-30 -9 -63 -36q0 -148 -78 -285q-11 -19 -54.5 -49.5t-43.5 -50.5zM218 217v-4l1 -2q5 -3 32 -6
l-8 12l-11 16.5t-6 9.5q-8 -11 -8 -26zM-10 29q0 25 19.5 43.5t45 36t34.5 32.5q76 133 76 273v13q11 9 33 23q-54 41 -54 124v8q23 110 120 110q68 0 118 -36.5t50 -92.5q0 -73 -63 -111q4 -31 29 -66q23 -32 72 -94t74 -96t47.5 -81.5t22.5 -85.5q0 -23 -24.5 -46.5
t-55.5 -23.5q-38 0 -89.5 7t-74.5 8l-17 1q0 1 -1 8t-1 9q-2 16 -13 45q-20 46 -43.5 56t-103.5 13q-3 -16 -3 -84q0 -26 -30 -43t-72 -17q-39 0 -67.5 19t-28.5 48zM211 536q0 14 9.5 24t23.5 10t24 -6.5t10 -16.5q0 -13 -8.5 -22t-21.5 -9q-15 0 -26 6t-11 14zM237 533
q6 -3 17 -3q10 0 10 10q-4 4 -14 4t-13 -11z" />
    <glyph glyph-name="ae" unicode="&#xe6;" horiz-adv-x="655" 
d="M2 37q0 -19 22 -33t54 -14q34 0 58 12t24 28q0 77 7 105q96 -3 126.5 -15.5t54.5 -67.5q5 -21 8 -34q40 13 91 13q84 0 180 8q8 28 8 82q0 45 -16 78q-48 -43 -109 -43q-40 0 -76 11q0 9 7 25q26 -11 40 -11q33 0 51 14q2 30 2 40q0 32 -14 51q-60 -13 -88 -13
q-3 11 -3 28q74 18 119 18q40 0 72 -22q14 44 14 75q0 44 -25 73q-93 -7 -167 -7q-48 0 -99 9.5t-54 9.5q-38 0 -60.5 -6.5t-50.5 -28.5q0 -108 -39 -205q-27 -66 -49 -92q-20 -23 -43.5 -39t-34 -25t-10.5 -24zM190 225q0 20 11.5 34.5t32.5 17.5l61 -101l-8 -2
q-13 12 -20 14q-13 3 -31.5 5.5t-26 4.5t-13.5 8t-6 19zM-8 27q0 25 11 37.5t36.5 28.5t43.5 36q19 22 45 86q39 97 39 197v13q3 3 9 6q29 23 54 29.5t69 6.5q6 0 55 -9.5t98 -9.5q73 0 166 7q1 0 5 1h4l4 -4l3 -4q30 -34 30 -86q0 -44 -23 -108q-13 12 -21 18t-24.5 11.5
t-37.5 5.5q-3 0 -7 -0.5t-5 -0.5q18 -24 18 -63q0 -12 -2 -42v-4t-1 -4l-6 -6q27 7 59 37l19 18q1 -2 7 -13t7 -13q18 -39 18 -87q0 -57 -9 -88q-1 -4 -4 -13h-8l-5 -1q-96 -8 -182 -8q-48 0 -85 -12q-2 -1 -10.5 -4t-10.5 -3q0 2 -5 22q-1 4 -3.5 16t-3.5 16q-20 45 -44 55
t-102 13q-3 -21 -3 -84q0 -26 -30 -43t-72 -17q-39 0 -67.5 19t-28.5 48zM220 215v-4l1 -2q4 -2 39 -7l-25 41q-15 -9 -15 -28z" />
    <glyph glyph-name="ccedilla" unicode="&#xe7;" horiz-adv-x="419" 
d="M6 245q0 -76 43 -126t111 -63l-24 -55q30 -16 30 -42q0 -6 -7 -11.5t-15 -5.5q-26 0 -38 14q-17 -35 -17 -91q53 -25 113 -25q40 0 67.5 23.5t27.5 56.5q0 70 -97 102l15 31q97 5 171 73q-9 19 -20 28q-27 -26 -68.5 -42t-80.5 -16t-63 18.5t-24 57.5q0 33 24.5 55.5
t59.5 22.5q56 0 110 -40q14 70 31 130q7 25 24.5 65t22.5 52h-4q-7 -22 -30 -39t-44 -17q-31 0 -74 10t-74 10q-68 0 -119 -54.5t-51 -121.5zM-6 238q0 84 52 140t136 56q34 0 78 -10.5t72 -10.5q13 0 31 12.5t24 30.5q1 2 3 8l1 5h44q-38 -88 -53 -143q-19 -63 -30 -127
q-2 -5 -6 -31q-15 10 -25 18q-48 36 -99 36q-27 0 -45.5 -17t-18.5 -41q0 -56 67 -56q36 0 73.5 15t61.5 38q10 10 13 12l13 -11q10 -9 17 -18q5 -8 10 -19q1 -1 3 -5.5t2 -6.5l-10 -10q-74 -67 -169 -77l-2 -4q37 -13 63.5 -40.5t26.5 -71.5q0 -43 -34 -71.5t-81 -28.5
q-62 0 -136 34v12q0 73 31 128l9 -3l23 54q-65 20 -105 74t-40 129z" />
    <glyph glyph-name="egrave" unicode="&#xe8;" horiz-adv-x="355" 
d="M-14 678q3 -2 55 -72.5t81 -86.5q24 -13 107 -13q-6 31 -10.5 50t-16.5 45t-28 40.5t-44 25.5t-65 11h-79zM-48 689h123q42 0 74 -13t50 -30.5t31.5 -47t18 -48.5t10.5 -50q1 -3 2.5 -12t1.5 -12h-24q-91 0 -117 15q-19 10 -42.5 35.5t-41 49.5t-34.5 48.5t-20 27.5
q-2 2 -9 11t-13 16t-10 10zM-2 432q0 31 33 31q63 -15 119 -15q73 0 166 7q1 0 4.5 0.5t4.5 0.5q2 -3 3 -3.5t1.5 -1t2.5 -3.5q30 -34 30 -84q0 -33 -15 -81q-1 -2 -4 -13.5t-4 -13.5q-3 1 -11.5 8.5t-11.5 8.5q-23 18 -60 18h-5.5t-3.5 -0.5t-2 -0.5h-1q18 -24 18 -63
q0 -12 -2 -42q0 -1 -0.5 -4t-0.5 -4l-6 -6q32 9 61 35q2 2 9.5 9t9.5 9l12 -24q18 -39 18 -87q0 -55 -9 -84q-1 -2 -2.5 -6.5t-1.5 -6.5l-13 -1q-96 -8 -182 -8q-73 0 -132 4q-2 0 -10.5 0.5t-10.5 0.5l2 21q3 27 8.5 63.5t8.5 65t3 60.5q0 110 -26 210zM14 429
q22 -91 22 -187q0 -40 -3.5 -78t-9.5 -76.5t-7 -48.5q59 -4 131 -4q84 0 180 8q8 28 8 78q0 45 -16 78q-48 -43 -109 -43q-40 0 -76 11q0 9 7 25q26 -11 40 -11q33 0 51 14q2 30 2 40q0 32 -14 51q-43 -11 -71 -11q-3 11 -3 28q65 16 102 16q40 0 72 -22q14 44 14 75
q0 42 -25 71q-93 -7 -167 -7q-33 0 -69.5 5t-41.5 5q-17 0 -17 -17z" />
    <glyph glyph-name="eacute" unicode="&#xe9;" horiz-adv-x="355" 
d="M90 504q82 0 106 13q29 16 81.5 86.5t55.5 72.5h-79q-37 0 -65 -11t-44 -25.5t-28 -40.5t-16.5 -45t-10.5 -50zM74 476q16 89 32 121q43 91 156 91h116q-2 -1 -32 -45t-68.5 -91t-63.5 -60q-30 -16 -116 -16h-24zM-2 432q0 31 33 31q63 -15 119 -15q73 0 166 7
q1 0 4.5 0.5t4.5 0.5q2 -3 3 -3.5t1.5 -1t2.5 -3.5q30 -34 30 -84q0 -33 -15 -81q-1 -2 -4 -13.5t-4 -13.5q-3 1 -11.5 8.5t-11.5 8.5q-23 18 -60 18h-5.5t-3.5 -0.5t-2 -0.5h-1q18 -24 18 -63q0 -12 -2 -42q0 -1 -0.5 -4t-0.5 -4l-6 -6q32 9 61 35q2 2 9.5 9t9.5 9l12 -24
q18 -39 18 -87q0 -55 -9 -84q-1 -2 -2.5 -6.5t-1.5 -6.5l-13 -1q-96 -8 -182 -8q-73 0 -132 4q-2 0 -10.5 0.5t-10.5 0.5l2 21q3 27 8.5 63.5t8.5 65t3 60.5q0 110 -26 210zM14 429q22 -91 22 -187q0 -40 -3.5 -78t-9.5 -76.5t-7 -48.5q59 -4 131 -4q84 0 180 8q8 28 8 78
q0 45 -16 78q-48 -43 -109 -43q-40 0 -76 11q0 9 7 25q26 -11 40 -11q33 0 51 14q2 30 2 40q0 32 -14 51q-43 -11 -71 -11q-3 11 -3 28q65 16 102 16q40 0 72 -22q14 44 14 75q0 42 -25 71q-93 -7 -167 -7q-33 0 -69.5 5t-41.5 5q-17 0 -17 -17z" />
    <glyph glyph-name="ecircumflex" unicode="&#xea;" horiz-adv-x="355" 
d="M29 572q0 -20 24 -42q18 -16 43 -31q64 42 96 94q35 -21 56 -48t25 -46q52 21 52 58q0 28 -42 66q-24 21 -52 39.5t-37 28.5q-18 2 -22 2q-13 0 -26 -8q-47 -44 -107 -93q-10 -9 -10 -20zM19 562q0 21 17 36q26 22 58.5 52t47.5 42q16 11 40 11q13 0 31 -3
q13 -13 42.5 -33.5t50.5 -38.5q49 -44 49 -81q0 -57 -87 -85q-7 54 -61 94q-40 -52 -100 -91q-34 19 -57 40q-31 28 -31 57zM-2 432q0 31 33 31q63 -15 119 -15q73 0 166 7q1 0 4.5 0.5t4.5 0.5q2 -3 3 -3.5t1.5 -1t2.5 -3.5q30 -34 30 -84q0 -33 -15 -81q-1 -2 -4 -13.5
t-4 -13.5q-3 1 -11.5 8.5t-11.5 8.5q-23 18 -60 18h-5.5t-3.5 -0.5t-2 -0.5h-1q18 -24 18 -63q0 -12 -2 -42q0 -1 -0.5 -4t-0.5 -4l-6 -6q32 9 61 35q2 2 9.5 9t9.5 9l12 -24q18 -39 18 -87q0 -55 -9 -84q-1 -2 -2.5 -6.5t-1.5 -6.5l-13 -1q-96 -8 -182 -8q-73 0 -132 4
q-2 0 -10.5 0.5t-10.5 0.5l2 21q3 27 8.5 63.5t8.5 65t3 60.5q0 110 -26 210zM14 429q22 -91 22 -187q0 -40 -3.5 -78t-9.5 -76.5t-7 -48.5q59 -4 131 -4q84 0 180 8q8 28 8 78q0 45 -16 78q-48 -43 -109 -43q-40 0 -76 11q0 9 7 25q26 -11 40 -11q33 0 51 14q2 30 2 40
q0 32 -14 51q-43 -11 -71 -11q-3 11 -3 28q65 16 102 16q40 0 72 -22q14 44 14 75q0 42 -25 71q-93 -7 -167 -7q-33 0 -69.5 5t-41.5 5q-17 0 -17 -17z" />
    <glyph glyph-name="edieresis" unicode="&#xeb;" horiz-adv-x="355" 
d="M31 555q0 -18 11.5 -31t26.5 -13q32 0 53 17.5t21 46.5q0 36 -48 36q-27 0 -45.5 -15.5t-18.5 -40.5zM203 555q0 -18 11.5 -31t26.5 -13q32 0 53 17.5t21 46.5q0 36 -48 36q-27 0 -45.5 -15.5t-18.5 -40.5zM19 547q0 34 25 55t59 21q68 0 68 -56q0 -37 -27 -60.5
t-67 -23.5q-25 0 -41.5 19.5t-16.5 44.5zM191 547q0 34 25 55t59 21q68 0 68 -56q0 -37 -27 -60.5t-67 -23.5q-25 0 -41.5 19.5t-16.5 44.5zM-2 432q0 31 33 31q63 -15 119 -15q73 0 166 7q1 0 4.5 0.5t4.5 0.5q2 -3 3 -3.5t1.5 -1t2.5 -3.5q30 -34 30 -84q0 -33 -15 -81
q-1 -2 -4 -13.5t-4 -13.5q-3 1 -11.5 8.5t-11.5 8.5q-23 18 -60 18h-5.5t-3.5 -0.5t-2 -0.5h-1q18 -24 18 -63q0 -12 -2 -42q0 -1 -0.5 -4t-0.5 -4l-6 -6q32 9 61 35q2 2 9.5 9t9.5 9l12 -24q18 -39 18 -87q0 -55 -9 -84q-1 -2 -2.5 -6.5t-1.5 -6.5l-13 -1q-96 -8 -182 -8
q-73 0 -132 4q-2 0 -10.5 0.5t-10.5 0.5l2 21q3 27 8.5 63.5t8.5 65t3 60.5q0 110 -26 210zM14 429q22 -91 22 -187q0 -40 -3.5 -78t-9.5 -76.5t-7 -48.5q59 -4 131 -4q84 0 180 8q8 28 8 78q0 45 -16 78q-48 -43 -109 -43q-40 0 -76 11q0 9 7 25q26 -11 40 -11q33 0 51 14
q2 30 2 40q0 32 -14 51q-43 -11 -71 -11q-3 11 -3 28q65 16 102 16q40 0 72 -22q14 44 14 75q0 42 -25 71q-93 -7 -167 -7q-33 0 -69.5 5t-41.5 5q-17 0 -17 -17z" />
    <glyph glyph-name="igrave" unicode="&#xec;" horiz-adv-x="223" 
d="M8 385q34 -43 34 -162q0 -23 -6.5 -68t-12 -79.5t-5.5 -35.5q19 3 40.5 3t50.5 -1.5t47 -1.5q16 0 26 9.5t10 25.5q0 4 -10 46.5t-10 53.5q0 29 7 84t7 99q0 22 -13.5 35t-34.5 13q-37 0 -130 -21zM-12 378l1 13q68 17 81 19q40 7 81 7q27 -2 45 -20.5t18 -46.5
q0 -45 -7 -100.5t-7 -82.5q0 -6 10 -47.5t10 -52.5q0 -25 -16.5 -40t-39.5 -15q-19 0 -49 1.5t-50.5 1.5t-37.5 -3l-20 -3l-2 20q-1 6 12 82.5t13 103.5q0 48 -6.5 80.5t-13.5 47t-22 35.5zM-78 687q3 -2 55 -72.5t81 -86.5q24 -13 107 -13q-6 31 -10.5 50t-16.5 45
t-28 40.5t-44 25.5t-65 11h-79zM-112 698h123q42 0 74 -13t50 -30.5t31.5 -47t18 -48.5t10.5 -50q1 -3 2.5 -12t1.5 -12h-24q-91 0 -117 15q-19 10 -42.5 35.5t-41 49.5t-34.5 48.5t-20 27.5q-2 2 -9 11t-13 16t-10 10z" />
    <glyph glyph-name="iacute" unicode="&#xed;" horiz-adv-x="223" 
d="M8 385q34 -43 34 -162q0 -23 -6.5 -68t-12 -79.5t-5.5 -35.5q19 3 40.5 3t50.5 -1.5t47 -1.5q16 0 26 9.5t10 25.5q0 4 -10 46.5t-10 53.5q0 29 7 84t7 99q0 22 -13.5 35t-34.5 13q-37 0 -130 -21zM-12 378l1 13q68 17 81 19q40 7 81 7q27 -2 45 -20.5t18 -46.5
q0 -45 -7 -100.5t-7 -82.5q0 -6 10 -47.5t10 -52.5q0 -25 -16.5 -40t-39.5 -15q-19 0 -49 1.5t-50.5 1.5t-37.5 -3l-20 -3l-2 20q-1 6 12 82.5t13 103.5q0 48 -6.5 80.5t-13.5 47t-22 35.5zM9 513q82 0 106 13q29 16 81.5 86.5t55.5 72.5h-79q-37 0 -65 -11t-44 -25.5
t-28 -40.5t-16.5 -45t-10.5 -50zM-7 485q16 89 32 121q43 91 156 91h116q-2 -1 -32 -45t-68.5 -91t-63.5 -60q-30 -16 -116 -16h-24z" />
    <glyph glyph-name="icircumflex" unicode="&#xee;" horiz-adv-x="223" 
d="M8 385q34 -43 34 -162q0 -23 -6.5 -68t-12 -79.5t-5.5 -35.5q19 3 40.5 3t50.5 -1.5t47 -1.5q16 0 26 9.5t10 25.5q0 4 -10 46.5t-10 53.5q0 29 7 84t7 99q0 22 -13.5 35t-34.5 13q-37 0 -130 -21zM-12 378l1 13q68 17 81 19q40 7 81 7q27 -2 45 -20.5t18 -46.5
q0 -45 -7 -100.5t-7 -82.5q0 -6 10 -47.5t10 -52.5q0 -25 -16.5 -40t-39.5 -15q-19 0 -49 1.5t-50.5 1.5t-37.5 -3l-20 -3l-2 20q-1 6 12 82.5t13 103.5q0 48 -6.5 80.5t-13.5 47t-22 35.5zM-48 577q0 -20 24 -42q18 -16 43 -31q64 42 96 94q35 -21 56 -48t25 -46
q52 21 52 58q0 28 -42 66q-24 21 -52 39.5t-37 28.5q-18 2 -22 2q-13 0 -26 -8q-47 -44 -107 -93q-10 -9 -10 -20zM-58 567q0 21 17 36q26 22 58.5 52t47.5 42q16 11 40 11q13 0 31 -3q13 -13 42.5 -33.5t50.5 -38.5q49 -44 49 -81q0 -57 -87 -85q-7 54 -61 94
q-40 -52 -100 -91q-34 19 -57 40q-31 28 -31 57z" />
    <glyph glyph-name="idieresis" unicode="&#xef;" horiz-adv-x="223" 
d="M8 385q34 -43 34 -162q0 -23 -6.5 -68t-12 -79.5t-5.5 -35.5q19 3 40.5 3t50.5 -1.5t47 -1.5q16 0 26 9.5t10 25.5q0 4 -10 46.5t-10 53.5q0 29 7 84t7 99q0 22 -13.5 35t-34.5 13q-37 0 -130 -21zM-12 378l1 13q68 17 81 19q40 7 81 7q27 -2 45 -20.5t18 -46.5
q0 -45 -7 -100.5t-7 -82.5q0 -6 10 -47.5t10 -52.5q0 -25 -16.5 -40t-39.5 -15q-19 0 -49 1.5t-50.5 1.5t-37.5 -3l-20 -3l-2 20q-1 6 12 82.5t13 103.5q0 48 -6.5 80.5t-13.5 47t-22 35.5zM-39 579q0 -18 11.5 -31t26.5 -13q32 0 53 17.5t21 46.5q0 36 -48 36
q-27 0 -45.5 -15.5t-18.5 -40.5zM133 579q0 -18 11.5 -31t26.5 -13q32 0 53 17.5t21 46.5q0 36 -48 36q-27 0 -45.5 -15.5t-18.5 -40.5zM-51 571q0 34 25 55t59 21q68 0 68 -56q0 -37 -27 -60.5t-67 -23.5q-25 0 -41.5 19.5t-16.5 44.5zM121 571q0 34 25 55t59 21
q68 0 68 -56q0 -37 -27 -60.5t-67 -23.5q-25 0 -41.5 19.5t-16.5 44.5z" />
    <glyph glyph-name="eth" unicode="&#xf0;" horiz-adv-x="506" 
d="M0 170h34q1 -25 1 -72q0 -41 -6 -83q42 6 79 6q24 0 71.5 -8.5t89.5 -8.5q96 0 159.5 71t63.5 177q0 80 -56.5 137t-136.5 57q-51 0 -130.5 -20.5t-131.5 -27.5q-9 -2 -9 -13q0 -35 4 -159l-32 1v-57zM171 171h47l2 49l-48 2q2 14 11 35q33 0 56 -18t23 -44t-25 -44.5
t-62 -20.5q-2 13 -4 41zM-11 140l1 20v41t1 37l31 -1q0 14 -2 66.5t-2 71.5q0 28 26 32q52 7 131 28t134 21q88 0 150.5 -62.5t62.5 -151.5q0 -113 -69 -190.5t-174 -77.5q-44 0 -91.5 8.5t-69.5 8.5q-36 0 -76 -6l-26 -4l3 26q6 40 6 81q0 3 -0.5 20t-0.5 32h-35z" />
    <glyph glyph-name="ntilde" unicode="&#xf1;" horiz-adv-x="526" 
d="M13 40q30 -20 68 -20q33 0 58 14q16 61 16 142q0 30 -5 58q61 -22 124.5 -112.5t72.5 -163.5q20 -6 65 -6q24 0 56 15q16 29 26.5 122.5t13.5 172.5l2 78q0 39 -5 109q-32 32 -97 32q-19 0 -51 -5q19 -52 19 -110q0 -59 -12 -154q-137 251 -316 251q-31 0 -31 -16
q0 -42 12 -102.5t12 -104.5q0 -82 -28 -200zM-3 24q31 112 31 208q0 41 -12 103t-12 105q0 36 51 36q169 0 303 -210q5 46 5 92q0 38 -4.5 60t-21.5 68q56 8 78 8q70 0 113 -43q6 -96 6 -118q0 -32 -2 -92t-13 -161t-30 -136q-38 -19 -71 -19q-47 0 -82 11q-9 79 -59.5 151
t-95.5 104q0 -3 0.5 -11t0.5 -11q0 -89 -19 -156q-37 -21 -75 -21q-21 0 -39 5t-26.5 10.5zM75 522q39 34 86 34q18 0 69.5 -23t76.5 -23q43 0 72.5 34.5t29.5 84.5q0 43 -11 71q-33 -37 -82 -37q-32 0 -81.5 21.5t-71.5 21.5q-29 0 -47 -13.5t-26.5 -41t-11.5 -56.5t-3 -73
zM63 464v45q0 52 3.5 84.5t14 63.5t33.5 45.5t59 14.5q27 0 76 -22t77 -22q38 0 66 31q3 4 11.5 13.5t10.5 11.5q1 -3 6.5 -16t6.5 -16q12 -32 12 -78q0 -57 -35 -98t-87 -41q-28 0 -80.5 23t-65.5 23q-20 0 -41.5 -9.5t-31.5 -19.5q-21 -21 -35 -33z" />
    <glyph glyph-name="ograve" unicode="&#xf2;" horiz-adv-x="372" 
d="M-5 568q3 -2 55 -72.5t81 -86.5q24 -13 107 -13q-6 31 -10.5 50t-16.5 45t-28 40.5t-44 25.5t-65 11h-79zM-39 579h123q42 0 74 -13t50 -30.5t31.5 -47t18 -48.5t10.5 -50q1 -3 2.5 -12t1.5 -12h-24q-91 0 -117 15q-19 10 -42.5 35.5t-41 49.5t-34.5 48.5t-20 27.5
q-2 2 -9 11t-13 16t-10 10zM72 132q0 14 9.5 24t23.5 10t24 -6t10 -16q0 -13 -8.5 -22.5t-21.5 -9.5q-15 0 -26 6t-11 14zM4 190q0 -102 55 -130l-12 -6q15 -20 44 -32t58 -12q93 0 151 44.5t58 121.5q0 64 -62 110t-149 46q-52 0 -91.5 -40.5t-51.5 -101.5zM100 128
q8 -4 17 -4q10 0 10 10q-4 4 -14 4q-11 0 -13 -10zM-8 182v2v2q14 73 57.5 115.5t105.5 42.5q94 0 162.5 -50.5t68.5 -125.5q0 -84 -62.5 -135t-166.5 -51q-32 0 -65.5 13.5t-52.5 38.5q-15 20 -16 21q1 0 2.5 0.5t2.5 1.5q-36 41 -36 125z" />
    <glyph glyph-name="oacute" unicode="&#xf3;" horiz-adv-x="372" 
d="M95 386q82 0 106 13q29 16 81.5 86.5t55.5 72.5h-79q-37 0 -65 -11t-44 -25.5t-28 -40.5t-16.5 -45t-10.5 -50zM79 358q16 89 32 121q43 91 156 91h116q-2 -1 -32 -45t-68.5 -91t-63.5 -60q-30 -16 -116 -16h-24zM72 132q0 14 9.5 24t23.5 10t24 -6t10 -16
q0 -13 -8.5 -22.5t-21.5 -9.5q-15 0 -26 6t-11 14zM4 190q0 -102 55 -130l-12 -6q15 -20 44 -32t58 -12q93 0 151 44.5t58 121.5q0 64 -62 110t-149 46q-52 0 -91.5 -40.5t-51.5 -101.5zM100 128q8 -4 17 -4q10 0 10 10q-4 4 -14 4q-11 0 -13 -10zM-8 182v2v2
q14 73 57.5 115.5t105.5 42.5q94 0 162.5 -50.5t68.5 -125.5q0 -84 -62.5 -135t-166.5 -51q-32 0 -65.5 13.5t-52.5 38.5q-15 20 -16 21q1 0 2.5 0.5t2.5 1.5q-36 41 -36 125z" />
    <glyph glyph-name="ocircumflex" unicode="&#xf4;" horiz-adv-x="372" 
d="M38 462q0 -20 24 -42q18 -16 43 -31q64 42 96 94q35 -21 56 -48t25 -46q52 21 52 58q0 28 -42 66q-24 21 -52 39.5t-37 28.5q-18 2 -22 2q-13 0 -26 -8q-47 -44 -107 -93q-10 -9 -10 -20zM28 452q0 21 17 36q26 22 58.5 52t47.5 42q16 11 40 11q13 0 31 -3
q13 -13 42.5 -33.5t50.5 -38.5q49 -44 49 -81q0 -57 -87 -85q-7 54 -61 94q-40 -52 -100 -91q-34 19 -57 40q-31 28 -31 57zM72 132q0 14 9.5 24t23.5 10t24 -6t10 -16q0 -13 -8.5 -22.5t-21.5 -9.5q-15 0 -26 6t-11 14zM4 190q0 -102 55 -130l-12 -6q15 -20 44 -32t58 -12
q93 0 151 44.5t58 121.5q0 64 -62 110t-149 46q-52 0 -91.5 -40.5t-51.5 -101.5zM100 128q8 -4 17 -4q10 0 10 10q-4 4 -14 4q-11 0 -13 -10zM-8 182v2v2q14 73 57.5 115.5t105.5 42.5q94 0 162.5 -50.5t68.5 -125.5q0 -84 -62.5 -135t-166.5 -51q-32 0 -65.5 13.5
t-52.5 38.5q-15 20 -16 21q1 0 2.5 0.5t2.5 1.5q-36 41 -36 125z" />
    <glyph glyph-name="otilde" unicode="&#xf5;" horiz-adv-x="372" 
d="M15 402q39 34 86 34q18 0 69.5 -23t76.5 -23q43 0 72.5 34.5t29.5 84.5q0 43 -11 71q-33 -37 -82 -37q-32 0 -81.5 21.5t-71.5 21.5q-29 0 -47 -13.5t-26.5 -41t-11.5 -56.5t-3 -73zM3 344v45q0 52 3.5 84.5t14 63.5t33.5 45.5t59 14.5q27 0 76 -22t77 -22q38 0 66 31
q3 4 11.5 13.5t10.5 11.5q1 -3 6.5 -16t6.5 -16q12 -32 12 -78q0 -57 -35 -98t-87 -41q-28 0 -80.5 23t-65.5 23q-20 0 -41.5 -9.5t-31.5 -19.5q-21 -21 -35 -33zM72 132q0 14 9.5 24t23.5 10t24 -6t10 -16q0 -13 -8.5 -22.5t-21.5 -9.5q-15 0 -26 6t-11 14zM4 190
q0 -102 55 -130l-12 -6q15 -20 44 -32t58 -12q93 0 151 44.5t58 121.5q0 64 -62 110t-149 46q-52 0 -91.5 -40.5t-51.5 -101.5zM100 128q8 -4 17 -4q10 0 10 10q-4 4 -14 4q-11 0 -13 -10zM-8 182v2v2q14 73 57.5 115.5t105.5 42.5q94 0 162.5 -50.5t68.5 -125.5
q0 -84 -62.5 -135t-166.5 -51q-32 0 -65.5 13.5t-52.5 38.5q-15 20 -16 21q1 0 2.5 0.5t2.5 1.5q-36 41 -36 125z" />
    <glyph glyph-name="odieresis" unicode="&#xf6;" horiz-adv-x="372" 
d="M38 447q0 -18 11.5 -31t26.5 -13q32 0 53 17.5t21 46.5q0 36 -48 36q-27 0 -45.5 -15.5t-18.5 -40.5zM210 447q0 -18 11.5 -31t26.5 -13q32 0 53 17.5t21 46.5q0 36 -48 36q-27 0 -45.5 -15.5t-18.5 -40.5zM26 439q0 34 25 55t59 21q68 0 68 -56q0 -37 -27 -60.5
t-67 -23.5q-25 0 -41.5 19.5t-16.5 44.5zM198 439q0 34 25 55t59 21q68 0 68 -56q0 -37 -27 -60.5t-67 -23.5q-25 0 -41.5 19.5t-16.5 44.5zM72 132q0 14 9.5 24t23.5 10t24 -6t10 -16q0 -13 -8.5 -22.5t-21.5 -9.5q-15 0 -26 6t-11 14zM4 190q0 -102 55 -130l-12 -6
q15 -20 44 -32t58 -12q93 0 151 44.5t58 121.5q0 64 -62 110t-149 46q-52 0 -91.5 -40.5t-51.5 -101.5zM100 128q8 -4 17 -4q10 0 10 10q-4 4 -14 4q-11 0 -13 -10zM-8 182v2v2q14 73 57.5 115.5t105.5 42.5q94 0 162.5 -50.5t68.5 -125.5q0 -84 -62.5 -135t-166.5 -51
q-32 0 -65.5 13.5t-52.5 38.5q-15 20 -16 21q1 0 2.5 0.5t2.5 1.5q-36 41 -36 125z" />
    <glyph glyph-name="oslash" unicode="&#xf8;" horiz-adv-x="380" 
d="M72 132q0 14 9.5 24t23.5 10t24 -6t10 -16q0 -13 -8.5 -22.5t-21.5 -9.5q-15 0 -26 6t-11 14zM4 190q0 -102 54 -130l-23 -36q-30 -42 -30 -73q23 -31 67 -62q21 42 43 73l31 48h3q93 0 151 44.5t58 121.5q0 53 -45 95q52 78 52 101q-14 30 -40.5 49t-42.5 23
q-1 -37 -55 -112q-4 -6 -7 -10q-38 10 -73 10q-52 0 -91.5 -40.5t-51.5 -101.5zM102 126q8 -4 17 -4q10 0 10 10q-4 4 -14 4q-11 0 -13 -10zM-6 182q12 71 56 115.5t107 44.5q32 0 65 -7q48 67 50 103l1 22q7 -1 19.5 -4.5t32 -13t39 -29.5t31.5 -47v-4q0 -29 -46 -98
q39 -46 39 -98q0 -83 -60.5 -133.5t-160.5 -52.5q-4 -5 -25 -39q-27 -40 -52 -92l-19 14q-47 32 -76 72q0 47 32 93l12 19q-45 38 -45 135z" />
    <glyph glyph-name="ugrave" unicode="&#xf9;" 
d="M-20 664q3 -2 55 -72.5t81 -86.5q24 -13 107 -13q-6 31 -10.5 50t-16.5 45t-28 40.5t-44 25.5t-65 11h-79zM-54 675h123q42 0 74 -13t50 -30.5t31.5 -47t18 -48.5t10.5 -50q1 -3 2.5 -12t1.5 -12h-24q-91 0 -117 15q-19 10 -42.5 35.5t-41 49.5t-34.5 48.5t-20 27.5
q-2 2 -9 11t-13 16t-10 10zM12 404q2 -11 12 -39.5t10 -42.5q0 -11 -5.5 -60.5t-5.5 -83.5q0 -49 38 -82.5t102 -33.5q73 0 117 76.5t44 199.5q0 44 -12 76t-28 32q-26 0 -32 -22q2 -9 14 -34t12 -40q0 -32 -15 -54.5t-37 -22.5q-18 0 -31 40t-13 97q0 11 -27.5 18.5
t-66.5 7.5q-60 0 -76 -32zM-3 404l4 6q26 38 95 38q44 0 79 -11t35 -35q0 -34 5 -61.5t10.5 -39.5t9.5 -16q11 2 21 18t10 39q0 11 -11 33.5t-14 34.5q0 1 -0.5 2l-1.5 3q2 4 2 6q4 17 19 27t32 10q28 0 44 -37t16 -91q0 -134 -50 -215t-131 -81q-71 0 -115.5 39t-44.5 97
q0 36 5.5 85.5t5.5 57.5q0 10 -10 40.5t-12 39.5z" />
    <glyph glyph-name="uacute" unicode="&#xfa;" 
d="M84 490q82 0 106 13q29 16 81.5 86.5t55.5 72.5h-79q-37 0 -65 -11t-44 -25.5t-28 -40.5t-16.5 -45t-10.5 -50zM68 462q16 89 32 121q43 91 156 91h116q-2 -1 -32 -45t-68.5 -91t-63.5 -60q-30 -16 -116 -16h-24zM12 404q2 -11 12 -39.5t10 -42.5q0 -11 -5.5 -60.5
t-5.5 -83.5q0 -49 38 -82.5t102 -33.5q73 0 117 76.5t44 199.5q0 44 -12 76t-28 32q-26 0 -32 -22q2 -9 14 -34t12 -40q0 -32 -15 -54.5t-37 -22.5q-18 0 -31 40t-13 97q0 11 -27.5 18.5t-66.5 7.5q-60 0 -76 -32zM-3 404l4 6q26 38 95 38q44 0 79 -11t35 -35q0 -34 5 -61.5
t10.5 -39.5t9.5 -16q11 2 21 18t10 39q0 11 -11 33.5t-14 34.5q0 1 -0.5 2l-1.5 3q2 4 2 6q4 17 19 27t32 10q28 0 44 -37t16 -91q0 -134 -50 -215t-131 -81q-71 0 -115.5 39t-44.5 97q0 36 5.5 85.5t5.5 57.5q0 10 -10 40.5t-12 39.5z" />
    <glyph glyph-name="ucircumflex" unicode="&#xfb;" 
d="M23 558q0 -20 24 -42q18 -16 43 -31q64 42 96 94q35 -21 56 -48t25 -46q52 21 52 58q0 28 -42 66q-24 21 -52 39.5t-37 28.5q-18 2 -22 2q-13 0 -26 -8q-47 -44 -107 -93q-10 -9 -10 -20zM13 548q0 21 17 36q26 22 58.5 52t47.5 42q16 11 40 11q13 0 31 -3
q13 -13 42.5 -33.5t50.5 -38.5q49 -44 49 -81q0 -57 -87 -85q-7 54 -61 94q-40 -52 -100 -91q-34 19 -57 40q-31 28 -31 57zM12 404q2 -11 12 -39.5t10 -42.5q0 -11 -5.5 -60.5t-5.5 -83.5q0 -49 38 -82.5t102 -33.5q73 0 117 76.5t44 199.5q0 44 -12 76t-28 32
q-26 0 -32 -22q2 -9 14 -34t12 -40q0 -32 -15 -54.5t-37 -22.5q-18 0 -31 40t-13 97q0 11 -27.5 18.5t-66.5 7.5q-60 0 -76 -32zM-3 404l4 6q26 38 95 38q44 0 79 -11t35 -35q0 -34 5 -61.5t10.5 -39.5t9.5 -16q11 2 21 18t10 39q0 11 -11 33.5t-14 34.5q0 1 -0.5 2l-1.5 3
q2 4 2 6q4 17 19 27t32 10q28 0 44 -37t16 -91q0 -134 -50 -215t-131 -81q-71 0 -115.5 39t-44.5 97q0 36 5.5 85.5t5.5 57.5q0 10 -10 40.5t-12 39.5z" />
    <glyph glyph-name="udieresis" unicode="&#xfc;" 
d="M23 523q0 -18 11.5 -31t26.5 -13q32 0 53 17.5t21 46.5q0 36 -48 36q-27 0 -45.5 -15.5t-18.5 -40.5zM195 523q0 -18 11.5 -31t26.5 -13q32 0 53 17.5t21 46.5q0 36 -48 36q-27 0 -45.5 -15.5t-18.5 -40.5zM11 515q0 34 25 55t59 21q68 0 68 -56q0 -37 -27 -60.5
t-67 -23.5q-25 0 -41.5 19.5t-16.5 44.5zM183 515q0 34 25 55t59 21q68 0 68 -56q0 -37 -27 -60.5t-67 -23.5q-25 0 -41.5 19.5t-16.5 44.5zM12 394q2 -11 12 -39.5t10 -42.5q0 -11 -5.5 -60.5t-5.5 -83.5q0 -49 38 -82.5t102 -33.5q73 0 117 76.5t44 199.5q0 44 -12 76
t-28 32q-26 0 -32 -22q2 -9 14 -34t12 -40q0 -32 -15 -54.5t-37 -22.5q-18 0 -31 40t-13 97q0 11 -27.5 18.5t-66.5 7.5q-60 0 -76 -32zM-3 394l4 6q26 38 95 38q44 0 79 -11t35 -35q0 -34 5 -61.5t10.5 -39.5t9.5 -16q11 2 21 18t10 39q0 11 -11 33.5t-14 34.5q0 1 -0.5 2
l-1.5 3q2 4 2 6q4 17 19 27t32 10q28 0 44 -37t16 -91q0 -134 -50 -215t-131 -81q-71 0 -115.5 39t-44.5 97q0 36 5.5 85.5t5.5 57.5q0 10 -10 40.5t-12 39.5z" />
    <glyph glyph-name="yacute" unicode="&#xfd;" horiz-adv-x="425" 
d="M153 524q82 0 106 13q29 16 81.5 86.5t55.5 72.5h-79q-37 0 -65 -11t-44 -25.5t-28 -40.5t-16.5 -45t-10.5 -50zM137 496q16 89 32 121q43 91 156 91h116q-2 -1 -32 -45t-68.5 -91t-63.5 -60q-30 -16 -116 -16h-24zM2 400q0 -22 13 -36q36 -40 52 -59t41 -63t25 -76
q0 -112 -3 -160q41 -8 106 -8q25 0 41.5 22t16.5 53q0 30 -3 76.5t-3 76.5q0 16 18 38q6 7 31 35.5t34 40t24.5 33t21.5 38t6 31.5q0 13 -11.5 22.5t-27.5 9.5q-40 0 -68 -17q19 -21 19 -54q0 -52 -56 -121q-17 40 -29 64.5t-33.5 60t-46 53.5t-50.5 18q-49 0 -83.5 -23
t-34.5 -55zM-10 392q0 49 40 73.5t98 24.5q30 0 57 -18.5t49 -52t33 -54.5t25 -52q31 43 31 82q0 24 -14 41q-10 10 -16 18q2 1 10.5 5.5t10.5 6.5q34 20 78 20q23 0 41 -14.5t18 -37.5q0 -11 -3.5 -23.5t-7 -22.5t-13 -24.5t-14.5 -22t-18.5 -23.5t-18 -21.5t-19.5 -22.5
t-17 -19q-3 -3 -6.5 -7t-4.5 -5q-13 -17 -13 -25q0 -28 3 -75t3 -78q0 -38 -22 -66.5t-56 -28.5q-67 0 -110 8q-12 4 -19 4l1 17q3 47 3 159q0 63 -111 185q-18 21 -18 49z" />
    <glyph glyph-name="ydieresis" unicode="&#xff;" horiz-adv-x="425" 
d="M94 575q0 -18 11.5 -31t26.5 -13q32 0 53 17.5t21 46.5q0 36 -48 36q-27 0 -45.5 -15.5t-18.5 -40.5zM266 575q0 -18 11.5 -31t26.5 -13q32 0 53 17.5t21 46.5q0 36 -48 36q-27 0 -45.5 -15.5t-18.5 -40.5zM82 567q0 34 25 55t59 21q68 0 68 -56q0 -37 -27 -60.5
t-67 -23.5q-25 0 -41.5 19.5t-16.5 44.5zM254 567q0 34 25 55t59 21q68 0 68 -56q0 -37 -27 -60.5t-67 -23.5q-25 0 -41.5 19.5t-16.5 44.5zM2 400q0 -22 13 -36q36 -40 52 -59t41 -63t25 -76q0 -112 -3 -160q41 -8 106 -8q25 0 41.5 22t16.5 53q0 30 -3 76.5t-3 76.5
q0 16 18 38q6 7 31 35.5t34 40t24.5 33t21.5 38t6 31.5q0 13 -11.5 22.5t-27.5 9.5q-40 0 -68 -17q19 -21 19 -54q0 -52 -56 -121q-17 40 -29 64.5t-33.5 60t-46 53.5t-50.5 18q-49 0 -83.5 -23t-34.5 -55zM-10 392q0 49 40 73.5t98 24.5q30 0 57 -18.5t49 -52t33 -54.5
t25 -52q31 43 31 82q0 24 -14 41q-10 10 -16 18q2 1 10.5 5.5t10.5 6.5q34 20 78 20q23 0 41 -14.5t18 -37.5q0 -11 -3.5 -23.5t-7 -22.5t-13 -24.5t-14.5 -22t-18.5 -23.5t-18 -21.5t-19.5 -22.5t-17 -19q-3 -3 -6.5 -7t-4.5 -5q-13 -17 -13 -25q0 -28 3 -75t3 -78
q0 -38 -22 -66.5t-56 -28.5q-67 0 -110 8q-12 4 -19 4l1 17q3 47 3 159q0 63 -111 185q-18 21 -18 49z" />
    <glyph glyph-name="Amacron" unicode="&#x100;" horiz-adv-x="606" 
d="M139 556q45 3 76 3q18 0 70.5 -4t66.5 -4q64 0 83 19q16 32 16 64q0 31 -11 66q-36 -23 -79 -23q-26 0 -73.5 3.5t-71.5 3.5q-48 0 -72 -17q-5 -63 -5 -111zM129 525v21q0 61 6 124q14 10 22 14.5t25.5 8t43.5 3.5q25 0 73 -4.5t72 -4.5q25 0 41 7t49 29q20 -41 20 -99
q0 -38 -19 -76q-27 -27 -100 -27q-16 0 -68 4t-69 4q-30 0 -75 -3q-2 0 -10.5 -0.5t-10.5 -0.5zM190 225q0 19 9.5 34t25.5 18l66 -101l-4 -2q-13 12 -20 14q-13 3 -31.5 5.5t-26 4.5t-13.5 8t-6 19zM2 37q0 -19 22 -33t54 -14q34 0 58 12t24 28q0 74 7 105
q96 -3 126.5 -15.5t54.5 -67.5q14 -36 15 -50q25 -2 76 -8.5t87 -6.5q23 0 41.5 17.5t18.5 32.5q0 35 -22.5 81t-48 80.5t-72.5 94t-69 89.5q-29 41 -33 78q-59 8 -91 0.5t-72 -38.5q0 -148 -78 -285q-11 -19 -54.5 -49.5t-43.5 -50.5zM218 217v-4l1 -2q5 -3 32 -6l-8 12
l-11 16.5t-6 9.5q-8 -11 -8 -26zM-10 29q0 25 19.5 43.5t45 36t34.5 32.5q76 133 76 273v13q35 27 62 38.5t70 11.5q14 0 70 -8q0 -1 1 -7t1 -8q4 -34 29 -68q23 -32 72 -94t74 -96t47.5 -81.5t22.5 -85.5q0 -23 -24.5 -46.5t-55.5 -23.5q-38 0 -89.5 7t-74.5 8l-17 1
q0 1 -1 8t-1 9q-2 16 -13 45q-20 46 -43.5 56t-103.5 13q-3 -16 -3 -84q0 -26 -30 -43t-72 -17q-39 0 -67.5 19t-28.5 48z" />
    <glyph glyph-name="amacron" unicode="&#x101;" horiz-adv-x="606" 
d="M139 556q45 3 76 3q18 0 70.5 -4t66.5 -4q64 0 83 19q16 32 16 64q0 31 -11 66q-36 -23 -79 -23q-26 0 -73.5 3.5t-71.5 3.5q-48 0 -72 -17q-5 -63 -5 -111zM129 525v21q0 61 6 124q14 10 22 14.5t25.5 8t43.5 3.5q25 0 73 -4.5t72 -4.5q25 0 41 7t49 29q20 -41 20 -99
q0 -38 -19 -76q-27 -27 -100 -27q-16 0 -68 4t-69 4q-30 0 -75 -3q-2 0 -10.5 -0.5t-10.5 -0.5zM190 225q0 19 9.5 34t25.5 18l66 -101l-4 -2q-13 12 -20 14q-13 3 -31.5 5.5t-26 4.5t-13.5 8t-6 19zM2 37q0 -19 22 -33t54 -14q34 0 58 12t24 28q0 74 7 105
q96 -3 126.5 -15.5t54.5 -67.5q14 -36 15 -50q25 -2 76 -8.5t87 -6.5q23 0 41.5 17.5t18.5 32.5q0 35 -22.5 81t-48 80.5t-72.5 94t-69 89.5q-29 41 -33 78q-59 8 -91 0.5t-72 -38.5q0 -148 -78 -285q-11 -19 -54.5 -49.5t-43.5 -50.5zM218 217v-4l1 -2q5 -3 32 -6l-8 12
l-11 16.5t-6 9.5q-8 -11 -8 -26zM-10 29q0 25 19.5 43.5t45 36t34.5 32.5q76 133 76 273v13q35 27 62 38.5t70 11.5q14 0 70 -8q0 -1 1 -7t1 -8q4 -34 29 -68q23 -32 72 -94t74 -96t47.5 -81.5t22.5 -85.5q0 -23 -24.5 -46.5t-55.5 -23.5q-38 0 -89.5 7t-74.5 8l-17 1
q0 1 -1 8t-1 9q-2 16 -13 45q-20 46 -43.5 56t-103.5 13q-3 -16 -3 -84q0 -26 -30 -43t-72 -17q-39 0 -67.5 19t-28.5 48z" />
    <glyph glyph-name="Abreve" unicode="&#x102;" horiz-adv-x="606" 
d="M154 634q0 -8 8 -18q71 -78 153 -78q68 0 106 47q30 40 30 66q0 44 -57 55q-2 -24 -18 -53q-14 -24 -44 -24q-32 0 -52 26q-22 27 -44 49q-23 -9 -51 -28q-31 -19 -31 -42zM143 624q0 38 39 62q32 20 67 34q32 -32 56 -62q16 -19 37 -19q18 0 26 14q17 28 17 67
q18 -2 36 -6.5t39 -23.5t21 -49q0 -31 -35 -78q-45 -55 -121 -55q-66 0 -124 43t-58 73zM190 225q0 19 9.5 34t25.5 18l66 -101l-4 -2q-13 12 -20 14q-13 3 -31.5 5.5t-26 4.5t-13.5 8t-6 19zM2 37q0 -19 22 -33t54 -14q34 0 58 12t24 28q0 74 7 105q96 -3 126.5 -15.5
t54.5 -67.5q14 -36 15 -50q25 -2 76 -8.5t87 -6.5q23 0 41.5 17.5t18.5 32.5q0 35 -22.5 81t-48 80.5t-72.5 94t-69 89.5q-29 41 -33 78q-59 8 -91 0.5t-72 -38.5q0 -148 -78 -285q-11 -19 -54.5 -49.5t-43.5 -50.5zM218 217v-4l1 -2q5 -3 32 -6l-8 12l-11 16.5t-6 9.5
q-8 -11 -8 -26zM-10 29q0 25 19.5 43.5t45 36t34.5 32.5q76 133 76 273v13q35 27 62 38.5t70 11.5q14 0 70 -8q0 -1 1 -7t1 -8q4 -34 29 -68q23 -32 72 -94t74 -96t47.5 -81.5t22.5 -85.5q0 -23 -24.5 -46.5t-55.5 -23.5q-38 0 -89.5 7t-74.5 8l-17 1q0 1 -1 8t-1 9
q-2 16 -13 45q-20 46 -43.5 56t-103.5 13q-3 -16 -3 -84q0 -26 -30 -43t-72 -17q-39 0 -67.5 19t-28.5 48z" />
    <glyph glyph-name="abreve" unicode="&#x103;" horiz-adv-x="606" 
d="M154 634q0 -8 8 -18q71 -78 153 -78q68 0 106 47q30 40 30 66q0 44 -57 55q-2 -24 -18 -53q-14 -24 -44 -24q-32 0 -52 26q-22 27 -44 49q-23 -9 -51 -28q-31 -19 -31 -42zM143 624q0 38 39 62q32 20 67 34q32 -32 56 -62q16 -19 37 -19q18 0 26 14q17 28 17 67
q18 -2 36 -6.5t39 -23.5t21 -49q0 -31 -35 -78q-45 -55 -121 -55q-66 0 -124 43t-58 73zM190 225q0 19 9.5 34t25.5 18l66 -101l-4 -2q-13 12 -20 14q-13 3 -31.5 5.5t-26 4.5t-13.5 8t-6 19zM2 37q0 -19 22 -33t54 -14q34 0 58 12t24 28q0 74 7 105q96 -3 126.5 -15.5
t54.5 -67.5q14 -36 15 -50q25 -2 76 -8.5t87 -6.5q23 0 41.5 17.5t18.5 32.5q0 35 -22.5 81t-48 80.5t-72.5 94t-69 89.5q-29 41 -33 78q-59 8 -91 0.5t-72 -38.5q0 -148 -78 -285q-11 -19 -54.5 -49.5t-43.5 -50.5zM218 217v-4l1 -2q5 -3 32 -6l-8 12l-11 16.5t-6 9.5
q-8 -11 -8 -26zM-10 29q0 25 19.5 43.5t45 36t34.5 32.5q76 133 76 273v13q35 27 62 38.5t70 11.5q14 0 70 -8q0 -1 1 -7t1 -8q4 -34 29 -68q23 -32 72 -94t74 -96t47.5 -81.5t22.5 -85.5q0 -23 -24.5 -46.5t-55.5 -23.5q-38 0 -89.5 7t-74.5 8l-17 1q0 1 -1 8t-1 9
q-2 16 -13 45q-20 46 -43.5 56t-103.5 13q-3 -16 -3 -84q0 -26 -30 -43t-72 -17q-39 0 -67.5 19t-28.5 48z" />
    <glyph glyph-name="Aogonek" unicode="&#x104;" horiz-adv-x="606" 
d="M-10 29q0 21 12 33.5t37.5 30t43.5 37.5q19 22 45 86q38 95 38 198v10l8 6q44 34 87.5 42t105.5 -3q3 -43 31 -83q23 -32 72 -94t74 -96t47.5 -81.5t22.5 -85.5q0 -30 -29 -52q-17 -13 -26 -22q10 1 46 15q14 -53 17 -72t3 -73v-17q-92 -20 -153 -20q-39 0 -72.5 28
t-33.5 69t49 85q-20 2 -62 5q-4 36 -15 62q-20 46 -43.5 56t-103.5 13q-3 -21 -3 -84q0 -26 -30 -43t-72 -17q-39 0 -67.5 19t-28.5 48zM218 217v-4l1 -2q5 -3 32 -6l-8 12l-11 16.5t-6 9.5q-8 -11 -8 -26zM2 37q0 -19 22 -33t54 -14q34 0 58 12t24 28q0 77 7 105
q96 -3 126.5 -15.5t54.5 -67.5q13 -35 15 -50q19 -1 91 -9q-10 -9 -27.5 -25.5t-20.5 -19.5q-28 -25 -28 -55t27.5 -53.5t58.5 -23.5q46 0 133 17q0 48 -2 65.5t-12 52.5q-27 -9 -37 -9q-8 0 -14 4.5t-6 10.5q0 15 39 44q21 16 21 36q0 35 -22.5 81t-48 80.5t-72.5 94
t-69 89.5q-29 41 -33 78q-51 8 -87.5 0t-75.5 -38q0 -108 -39 -205q-27 -66 -49 -92q-20 -23 -43.5 -39t-34 -25t-10.5 -24zM190 225q0 19 9.5 34t25.5 18l66 -101l-4 -2q-13 12 -20 14q-13 3 -31.5 5.5t-26 4.5t-13.5 8t-6 19z" />
    <glyph glyph-name="aogonek" unicode="&#x105;" horiz-adv-x="606" 
d="M-10 29q0 21 12 33.5t37.5 30t43.5 37.5q19 22 45 86q38 95 38 198v10l8 6q44 34 87.5 42t105.5 -3q3 -43 31 -83q23 -32 72 -94t74 -96t47.5 -81.5t22.5 -85.5q0 -30 -29 -52q-17 -13 -26 -22q10 1 46 15q14 -53 17 -72t3 -73v-17q-92 -20 -153 -20q-39 0 -72.5 28
t-33.5 69t49 85q-20 2 -62 5q-4 36 -15 62q-20 46 -43.5 56t-103.5 13q-3 -21 -3 -84q0 -26 -30 -43t-72 -17q-39 0 -67.5 19t-28.5 48zM218 217v-4l1 -2q5 -3 32 -6l-8 12l-11 16.5t-6 9.5q-8 -11 -8 -26zM2 37q0 -19 22 -33t54 -14q34 0 58 12t24 28q0 77 7 105
q96 -3 126.5 -15.5t54.5 -67.5q13 -35 15 -50q19 -1 91 -9q-10 -9 -27.5 -25.5t-20.5 -19.5q-28 -25 -28 -55t27.5 -53.5t58.5 -23.5q46 0 133 17q0 48 -2 65.5t-12 52.5q-27 -9 -37 -9q-8 0 -14 4.5t-6 10.5q0 15 39 44q21 16 21 36q0 35 -22.5 81t-48 80.5t-72.5 94
t-69 89.5q-29 41 -33 78q-51 8 -87.5 0t-75.5 -38q0 -108 -39 -205q-27 -66 -49 -92q-20 -23 -43.5 -39t-34 -25t-10.5 -24zM190 225q0 19 9.5 34t25.5 18l66 -101l-4 -2q-13 12 -20 14q-13 3 -31.5 5.5t-26 4.5t-13.5 8t-6 19z" />
    <glyph glyph-name="Cacute" unicode="&#x106;" horiz-adv-x="419" 
d="M116 477q82 0 106 13q29 16 81.5 86.5t55.5 72.5h-79q-37 0 -65 -11t-44 -25.5t-28 -40.5t-16.5 -45t-10.5 -50zM100 449q16 89 32 121q43 91 156 91h116q-2 -1 -32 -45t-68.5 -91t-63.5 -60q-30 -16 -116 -16h-24zM6 245q0 -87 57 -140t140 -53q102 0 183 74
q-9 19 -20 28q-27 -26 -68.5 -42t-80.5 -16t-63 18.5t-24 57.5q0 33 24.5 55.5t59.5 22.5q56 0 110 -40q14 70 31 130q7 25 24.5 65t22.5 52h-4q-7 -22 -30 -39t-44 -17q-31 0 -74 10t-74 10q-68 0 -119 -54.5t-51 -121.5zM-6 238q0 84 52 140t136 56q34 0 78 -10.5
t72 -10.5q13 0 31 12.5t24 30.5q1 2 3 8l1 5h44q-38 -88 -53 -143q-19 -63 -30 -127q-2 -5 -6 -31q-15 10 -25 18q-48 36 -99 36q-27 0 -45.5 -17t-18.5 -41q0 -56 67 -56q36 0 73.5 15t61.5 38q10 10 13 12l13 -11q10 -9 17 -18q5 -8 10 -19q1 -1 3 -5.5t2 -6.5l-10 -10
q-86 -79 -197 -79q-91 0 -154 59t-63 155z" />
    <glyph glyph-name="cacute" unicode="&#x107;" horiz-adv-x="419" 
d="M116 477q82 0 106 13q29 16 81.5 86.5t55.5 72.5h-79q-37 0 -65 -11t-44 -25.5t-28 -40.5t-16.5 -45t-10.5 -50zM100 449q16 89 32 121q43 91 156 91h116q-2 -1 -32 -45t-68.5 -91t-63.5 -60q-30 -16 -116 -16h-24zM6 245q0 -87 57 -140t140 -53q102 0 183 74
q-9 19 -20 28q-27 -26 -68.5 -42t-80.5 -16t-63 18.5t-24 57.5q0 33 24.5 55.5t59.5 22.5q56 0 110 -40q14 70 31 130q7 25 24.5 65t22.5 52h-4q-7 -22 -30 -39t-44 -17q-31 0 -74 10t-74 10q-68 0 -119 -54.5t-51 -121.5zM-6 238q0 84 52 140t136 56q34 0 78 -10.5
t72 -10.5q13 0 31 12.5t24 30.5q1 2 3 8l1 5h44q-38 -88 -53 -143q-19 -63 -30 -127q-2 -5 -6 -31q-15 10 -25 18q-48 36 -99 36q-27 0 -45.5 -17t-18.5 -41q0 -56 67 -56q36 0 73.5 15t61.5 38q10 10 13 12l13 -11q10 -9 17 -18q5 -8 10 -19q1 -1 3 -5.5t2 -6.5l-10 -10
q-86 -79 -197 -79q-91 0 -154 59t-63 155z" />
    <glyph glyph-name="Ccircumflex" unicode="&#x108;" horiz-adv-x="419" 
d="M59 553q0 -20 24 -42q18 -16 43 -31q64 42 96 94q35 -21 56 -48t25 -46q52 21 52 58q0 28 -42 66q-24 21 -52 39.5t-37 28.5q-18 2 -22 2q-13 0 -26 -8q-47 -44 -107 -93q-10 -9 -10 -20zM49 543q0 21 17 36q26 22 58.5 52t47.5 42q16 11 40 11q13 0 31 -3
q13 -13 42.5 -33.5t50.5 -38.5q49 -44 49 -81q0 -57 -87 -85q-7 54 -61 94q-40 -52 -100 -91q-34 19 -57 40q-31 28 -31 57zM6 245q0 -87 57 -140t140 -53q102 0 183 74q-9 19 -20 28q-27 -26 -68.5 -42t-80.5 -16t-63 18.5t-24 57.5q0 33 24.5 55.5t59.5 22.5q56 0 110 -40
q14 70 31 130q7 25 24.5 65t22.5 52h-4q-7 -22 -30 -39t-44 -17q-31 0 -74 10t-74 10q-68 0 -119 -54.5t-51 -121.5zM-6 238q0 84 52 140t136 56q34 0 78 -10.5t72 -10.5q13 0 31 12.5t24 30.5q1 2 3 8l1 5h44q-38 -88 -53 -143q-19 -63 -30 -127q-2 -5 -6 -31
q-15 10 -25 18q-48 36 -99 36q-27 0 -45.5 -17t-18.5 -41q0 -56 67 -56q36 0 73.5 15t61.5 38q10 10 13 12l13 -11q10 -9 17 -18q5 -8 10 -19q1 -1 3 -5.5t2 -6.5l-10 -10q-86 -79 -197 -79q-91 0 -154 59t-63 155z" />
    <glyph glyph-name="ccircumflex" unicode="&#x109;" horiz-adv-x="419" 
d="M59 553q0 -20 24 -42q18 -16 43 -31q64 42 96 94q35 -21 56 -48t25 -46q52 21 52 58q0 28 -42 66q-24 21 -52 39.5t-37 28.5q-18 2 -22 2q-13 0 -26 -8q-47 -44 -107 -93q-10 -9 -10 -20zM49 543q0 21 17 36q26 22 58.5 52t47.5 42q16 11 40 11q13 0 31 -3
q13 -13 42.5 -33.5t50.5 -38.5q49 -44 49 -81q0 -57 -87 -85q-7 54 -61 94q-40 -52 -100 -91q-34 19 -57 40q-31 28 -31 57zM6 245q0 -87 57 -140t140 -53q102 0 183 74q-9 19 -20 28q-27 -26 -68.5 -42t-80.5 -16t-63 18.5t-24 57.5q0 33 24.5 55.5t59.5 22.5q56 0 110 -40
q14 70 31 130q7 25 24.5 65t22.5 52h-4q-7 -22 -30 -39t-44 -17q-31 0 -74 10t-74 10q-68 0 -119 -54.5t-51 -121.5zM-6 238q0 84 52 140t136 56q34 0 78 -10.5t72 -10.5q13 0 31 12.5t24 30.5q1 2 3 8l1 5h44q-38 -88 -53 -143q-19 -63 -30 -127q-2 -5 -6 -31
q-15 10 -25 18q-48 36 -99 36q-27 0 -45.5 -17t-18.5 -41q0 -56 67 -56q36 0 73.5 15t61.5 38q10 10 13 12l13 -11q10 -9 17 -18q5 -8 10 -19q1 -1 3 -5.5t2 -6.5l-10 -10q-86 -79 -197 -79q-91 0 -154 59t-63 155z" />
    <glyph glyph-name="Cdotaccent" unicode="&#x10a;" horiz-adv-x="419" 
d="M133 538q0 -24 16 -41.5t38 -17.5q38 0 64 22t26 57q0 51 -64 51q-33 0 -56.5 -19.5t-23.5 -51.5zM121 529q0 40 28.5 65.5t69.5 25.5t62.5 -20t21.5 -51q0 -44 -31 -71.5t-77 -27.5q-30 0 -52 23.5t-22 55.5zM6 245q0 -87 57 -140t140 -53q102 0 183 74q-9 19 -20 28
q-27 -26 -68.5 -42t-80.5 -16t-63 18.5t-24 57.5q0 33 24.5 55.5t59.5 22.5q56 0 110 -40q14 70 31 130q7 25 24.5 65t22.5 52h-4q-7 -22 -30 -39t-44 -17q-31 0 -74 10t-74 10q-68 0 -119 -54.5t-51 -121.5zM-6 238q0 84 52 140t136 56q34 0 78 -10.5t72 -10.5
q13 0 31 12.5t24 30.5q1 2 3 8l1 5h44q-38 -88 -53 -143q-19 -63 -30 -127q-2 -5 -6 -31q-15 10 -25 18q-48 36 -99 36q-27 0 -45.5 -17t-18.5 -41q0 -56 67 -56q36 0 73.5 15t61.5 38q10 10 13 12l13 -11q10 -9 17 -18q5 -8 10 -19q1 -1 3 -5.5t2 -6.5l-10 -10
q-86 -79 -197 -79q-91 0 -154 59t-63 155z" />
    <glyph glyph-name="cdotaccent" unicode="&#x10b;" horiz-adv-x="419" 
d="M133 538q0 -24 16 -41.5t38 -17.5q38 0 64 22t26 57q0 51 -64 51q-33 0 -56.5 -19.5t-23.5 -51.5zM121 529q0 40 28.5 65.5t69.5 25.5t62.5 -20t21.5 -51q0 -44 -31 -71.5t-77 -27.5q-30 0 -52 23.5t-22 55.5zM6 245q0 -87 57 -140t140 -53q102 0 183 74q-9 19 -20 28
q-27 -26 -68.5 -42t-80.5 -16t-63 18.5t-24 57.5q0 33 24.5 55.5t59.5 22.5q56 0 110 -40q14 70 31 130q7 25 24.5 65t22.5 52h-4q-7 -22 -30 -39t-44 -17q-31 0 -74 10t-74 10q-68 0 -119 -54.5t-51 -121.5zM-6 238q0 84 52 140t136 56q34 0 78 -10.5t72 -10.5
q13 0 31 12.5t24 30.5q1 2 3 8l1 5h44q-38 -88 -53 -143q-19 -63 -30 -127q-2 -5 -6 -31q-15 10 -25 18q-48 36 -99 36q-27 0 -45.5 -17t-18.5 -41q0 -56 67 -56q36 0 73.5 15t61.5 38q10 10 13 12l13 -11q10 -9 17 -18q5 -8 10 -19q1 -1 3 -5.5t2 -6.5l-10 -10
q-86 -79 -197 -79q-91 0 -154 59t-63 155z" />
    <glyph glyph-name="Ccaron" unicode="&#x10c;" horiz-adv-x="419" 
d="M68 590q0 -12 10 -21q60 -49 106 -92q13 -8 26 -8q4 0 22 2q9 10 37 28t53 39q42 38 42 67q0 36 -53 57q-4 -19 -24.5 -46t-55.5 -48q-32 52 -96 94q-29 -18 -43 -30q-24 -22 -24 -42zM57 581q0 30 30 57q24 21 57 39q64 -42 102 -91q54 40 61 94q87 -28 87 -85
q0 -38 -49 -82q-22 -18 -51.5 -38t-41.5 -33q-18 -3 -32 -3q-23 0 -39 11q-15 12 -47.5 42t-58.5 52q-18 16 -18 37zM6 245q0 -87 57 -140t140 -53q102 0 183 74q-9 19 -20 28q-27 -26 -68.5 -42t-80.5 -16t-63 18.5t-24 57.5q0 33 24.5 55.5t59.5 22.5q56 0 110 -40
q14 70 31 130q7 25 24.5 65t22.5 52h-4q-7 -22 -30 -39t-44 -17q-31 0 -74 10t-74 10q-68 0 -119 -54.5t-51 -121.5zM-6 238q0 84 52 140t136 56q34 0 78 -10.5t72 -10.5q13 0 31 12.5t24 30.5q1 2 3 8l1 5h44q-38 -88 -53 -143q-19 -63 -30 -127q-2 -5 -6 -31
q-15 10 -25 18q-48 36 -99 36q-27 0 -45.5 -17t-18.5 -41q0 -56 67 -56q36 0 73.5 15t61.5 38q10 10 13 12l13 -11q10 -9 17 -18q5 -8 10 -19q1 -1 3 -5.5t2 -6.5l-10 -10q-86 -79 -197 -79q-91 0 -154 59t-63 155z" />
    <glyph glyph-name="ccaron" unicode="&#x10d;" horiz-adv-x="419" 
d="M68 590q0 -12 10 -21q60 -49 106 -92q13 -8 26 -8q4 0 22 2q9 10 37 28t53 39q42 38 42 67q0 36 -53 57q-4 -19 -24.5 -46t-55.5 -48q-32 52 -96 94q-29 -18 -43 -30q-24 -22 -24 -42zM57 581q0 30 30 57q24 21 57 39q64 -42 102 -91q54 40 61 94q87 -28 87 -85
q0 -38 -49 -82q-22 -18 -51.5 -38t-41.5 -33q-18 -3 -32 -3q-23 0 -39 11q-15 12 -47.5 42t-58.5 52q-18 16 -18 37zM6 245q0 -87 57 -140t140 -53q102 0 183 74q-9 19 -20 28q-27 -26 -68.5 -42t-80.5 -16t-63 18.5t-24 57.5q0 33 24.5 55.5t59.5 22.5q56 0 110 -40
q14 70 31 130q7 25 24.5 65t22.5 52h-4q-7 -22 -30 -39t-44 -17q-31 0 -74 10t-74 10q-68 0 -119 -54.5t-51 -121.5zM-6 238q0 84 52 140t136 56q34 0 78 -10.5t72 -10.5q13 0 31 12.5t24 30.5q1 2 3 8l1 5h44q-38 -88 -53 -143q-19 -63 -30 -127q-2 -5 -6 -31
q-15 10 -25 18q-48 36 -99 36q-27 0 -45.5 -17t-18.5 -41q0 -56 67 -56q36 0 73.5 15t61.5 38q10 10 13 12l13 -11q10 -9 17 -18q5 -8 10 -19q1 -1 3 -5.5t2 -6.5l-10 -10q-86 -79 -197 -79q-91 0 -154 59t-63 155z" />
    <glyph glyph-name="Dcaron" unicode="&#x10e;" horiz-adv-x="496" 
d="M88 609q0 -12 10 -21q60 -49 106 -92q13 -8 26 -8q4 0 22 2q9 10 37 28t53 39q42 38 42 67q0 36 -53 57q-4 -19 -24.5 -46t-55.5 -48q-32 52 -96 94q-29 -18 -43 -30q-24 -22 -24 -42zM77 600q0 30 30 57q24 21 57 39q64 -42 102 -91q54 40 61 94q87 -28 87 -85
q0 -38 -49 -82q-22 -18 -51.5 -38t-41.5 -33q-18 -3 -32 -3q-23 0 -39 11q-15 12 -47.5 42t-58.5 52q-18 16 -18 37zM163 173q0 28 10 52q26 0 41.5 -13t15.5 -35q0 -19 -19.5 -33.5t-43.5 -16.5q-4 32 -4 46zM15 385q0 -27 3.5 -130.5t3.5 -156.5q0 -50 -3 -83q42 6 79 6
q24 0 71.5 -8.5t89.5 -8.5q96 0 159.5 71t63.5 177q0 80 -56.5 137t-136.5 57q-51 0 -132.5 -21t-132.5 -27q-9 -2 -9 -13zM191 165q0 -11 1 -22q26 11 26 26q0 21 -23 26q-4 -18 -4 -30zM2 377q0 16 5.5 24t21.5 10q50 7 131.5 27.5t136.5 20.5q88 0 150.5 -63t62.5 -152
q0 -113 -69 -190.5t-174 -77.5q-44 0 -91.5 8.5t-69.5 8.5q-36 0 -76 -6l-25 -3l2 24q3 48 3 82q0 52 -4 155.5t-4 131.5z" />
    <glyph glyph-name="dcaron" unicode="&#x10f;" horiz-adv-x="496" 
d="M88 609q0 -12 10 -21q60 -49 106 -92q13 -8 26 -8q4 0 22 2q9 10 37 28t53 39q42 38 42 67q0 36 -53 57q-4 -19 -24.5 -46t-55.5 -48q-32 52 -96 94q-29 -18 -43 -30q-24 -22 -24 -42zM77 600q0 30 30 57q24 21 57 39q64 -42 102 -91q54 40 61 94q87 -28 87 -85
q0 -38 -49 -82q-22 -18 -51.5 -38t-41.5 -33q-18 -3 -32 -3q-23 0 -39 11q-15 12 -47.5 42t-58.5 52q-18 16 -18 37zM163 173q0 28 10 52q26 0 41.5 -13t15.5 -35q0 -19 -19.5 -33.5t-43.5 -16.5q-4 32 -4 46zM15 385q0 -27 3.5 -130.5t3.5 -156.5q0 -50 -3 -83q42 6 79 6
q24 0 71.5 -8.5t89.5 -8.5q96 0 159.5 71t63.5 177q0 80 -56.5 137t-136.5 57q-51 0 -132.5 -21t-132.5 -27q-9 -2 -9 -13zM191 165q0 -11 1 -22q26 11 26 26q0 21 -23 26q-4 -18 -4 -30zM2 377q0 16 5.5 24t21.5 10q50 7 131.5 27.5t136.5 20.5q88 0 150.5 -63t62.5 -152
q0 -113 -69 -190.5t-174 -77.5q-44 0 -91.5 8.5t-69.5 8.5q-36 0 -76 -6l-25 -3l2 24q3 48 3 82q0 52 -4 155.5t-4 131.5z" />
    <glyph glyph-name="Dcroat" unicode="&#x110;" horiz-adv-x="506" 
d="M0 170h34q1 -25 1 -72q0 -41 -6 -83q42 6 79 6q24 0 71.5 -8.5t89.5 -8.5q96 0 159.5 71t63.5 177q0 80 -56.5 137t-136.5 57q-51 0 -130.5 -20.5t-131.5 -27.5q-9 -2 -9 -13q0 -35 4 -159l-32 1v-57zM171 171h47l2 49l-48 2q2 14 11 35q33 0 56 -18t23 -44t-25 -44.5
t-62 -20.5q-2 13 -4 41zM-11 140l1 20v41t1 37l31 -1q0 14 -2 66.5t-2 71.5q0 28 26 32q52 7 131 28t134 21q88 0 150.5 -62.5t62.5 -151.5q0 -113 -69 -190.5t-174 -77.5q-44 0 -91.5 8.5t-69.5 8.5q-36 0 -76 -6l-26 -4l3 26q6 40 6 81q0 3 -0.5 20t-0.5 32h-35z" />
    <glyph glyph-name="dcroat" unicode="&#x111;" horiz-adv-x="506" 
d="M0 170h34q1 -25 1 -72q0 -41 -6 -83q42 6 79 6q24 0 71.5 -8.5t89.5 -8.5q96 0 159.5 71t63.5 177q0 80 -56.5 137t-136.5 57q-51 0 -130.5 -20.5t-131.5 -27.5q-9 -2 -9 -13q0 -35 4 -159l-32 1v-57zM171 171h47l2 49l-48 2q2 14 11 35q33 0 56 -18t23 -44t-25 -44.5
t-62 -20.5q-2 13 -4 41zM-11 140l1 20v41t1 37l31 -1q0 14 -2 66.5t-2 71.5q0 28 26 32q52 7 131 28t134 21q88 0 150.5 -62.5t62.5 -151.5q0 -113 -69 -190.5t-174 -77.5q-44 0 -91.5 8.5t-69.5 8.5q-36 0 -76 -6l-26 -4l3 26q6 40 6 81q0 3 -0.5 20t-0.5 32h-35z" />
    <glyph glyph-name="Emacron" unicode="&#x112;" horiz-adv-x="355" 
d="M19 536q45 3 76 3q18 0 70.5 -4t66.5 -4q64 0 83 19q16 32 16 64q0 31 -11 66q-36 -23 -79 -23q-26 0 -73.5 3.5t-71.5 3.5q-48 0 -72 -17q-5 -63 -5 -111zM9 505v21q0 61 6 124q14 10 22 14.5t25.5 8t43.5 3.5q25 0 73 -4.5t72 -4.5q25 0 41 7t49 29q20 -41 20 -99
q0 -38 -19 -76q-27 -27 -100 -27q-16 0 -68 4t-69 4q-30 0 -75 -3q-2 0 -10.5 -0.5t-10.5 -0.5zM-2 432q0 31 33 31q63 -15 119 -15q73 0 166 7q1 0 4.5 0.5t4.5 0.5q2 -3 3 -3.5t1.5 -1t2.5 -3.5q30 -34 30 -84q0 -33 -15 -81q-1 -2 -4 -13.5t-4 -13.5q-3 1 -11.5 8.5
t-11.5 8.5q-23 18 -60 18h-5.5t-3.5 -0.5t-2 -0.5h-1q18 -24 18 -63q0 -12 -2 -42q0 -1 -0.5 -4t-0.5 -4l-6 -6q32 9 61 35q2 2 9.5 9t9.5 9l12 -24q18 -39 18 -87q0 -55 -9 -84q-1 -2 -2.5 -6.5t-1.5 -6.5l-13 -1q-96 -8 -182 -8q-73 0 -132 4q-2 0 -10.5 0.5t-10.5 0.5
l2 21q3 27 8.5 63.5t8.5 65t3 60.5q0 110 -26 210zM14 429q22 -91 22 -187q0 -40 -3.5 -78t-9.5 -76.5t-7 -48.5q59 -4 131 -4q84 0 180 8q8 28 8 78q0 45 -16 78q-48 -43 -109 -43q-40 0 -76 11q0 9 7 25q26 -11 40 -11q33 0 51 14q2 30 2 40q0 32 -14 51q-43 -11 -71 -11
q-3 11 -3 28q65 16 102 16q40 0 72 -22q14 44 14 75q0 42 -25 71q-93 -7 -167 -7q-33 0 -69.5 5t-41.5 5q-17 0 -17 -17z" />
    <glyph glyph-name="emacron" unicode="&#x113;" horiz-adv-x="355" 
d="M19 536q45 3 76 3q18 0 70.5 -4t66.5 -4q64 0 83 19q16 32 16 64q0 31 -11 66q-36 -23 -79 -23q-26 0 -73.5 3.5t-71.5 3.5q-48 0 -72 -17q-5 -63 -5 -111zM9 505v21q0 61 6 124q14 10 22 14.5t25.5 8t43.5 3.5q25 0 73 -4.5t72 -4.5q25 0 41 7t49 29q20 -41 20 -99
q0 -38 -19 -76q-27 -27 -100 -27q-16 0 -68 4t-69 4q-30 0 -75 -3q-2 0 -10.5 -0.5t-10.5 -0.5zM-2 432q0 31 33 31q63 -15 119 -15q73 0 166 7q1 0 4.5 0.5t4.5 0.5q2 -3 3 -3.5t1.5 -1t2.5 -3.5q30 -34 30 -84q0 -33 -15 -81q-1 -2 -4 -13.5t-4 -13.5q-3 1 -11.5 8.5
t-11.5 8.5q-23 18 -60 18h-5.5t-3.5 -0.5t-2 -0.5h-1q18 -24 18 -63q0 -12 -2 -42q0 -1 -0.5 -4t-0.5 -4l-6 -6q32 9 61 35q2 2 9.5 9t9.5 9l12 -24q18 -39 18 -87q0 -55 -9 -84q-1 -2 -2.5 -6.5t-1.5 -6.5l-13 -1q-96 -8 -182 -8q-73 0 -132 4q-2 0 -10.5 0.5t-10.5 0.5
l2 21q3 27 8.5 63.5t8.5 65t3 60.5q0 110 -26 210zM14 429q22 -91 22 -187q0 -40 -3.5 -78t-9.5 -76.5t-7 -48.5q59 -4 131 -4q84 0 180 8q8 28 8 78q0 45 -16 78q-48 -43 -109 -43q-40 0 -76 11q0 9 7 25q26 -11 40 -11q33 0 51 14q2 30 2 40q0 32 -14 51q-43 -11 -71 -11
q-3 11 -3 28q65 16 102 16q40 0 72 -22q14 44 14 75q0 42 -25 71q-93 -7 -167 -7q-33 0 -69.5 5t-41.5 5q-17 0 -17 -17z" />
    <glyph glyph-name="Ebreve" unicode="&#x114;" horiz-adv-x="355" 
d="M34 614q0 -8 8 -18q71 -78 153 -78q68 0 106 47q30 40 30 66q0 44 -57 55q-2 -24 -18 -53q-14 -24 -44 -24q-32 0 -52 26q-22 27 -44 49q-23 -9 -51 -28q-31 -19 -31 -42zM23 604q0 38 39 62q32 20 67 34q32 -32 56 -62q16 -19 37 -19q18 0 26 14q17 28 17 67
q18 -2 36 -6.5t39 -23.5t21 -49q0 -31 -35 -78q-45 -55 -121 -55q-66 0 -124 43t-58 73zM-2 432q0 31 33 31q63 -15 119 -15q73 0 166 7q1 0 4.5 0.5t4.5 0.5q2 -3 3 -3.5t1.5 -1t2.5 -3.5q30 -34 30 -84q0 -33 -15 -81q-1 -2 -4 -13.5t-4 -13.5q-3 1 -11.5 8.5t-11.5 8.5
q-23 18 -60 18h-5.5t-3.5 -0.5t-2 -0.5h-1q18 -24 18 -63q0 -12 -2 -42q0 -1 -0.5 -4t-0.5 -4l-6 -6q32 9 61 35q2 2 9.5 9t9.5 9l12 -24q18 -39 18 -87q0 -55 -9 -84q-1 -2 -2.5 -6.5t-1.5 -6.5l-13 -1q-96 -8 -182 -8q-73 0 -132 4q-2 0 -10.5 0.5t-10.5 0.5l2 21
q3 27 8.5 63.5t8.5 65t3 60.5q0 110 -26 210zM14 429q22 -91 22 -187q0 -40 -3.5 -78t-9.5 -76.5t-7 -48.5q59 -4 131 -4q84 0 180 8q8 28 8 78q0 45 -16 78q-48 -43 -109 -43q-40 0 -76 11q0 9 7 25q26 -11 40 -11q33 0 51 14q2 30 2 40q0 32 -14 51q-43 -11 -71 -11
q-3 11 -3 28q65 16 102 16q40 0 72 -22q14 44 14 75q0 42 -25 71q-93 -7 -167 -7q-33 0 -69.5 5t-41.5 5q-17 0 -17 -17z" />
    <glyph glyph-name="ebreve" unicode="&#x115;" horiz-adv-x="355" 
d="M34 614q0 -8 8 -18q71 -78 153 -78q68 0 106 47q30 40 30 66q0 44 -57 55q-2 -24 -18 -53q-14 -24 -44 -24q-32 0 -52 26q-22 27 -44 49q-23 -9 -51 -28q-31 -19 -31 -42zM23 604q0 38 39 62q32 20 67 34q32 -32 56 -62q16 -19 37 -19q18 0 26 14q17 28 17 67
q18 -2 36 -6.5t39 -23.5t21 -49q0 -31 -35 -78q-45 -55 -121 -55q-66 0 -124 43t-58 73zM-2 432q0 31 33 31q63 -15 119 -15q73 0 166 7q1 0 4.5 0.5t4.5 0.5q2 -3 3 -3.5t1.5 -1t2.5 -3.5q30 -34 30 -84q0 -33 -15 -81q-1 -2 -4 -13.5t-4 -13.5q-3 1 -11.5 8.5t-11.5 8.5
q-23 18 -60 18h-5.5t-3.5 -0.5t-2 -0.5h-1q18 -24 18 -63q0 -12 -2 -42q0 -1 -0.5 -4t-0.5 -4l-6 -6q32 9 61 35q2 2 9.5 9t9.5 9l12 -24q18 -39 18 -87q0 -55 -9 -84q-1 -2 -2.5 -6.5t-1.5 -6.5l-13 -1q-96 -8 -182 -8q-73 0 -132 4q-2 0 -10.5 0.5t-10.5 0.5l2 21
q3 27 8.5 63.5t8.5 65t3 60.5q0 110 -26 210zM14 429q22 -91 22 -187q0 -40 -3.5 -78t-9.5 -76.5t-7 -48.5q59 -4 131 -4q84 0 180 8q8 28 8 78q0 45 -16 78q-48 -43 -109 -43q-40 0 -76 11q0 9 7 25q26 -11 40 -11q33 0 51 14q2 30 2 40q0 32 -14 51q-43 -11 -71 -11
q-3 11 -3 28q65 16 102 16q40 0 72 -22q14 44 14 75q0 42 -25 71q-93 -7 -167 -7q-33 0 -69.5 5t-41.5 5q-17 0 -17 -17z" />
    <glyph glyph-name="Edotaccent" unicode="&#x116;" horiz-adv-x="355" 
d="M103 557q0 -24 16 -41.5t38 -17.5q38 0 64 22t26 57q0 51 -64 51q-33 0 -56.5 -19.5t-23.5 -51.5zM91 548q0 40 28.5 65.5t69.5 25.5t62.5 -20t21.5 -51q0 -44 -31 -71.5t-77 -27.5q-30 0 -52 23.5t-22 55.5zM-2 432q0 31 33 31q63 -15 119 -15q73 0 166 7q1 0 4.5 0.5
t4.5 0.5q2 -3 3 -3.5t1.5 -1t2.5 -3.5q30 -34 30 -84q0 -33 -15 -81q-1 -2 -4 -13.5t-4 -13.5q-3 1 -11.5 8.5t-11.5 8.5q-23 18 -60 18h-5.5t-3.5 -0.5t-2 -0.5h-1q18 -24 18 -63q0 -12 -2 -42q0 -1 -0.5 -4t-0.5 -4l-6 -6q32 9 61 35q2 2 9.5 9t9.5 9l12 -24
q18 -39 18 -87q0 -55 -9 -84q-1 -2 -2.5 -6.5t-1.5 -6.5l-13 -1q-96 -8 -182 -8q-73 0 -132 4q-2 0 -10.5 0.5t-10.5 0.5l2 21q3 27 8.5 63.5t8.5 65t3 60.5q0 110 -26 210zM14 429q22 -91 22 -187q0 -40 -3.5 -78t-9.5 -76.5t-7 -48.5q59 -4 131 -4q84 0 180 8q8 28 8 78
q0 45 -16 78q-48 -43 -109 -43q-40 0 -76 11q0 9 7 25q26 -11 40 -11q33 0 51 14q2 30 2 40q0 32 -14 51q-43 -11 -71 -11q-3 11 -3 28q65 16 102 16q40 0 72 -22q14 44 14 75q0 42 -25 71q-93 -7 -167 -7q-33 0 -69.5 5t-41.5 5q-17 0 -17 -17z" />
    <glyph glyph-name="edotaccent" unicode="&#x117;" horiz-adv-x="355" 
d="M103 557q0 -24 16 -41.5t38 -17.5q38 0 64 22t26 57q0 51 -64 51q-33 0 -56.5 -19.5t-23.5 -51.5zM91 548q0 40 28.5 65.5t69.5 25.5t62.5 -20t21.5 -51q0 -44 -31 -71.5t-77 -27.5q-30 0 -52 23.5t-22 55.5zM-2 432q0 31 33 31q63 -15 119 -15q73 0 166 7q1 0 4.5 0.5
t4.5 0.5q2 -3 3 -3.5t1.5 -1t2.5 -3.5q30 -34 30 -84q0 -33 -15 -81q-1 -2 -4 -13.5t-4 -13.5q-3 1 -11.5 8.5t-11.5 8.5q-23 18 -60 18h-5.5t-3.5 -0.5t-2 -0.5h-1q18 -24 18 -63q0 -12 -2 -42q0 -1 -0.5 -4t-0.5 -4l-6 -6q32 9 61 35q2 2 9.5 9t9.5 9l12 -24
q18 -39 18 -87q0 -55 -9 -84q-1 -2 -2.5 -6.5t-1.5 -6.5l-13 -1q-96 -8 -182 -8q-73 0 -132 4q-2 0 -10.5 0.5t-10.5 0.5l2 21q3 27 8.5 63.5t8.5 65t3 60.5q0 110 -26 210zM14 429q22 -91 22 -187q0 -40 -3.5 -78t-9.5 -76.5t-7 -48.5q59 -4 131 -4q84 0 180 8q8 28 8 78
q0 45 -16 78q-48 -43 -109 -43q-40 0 -76 11q0 9 7 25q26 -11 40 -11q33 0 51 14q2 30 2 40q0 32 -14 51q-43 -11 -71 -11q-3 11 -3 28q65 16 102 16q40 0 72 -22q14 44 14 75q0 42 -25 71q-93 -7 -167 -7q-33 0 -69.5 5t-41.5 5q-17 0 -17 -17z" />
    <glyph glyph-name="Eogonek" unicode="&#x118;" horiz-adv-x="355" 
d="M14 429q22 -91 22 -187q0 -40 -3.5 -78t-9.5 -76.5t-7 -48.5q59 -4 131 -4q48 0 73 1q-31 -23 -58 -48q-28 -25 -28 -55q0 -31 27 -54t58 -23q46 0 133 17q0 50 -2 67.5t-11 50.5q-27 -9 -38 -9q-19 0 -19 15q0 10 14 24t31 22q8 28 8 78q0 45 -16 78q-48 -43 -109 -43
q-40 0 -76 11q0 9 7 25q26 -11 40 -11q33 0 51 14q2 30 2 40q0 32 -14 51q-43 -11 -71 -11q-3 11 -3 28q65 16 102 16q40 0 72 -22q14 44 14 75q0 42 -25 71q-93 -7 -167 -7q-33 0 -69.5 5t-41.5 5q-17 0 -17 -17zM2 12q3 31 9 73t9.5 75.5t3.5 73.5q0 92 -22 185
q0 39 37 39q7 0 43 -5t68 -5q63 0 175 8q37 -33 37 -92q0 -48 -23 -108q-25 20 -41 27.5t-42 7.5q-2 0 -5.5 -0.5t-6.5 -0.5q18 -24 18 -63q0 -5 -3 -50l-6 -6q16 4 31 13t23.5 16t25.5 24q30 -55 30 -111q0 -67 -11 -92q-21 -6 -38 -26q14 1 25 7q2 1 10.5 4t10.5 4
q1 -2 3.5 -11t2.5 -11q10 -36 12 -54t2 -69v-17q-1 0 -7.5 -1t-8.5 -2q-87 -17 -137 -17q-38 0 -71.5 28t-33.5 69t48 82q-87 0 -147 4z" />
    <glyph glyph-name="eogonek" unicode="&#x119;" horiz-adv-x="355" 
d="M14 429q22 -91 22 -187q0 -40 -3.5 -78t-9.5 -76.5t-7 -48.5q59 -4 131 -4q48 0 73 1q-31 -23 -58 -48q-28 -25 -28 -55q0 -31 27 -54t58 -23q46 0 133 17q0 50 -2 67.5t-11 50.5q-27 -9 -38 -9q-19 0 -19 15q0 10 14 24t31 22q8 28 8 78q0 45 -16 78q-48 -43 -109 -43
q-40 0 -76 11q0 9 7 25q26 -11 40 -11q33 0 51 14q2 30 2 40q0 32 -14 51q-43 -11 -71 -11q-3 11 -3 28q65 16 102 16q40 0 72 -22q14 44 14 75q0 42 -25 71q-93 -7 -167 -7q-33 0 -69.5 5t-41.5 5q-17 0 -17 -17zM2 12q3 31 9 73t9.5 75.5t3.5 73.5q0 92 -22 185
q0 39 37 39q7 0 43 -5t68 -5q63 0 175 8q37 -33 37 -92q0 -48 -23 -108q-25 20 -41 27.5t-42 7.5q-2 0 -5.5 -0.5t-6.5 -0.5q18 -24 18 -63q0 -5 -3 -50l-6 -6q16 4 31 13t23.5 16t25.5 24q30 -55 30 -111q0 -67 -11 -92q-21 -6 -38 -26q14 1 25 7q2 1 10.5 4t10.5 4
q1 -2 3.5 -11t2.5 -11q10 -36 12 -54t2 -69v-17q-1 0 -7.5 -1t-8.5 -2q-87 -17 -137 -17q-38 0 -71.5 28t-33.5 69t48 82q-87 0 -147 4z" />
    <glyph glyph-name="Ecaron" unicode="&#x11a;" horiz-adv-x="355" 
d="M38 609q0 -12 10 -21q60 -49 106 -92q13 -8 26 -8q4 0 22 2q9 10 37 28t53 39q42 38 42 67q0 36 -53 57q-4 -19 -24.5 -46t-55.5 -48q-32 52 -96 94q-29 -18 -43 -30q-24 -22 -24 -42zM27 600q0 30 30 57q24 21 57 39q64 -42 102 -91q54 40 61 94q87 -28 87 -85
q0 -38 -49 -82q-22 -18 -51.5 -38t-41.5 -33q-18 -3 -32 -3q-23 0 -39 11q-15 12 -47.5 42t-58.5 52q-18 16 -18 37zM-2 432q0 31 33 31q63 -15 119 -15q73 0 166 7q1 0 4.5 0.5t4.5 0.5q2 -3 3 -3.5t1.5 -1t2.5 -3.5q30 -34 30 -84q0 -33 -15 -81q-1 -2 -4 -13.5t-4 -13.5
q-3 1 -11.5 8.5t-11.5 8.5q-23 18 -60 18h-5.5t-3.5 -0.5t-2 -0.5h-1q18 -24 18 -63q0 -12 -2 -42q0 -1 -0.5 -4t-0.5 -4l-6 -6q32 9 61 35q2 2 9.5 9t9.5 9l12 -24q18 -39 18 -87q0 -55 -9 -84q-1 -2 -2.5 -6.5t-1.5 -6.5l-13 -1q-96 -8 -182 -8q-73 0 -132 4
q-2 0 -10.5 0.5t-10.5 0.5l2 21q3 27 8.5 63.5t8.5 65t3 60.5q0 110 -26 210zM14 429q22 -91 22 -187q0 -40 -3.5 -78t-9.5 -76.5t-7 -48.5q59 -4 131 -4q84 0 180 8q8 28 8 78q0 45 -16 78q-48 -43 -109 -43q-40 0 -76 11q0 9 7 25q26 -11 40 -11q33 0 51 14q2 30 2 40
q0 32 -14 51q-43 -11 -71 -11q-3 11 -3 28q65 16 102 16q40 0 72 -22q14 44 14 75q0 42 -25 71q-93 -7 -167 -7q-33 0 -69.5 5t-41.5 5q-17 0 -17 -17z" />
    <glyph glyph-name="ecaron" unicode="&#x11b;" horiz-adv-x="355" 
d="M38 609q0 -12 10 -21q60 -49 106 -92q13 -8 26 -8q4 0 22 2q9 10 37 28t53 39q42 38 42 67q0 36 -53 57q-4 -19 -24.5 -46t-55.5 -48q-32 52 -96 94q-29 -18 -43 -30q-24 -22 -24 -42zM27 600q0 30 30 57q24 21 57 39q64 -42 102 -91q54 40 61 94q87 -28 87 -85
q0 -38 -49 -82q-22 -18 -51.5 -38t-41.5 -33q-18 -3 -32 -3q-23 0 -39 11q-15 12 -47.5 42t-58.5 52q-18 16 -18 37zM-2 432q0 31 33 31q63 -15 119 -15q73 0 166 7q1 0 4.5 0.5t4.5 0.5q2 -3 3 -3.5t1.5 -1t2.5 -3.5q30 -34 30 -84q0 -33 -15 -81q-1 -2 -4 -13.5t-4 -13.5
q-3 1 -11.5 8.5t-11.5 8.5q-23 18 -60 18h-5.5t-3.5 -0.5t-2 -0.5h-1q18 -24 18 -63q0 -12 -2 -42q0 -1 -0.5 -4t-0.5 -4l-6 -6q32 9 61 35q2 2 9.5 9t9.5 9l12 -24q18 -39 18 -87q0 -55 -9 -84q-1 -2 -2.5 -6.5t-1.5 -6.5l-13 -1q-96 -8 -182 -8q-73 0 -132 4
q-2 0 -10.5 0.5t-10.5 0.5l2 21q3 27 8.5 63.5t8.5 65t3 60.5q0 110 -26 210zM14 429q22 -91 22 -187q0 -40 -3.5 -78t-9.5 -76.5t-7 -48.5q59 -4 131 -4q84 0 180 8q8 28 8 78q0 45 -16 78q-48 -43 -109 -43q-40 0 -76 11q0 9 7 25q26 -11 40 -11q33 0 51 14q2 30 2 40
q0 32 -14 51q-43 -11 -71 -11q-3 11 -3 28q65 16 102 16q40 0 72 -22q14 44 14 75q0 42 -25 71q-93 -7 -167 -7q-33 0 -69.5 5t-41.5 5q-17 0 -17 -17z" />
    <glyph glyph-name="Gcircumflex" unicode="&#x11c;" horiz-adv-x="480" 
d="M99 622q0 -20 24 -42q18 -16 43 -31q64 42 96 94q35 -21 56 -48t25 -46q52 21 52 58q0 28 -42 66q-24 21 -52 39.5t-37 28.5q-18 2 -22 2q-13 0 -26 -8q-47 -44 -107 -93q-10 -9 -10 -20zM89 612q0 21 17 36q26 22 58.5 52t47.5 42q16 11 40 11q13 0 31 -3
q13 -13 42.5 -33.5t50.5 -38.5q49 -44 49 -81q0 -57 -87 -85q-7 54 -61 94q-40 -52 -100 -91q-34 19 -57 40q-31 28 -31 57zM0 268q0 -91 48 -158t132 -67q62 0 100 17q-12 -22 -18 -44q42 6 97 6q9 0 29 -1.5t28 -1.5q17 0 27 16q11 18 13 43q1 25 1 68q0 71 -11 148
q-49 -40 -108 -40q-18 0 -48 10t-48 10q-7 0 -11.5 -4t-6 -12.5t-2 -15t-0.5 -19.5q17 -1 29.5 -6.5t12.5 -12.5q0 -16 -24 -30t-54 -14q-36 0 -55 26t-19 72q0 30 27 48t61 18q28 0 60.5 -14t54.5 -14t33.5 13.5t19.5 38.5q14 44 31 111t23 88q-33 -67 -84 -67
q-34 0 -82.5 14.5t-74.5 14.5q-82 0 -131.5 -73t-49.5 -168zM140 250q0 -78 54 -78q37 0 54 19q-12 4 -19 4l-19 1q0 4 -0.5 17t-0.5 16q0 35 15 48q10 9 26 9h4l3 -1q-26 11 -49 11q-28 0 -48 -14t-20 -32zM-12 260q0 110 52 185.5t149 75.5q32 0 80.5 -14.5t76.5 -14.5
q36 0 68 62l37 -14q-50 -185 -57 -206q-22 -65 -71 -66q7 -2 23 -2q50 0 95 36l27 21l5 -34q12 -84 12 -151q0 -19 -2 -69q-2 -31 -15 -53q-16 -25 -44 -25q-9 0 -29 1.5t-28 1.5q-55 0 -94 -6l-32 -5l9 31q2 4 2 6q-28 -5 -64 -5q-95 0 -147.5 74t-52.5 171z" />
    <glyph glyph-name="gcircumflex" unicode="&#x11d;" horiz-adv-x="480" 
d="M99 622q0 -20 24 -42q18 -16 43 -31q64 42 96 94q35 -21 56 -48t25 -46q52 21 52 58q0 28 -42 66q-24 21 -52 39.5t-37 28.5q-18 2 -22 2q-13 0 -26 -8q-47 -44 -107 -93q-10 -9 -10 -20zM89 612q0 21 17 36q26 22 58.5 52t47.5 42q16 11 40 11q13 0 31 -3
q13 -13 42.5 -33.5t50.5 -38.5q49 -44 49 -81q0 -57 -87 -85q-7 54 -61 94q-40 -52 -100 -91q-34 19 -57 40q-31 28 -31 57zM0 268q0 -91 48 -158t132 -67q62 0 100 17q-12 -22 -18 -44q42 6 97 6q9 0 29 -1.5t28 -1.5q17 0 27 16q11 18 13 43q1 25 1 68q0 71 -11 148
q-49 -40 -108 -40q-18 0 -48 10t-48 10q-7 0 -11.5 -4t-6 -12.5t-2 -15t-0.5 -19.5q17 -1 29.5 -6.5t12.5 -12.5q0 -16 -24 -30t-54 -14q-36 0 -55 26t-19 72q0 30 27 48t61 18q28 0 60.5 -14t54.5 -14t33.5 13.5t19.5 38.5q14 44 31 111t23 88q-33 -67 -84 -67
q-34 0 -82.5 14.5t-74.5 14.5q-82 0 -131.5 -73t-49.5 -168zM140 250q0 -78 54 -78q37 0 54 19q-12 4 -19 4l-19 1q0 4 -0.5 17t-0.5 16q0 35 15 48q10 9 26 9h4l3 -1q-26 11 -49 11q-28 0 -48 -14t-20 -32zM-12 260q0 110 52 185.5t149 75.5q32 0 80.5 -14.5t76.5 -14.5
q36 0 68 62l37 -14q-50 -185 -57 -206q-22 -65 -71 -66q7 -2 23 -2q50 0 95 36l27 21l5 -34q12 -84 12 -151q0 -19 -2 -69q-2 -31 -15 -53q-16 -25 -44 -25q-9 0 -29 1.5t-28 1.5q-55 0 -94 -6l-32 -5l9 31q2 4 2 6q-28 -5 -64 -5q-95 0 -147.5 74t-52.5 171z" />
    <glyph glyph-name="Gbreve" unicode="&#x11e;" horiz-adv-x="480" 
d="M104 664q0 -8 8 -18q71 -78 153 -78q68 0 106 47q30 40 30 66q0 44 -57 55q-2 -24 -18 -53q-14 -24 -44 -24q-32 0 -52 26q-22 27 -44 49q-23 -9 -51 -28q-31 -19 -31 -42zM93 654q0 38 39 62q32 20 67 34q32 -32 56 -62q16 -19 37 -19q18 0 26 14q17 28 17 67
q18 -2 36 -6.5t39 -23.5t21 -49q0 -31 -35 -78q-45 -55 -121 -55q-66 0 -124 43t-58 73zM0 268q0 -91 48 -158t132 -67q62 0 100 17q-12 -22 -18 -44q42 6 97 6q9 0 29 -1.5t28 -1.5q17 0 27 16q11 18 13 43q1 25 1 68q0 71 -11 148q-49 -40 -108 -40q-18 0 -48 10t-48 10
q-7 0 -11.5 -4t-6 -12.5t-2 -15t-0.5 -19.5q17 -1 29.5 -6.5t12.5 -12.5q0 -16 -24 -30t-54 -14q-36 0 -55 26t-19 72q0 30 27 48t61 18q28 0 60.5 -14t54.5 -14t33.5 13.5t19.5 38.5q14 44 31 111t23 88q-33 -67 -84 -67q-34 0 -82.5 14.5t-74.5 14.5q-82 0 -131.5 -73
t-49.5 -168zM140 250q0 -78 54 -78q37 0 54 19q-12 4 -19 4l-19 1q0 4 -0.5 17t-0.5 16q0 35 15 48q10 9 26 9h4l3 -1q-26 11 -49 11q-28 0 -48 -14t-20 -32zM-12 260q0 110 52 185.5t149 75.5q32 0 80.5 -14.5t76.5 -14.5q36 0 68 62l37 -14q-50 -185 -57 -206
q-22 -65 -71 -66q7 -2 23 -2q50 0 95 36l27 21l5 -34q12 -84 12 -151q0 -19 -2 -69q-2 -31 -15 -53q-16 -25 -44 -25q-9 0 -29 1.5t-28 1.5q-55 0 -94 -6l-32 -5l9 31q2 4 2 6q-28 -5 -64 -5q-95 0 -147.5 74t-52.5 171z" />
    <glyph glyph-name="gbreve" unicode="&#x11f;" horiz-adv-x="480" 
d="M104 664q0 -8 8 -18q71 -78 153 -78q68 0 106 47q30 40 30 66q0 44 -57 55q-2 -24 -18 -53q-14 -24 -44 -24q-32 0 -52 26q-22 27 -44 49q-23 -9 -51 -28q-31 -19 -31 -42zM93 654q0 38 39 62q32 20 67 34q32 -32 56 -62q16 -19 37 -19q18 0 26 14q17 28 17 67
q18 -2 36 -6.5t39 -23.5t21 -49q0 -31 -35 -78q-45 -55 -121 -55q-66 0 -124 43t-58 73zM0 268q0 -91 48 -158t132 -67q62 0 100 17q-12 -22 -18 -44q42 6 97 6q9 0 29 -1.5t28 -1.5q17 0 27 16q11 18 13 43q1 25 1 68q0 71 -11 148q-49 -40 -108 -40q-18 0 -48 10t-48 10
q-7 0 -11.5 -4t-6 -12.5t-2 -15t-0.5 -19.5q17 -1 29.5 -6.5t12.5 -12.5q0 -16 -24 -30t-54 -14q-36 0 -55 26t-19 72q0 30 27 48t61 18q28 0 60.5 -14t54.5 -14t33.5 13.5t19.5 38.5q14 44 31 111t23 88q-33 -67 -84 -67q-34 0 -82.5 14.5t-74.5 14.5q-82 0 -131.5 -73
t-49.5 -168zM140 250q0 -78 54 -78q37 0 54 19q-12 4 -19 4l-19 1q0 4 -0.5 17t-0.5 16q0 35 15 48q10 9 26 9h4l3 -1q-26 11 -49 11q-28 0 -48 -14t-20 -32zM-12 260q0 110 52 185.5t149 75.5q32 0 80.5 -14.5t76.5 -14.5q36 0 68 62l37 -14q-50 -185 -57 -206
q-22 -65 -71 -66q7 -2 23 -2q50 0 95 36l27 21l5 -34q12 -84 12 -151q0 -19 -2 -69q-2 -31 -15 -53q-16 -25 -44 -25q-9 0 -29 1.5t-28 1.5q-55 0 -94 -6l-32 -5l9 31q2 4 2 6q-28 -5 -64 -5q-95 0 -147.5 74t-52.5 171z" />
    <glyph glyph-name="Gcommaaccent" unicode="&#x122;" horiz-adv-x="480" 
d="M168 -65q0 -25 18 -37q8 3 11 3q12 0 12 -14q0 -21 -28 -47q8 -4 19 -4q31 0 50 17q32 38 32 80q0 57 -53 57q-25 0 -43 -16t-18 -39zM156 -176q34 33 42 46l-9 -3q-31 22 -31 58q0 35 22.5 55t58.5 20t54.5 -21t18.5 -56q0 -48 -37 -94q-26 -23 -65 -23q-18 0 -54 18z
M0 268q0 -91 48 -158t132 -67q62 0 100 17q-12 -22 -18 -44q42 6 97 6q9 0 29 -1.5t28 -1.5q17 0 27 16q11 18 13 43q1 25 1 68q0 71 -11 148q-49 -40 -108 -40q-18 0 -48 10t-48 10q-7 0 -11.5 -4t-6 -12.5t-2 -15t-0.5 -19.5q17 -1 29.5 -6.5t12.5 -12.5q0 -16 -24 -30
t-54 -14q-36 0 -55 26t-19 72q0 30 27 48t61 18q28 0 60.5 -14t54.5 -14t33.5 13.5t19.5 38.5q14 44 31 111t23 88q-33 -67 -84 -67q-34 0 -82.5 14.5t-74.5 14.5q-82 0 -131.5 -73t-49.5 -168zM140 250q0 -78 54 -78q37 0 54 19q-12 4 -19 4l-19 1q0 4 -0.5 17t-0.5 16
q0 35 15 48q10 9 26 9h4l3 -1q-26 11 -49 11q-28 0 -48 -14t-20 -32zM-12 260q0 110 52 185.5t149 75.5q32 0 80.5 -14.5t76.5 -14.5q36 0 68 62l37 -14q-50 -185 -57 -206q-22 -65 -71 -66q7 -2 23 -2q50 0 95 36l27 21l5 -34q12 -84 12 -151q0 -19 -2 -69q-2 -31 -15 -53
q-16 -25 -44 -25q-9 0 -29 1.5t-28 1.5q-55 0 -94 -6l-32 -5l9 31q2 4 2 6q-28 -5 -64 -5q-95 0 -147.5 74t-52.5 171z" />
    <glyph glyph-name="gcommaaccent" unicode="&#x123;" horiz-adv-x="480" 
d="M168 -65q0 -25 18 -37q8 3 11 3q12 0 12 -14q0 -21 -28 -47q8 -4 19 -4q31 0 50 17q32 38 32 80q0 57 -53 57q-25 0 -43 -16t-18 -39zM156 -176q34 33 42 46l-9 -3q-31 22 -31 58q0 35 22.5 55t58.5 20t54.5 -21t18.5 -56q0 -48 -37 -94q-26 -23 -65 -23q-18 0 -54 18z
M0 268q0 -91 48 -158t132 -67q62 0 100 17q-12 -22 -18 -44q42 6 97 6q9 0 29 -1.5t28 -1.5q17 0 27 16q11 18 13 43q1 25 1 68q0 71 -11 148q-49 -40 -108 -40q-18 0 -48 10t-48 10q-7 0 -11.5 -4t-6 -12.5t-2 -15t-0.5 -19.5q17 -1 29.5 -6.5t12.5 -12.5q0 -16 -24 -30
t-54 -14q-36 0 -55 26t-19 72q0 30 27 48t61 18q28 0 60.5 -14t54.5 -14t33.5 13.5t19.5 38.5q14 44 31 111t23 88q-33 -67 -84 -67q-34 0 -82.5 14.5t-74.5 14.5q-82 0 -131.5 -73t-49.5 -168zM140 250q0 -78 54 -78q37 0 54 19q-12 4 -19 4l-19 1q0 4 -0.5 17t-0.5 16
q0 35 15 48q10 9 26 9h4l3 -1q-26 11 -49 11q-28 0 -48 -14t-20 -32zM-12 260q0 110 52 185.5t149 75.5q32 0 80.5 -14.5t76.5 -14.5q36 0 68 62l37 -14q-50 -185 -57 -206q-22 -65 -71 -66q7 -2 23 -2q50 0 95 36l27 21l5 -34q12 -84 12 -151q0 -19 -2 -69q-2 -31 -15 -53
q-16 -25 -44 -25q-9 0 -29 1.5t-28 1.5q-55 0 -94 -6l-32 -5l9 31q2 4 2 6q-28 -5 -64 -5q-95 0 -147.5 74t-52.5 171z" />
    <glyph glyph-name="Hcircumflex" unicode="&#x124;" horiz-adv-x="467" 
d="M115 582q0 -20 24 -42q18 -16 43 -31q64 42 96 94q35 -21 56 -48t25 -46q52 21 52 58q0 28 -42 66q-24 21 -52 39.5t-37 28.5q-18 2 -22 2q-13 0 -26 -8q-47 -44 -107 -93q-10 -9 -10 -20zM105 572q0 21 17 36q26 22 58.5 52t47.5 42q16 11 40 11q13 0 31 -3
q13 -13 42.5 -33.5t50.5 -38.5q49 -44 49 -81q0 -57 -87 -85q-7 54 -61 94q-40 -52 -100 -91q-34 19 -57 40q-31 28 -31 57zM16 38q12 -4 26.5 -6t49 -5.5t67.5 -8.5q11 65 12 112q108 3 112 3q-2 -15 -11.5 -43t-9.5 -42q0 -16 11 -25.5t27 -9.5q63 0 130 -12q0 6 -7 79.5
t-7 115.5q0 123 34 248q-68 22 -120 22q-21 0 -34 -13t-13 -35v-178q-14 -1 -45 -5.5t-43 -4.5q-9 0 -18 5t-9 12q0 43 31 214q-84 0 -180 -37q11 -85 11 -202q0 -100 -14 -184zM2 17l3 16q13 78 13 181q0 109 -12 199q0 1 -1 9t-1 9l15 5q103 40 188 40h24q0 -7 -4 -27
q-30 -163 -31 -206q3 -1 7 -1q8 0 36 4t32 4q0 25 -0.5 78.5t-0.5 83.5t18 48.5t48 18.5q54 0 128 -24q6 -3 18 -6q0 -2 -2 -9.5t-3 -9.5q-33 -119 -33 -242q0 -40 7 -113.5t7 -81.5v-24q-10 2 -24 4q-65 12 -126 12q-24 0 -41 15.5t-17 39.5q0 15 15 63q-23 -1 -66 -1
q-1 -20 -13 -95q0 -2 -1 -10t-2 -10q-12 3 -19 3q-27 4 -55 7t-41.5 4.5t-26.5 4t-23 5.5z" />
    <glyph glyph-name="hcircumflex" unicode="&#x125;" horiz-adv-x="467" 
d="M115 582q0 -20 24 -42q18 -16 43 -31q64 42 96 94q35 -21 56 -48t25 -46q52 21 52 58q0 28 -42 66q-24 21 -52 39.5t-37 28.5q-18 2 -22 2q-13 0 -26 -8q-47 -44 -107 -93q-10 -9 -10 -20zM105 572q0 21 17 36q26 22 58.5 52t47.5 42q16 11 40 11q13 0 31 -3
q13 -13 42.5 -33.5t50.5 -38.5q49 -44 49 -81q0 -57 -87 -85q-7 54 -61 94q-40 -52 -100 -91q-34 19 -57 40q-31 28 -31 57zM16 38q12 -4 26.5 -6t49 -5.5t67.5 -8.5q11 65 12 112q108 3 112 3q-2 -15 -11.5 -43t-9.5 -42q0 -16 11 -25.5t27 -9.5q63 0 130 -12q0 6 -7 79.5
t-7 115.5q0 123 34 248q-68 22 -120 22q-21 0 -34 -13t-13 -35v-178q-14 -1 -45 -5.5t-43 -4.5q-9 0 -18 5t-9 12q0 43 31 214q-84 0 -180 -37q11 -85 11 -202q0 -100 -14 -184zM2 17l3 16q13 78 13 181q0 109 -12 199q0 1 -1 9t-1 9l15 5q103 40 188 40h24q0 -7 -4 -27
q-30 -163 -31 -206q3 -1 7 -1q8 0 36 4t32 4q0 25 -0.5 78.5t-0.5 83.5t18 48.5t48 18.5q54 0 128 -24q6 -3 18 -6q0 -2 -2 -9.5t-3 -9.5q-33 -119 -33 -242q0 -40 7 -113.5t7 -81.5v-24q-10 2 -24 4q-65 12 -126 12q-24 0 -41 15.5t-17 39.5q0 15 15 63q-23 -1 -66 -1
q-1 -20 -13 -95q0 -2 -1 -10t-2 -10q-12 3 -19 3q-27 4 -55 7t-41.5 4.5t-26.5 4t-23 5.5z" />
    <glyph glyph-name="Itilde" unicode="&#x128;" horiz-adv-x="223" 
d="M8 385q34 -43 34 -162q0 -23 -6.5 -68t-12 -79.5t-5.5 -35.5q19 3 40.5 3t50.5 -1.5t47 -1.5q16 0 26 9.5t10 25.5q0 4 -10 46.5t-10 53.5q0 29 7 84t7 99q0 22 -13.5 35t-34.5 13q-37 0 -130 -21zM-12 378l1 13q68 17 81 19q40 7 81 7q27 -2 45 -20.5t18 -46.5
q0 -45 -7 -100.5t-7 -82.5q0 -6 10 -47.5t10 -52.5q0 -25 -16.5 -40t-39.5 -15q-19 0 -49 1.5t-50.5 1.5t-37.5 -3l-20 -3l-2 20q-1 6 12 82.5t13 103.5q0 48 -6.5 80.5t-13.5 47t-22 35.5zM-43 474q39 34 86 34q18 0 69.5 -23t76.5 -23q43 0 72.5 34.5t29.5 84.5
q0 43 -11 71q-33 -37 -82 -37q-32 0 -81.5 21.5t-71.5 21.5q-29 0 -47 -13.5t-26.5 -41t-11.5 -56.5t-3 -73zM-55 416v45q0 52 3.5 84.5t14 63.5t33.5 45.5t59 14.5q27 0 76 -22t77 -22q38 0 66 31q3 4 11.5 13.5t10.5 11.5q1 -3 6.5 -16t6.5 -16q12 -32 12 -78
q0 -57 -35 -98t-87 -41q-28 0 -80.5 23t-65.5 23q-20 0 -41.5 -9.5t-31.5 -19.5q-21 -21 -35 -33z" />
    <glyph glyph-name="itilde" unicode="&#x129;" horiz-adv-x="223" 
d="M8 385q34 -43 34 -162q0 -23 -6.5 -68t-12 -79.5t-5.5 -35.5q19 3 40.5 3t50.5 -1.5t47 -1.5q16 0 26 9.5t10 25.5q0 4 -10 46.5t-10 53.5q0 29 7 84t7 99q0 22 -13.5 35t-34.5 13q-37 0 -130 -21zM-12 378l1 13q68 17 81 19q40 7 81 7q27 -2 45 -20.5t18 -46.5
q0 -45 -7 -100.5t-7 -82.5q0 -6 10 -47.5t10 -52.5q0 -25 -16.5 -40t-39.5 -15q-19 0 -49 1.5t-50.5 1.5t-37.5 -3l-20 -3l-2 20q-1 6 12 82.5t13 103.5q0 48 -6.5 80.5t-13.5 47t-22 35.5zM-43 474q39 34 86 34q18 0 69.5 -23t76.5 -23q43 0 72.5 34.5t29.5 84.5
q0 43 -11 71q-33 -37 -82 -37q-32 0 -81.5 21.5t-71.5 21.5q-29 0 -47 -13.5t-26.5 -41t-11.5 -56.5t-3 -73zM-55 416v45q0 52 3.5 84.5t14 63.5t33.5 45.5t59 14.5q27 0 76 -22t77 -22q38 0 66 31q3 4 11.5 13.5t10.5 11.5q1 -3 6.5 -16t6.5 -16q12 -32 12 -78
q0 -57 -35 -98t-87 -41q-28 0 -80.5 23t-65.5 23q-20 0 -41.5 -9.5t-31.5 -19.5q-21 -21 -35 -33z" />
    <glyph glyph-name="Imacron" unicode="&#x12a;" horiz-adv-x="223" 
d="M8 385q34 -43 34 -162q0 -23 -6.5 -68t-12 -79.5t-5.5 -35.5q19 3 40.5 3t50.5 -1.5t47 -1.5q16 0 26 9.5t10 25.5q0 4 -10 46.5t-10 53.5q0 29 7 84t7 99q0 22 -13.5 35t-34.5 13q-37 0 -130 -21zM-12 378l1 13q68 17 81 19q40 7 81 7q27 -2 45 -20.5t18 -46.5
q0 -45 -7 -100.5t-7 -82.5q0 -6 10 -47.5t10 -52.5q0 -25 -16.5 -40t-39.5 -15q-19 0 -49 1.5t-50.5 1.5t-37.5 -3l-20 -3l-2 20q-1 6 12 82.5t13 103.5q0 48 -6.5 80.5t-13.5 47t-22 35.5zM-54 500q45 3 76 3q18 0 70.5 -4t66.5 -4q64 0 83 19q16 32 16 64q0 31 -11 66
q-36 -23 -79 -23q-26 0 -73.5 3.5t-71.5 3.5q-48 0 -72 -17q-5 -63 -5 -111zM-64 469v21q0 61 6 124q14 10 22 14.5t25.5 8t43.5 3.5q25 0 73 -4.5t72 -4.5q25 0 41 7t49 29q20 -41 20 -99q0 -38 -19 -76q-27 -27 -100 -27q-16 0 -68 4t-69 4q-30 0 -75 -3q-2 0 -10.5 -0.5
t-10.5 -0.5z" />
    <glyph glyph-name="imacron" unicode="&#x12b;" horiz-adv-x="223" 
d="M8 385q34 -43 34 -162q0 -23 -6.5 -68t-12 -79.5t-5.5 -35.5q19 3 40.5 3t50.5 -1.5t47 -1.5q16 0 26 9.5t10 25.5q0 4 -10 46.5t-10 53.5q0 29 7 84t7 99q0 22 -13.5 35t-34.5 13q-37 0 -130 -21zM-12 378l1 13q68 17 81 19q40 7 81 7q27 -2 45 -20.5t18 -46.5
q0 -45 -7 -100.5t-7 -82.5q0 -6 10 -47.5t10 -52.5q0 -25 -16.5 -40t-39.5 -15q-19 0 -49 1.5t-50.5 1.5t-37.5 -3l-20 -3l-2 20q-1 6 12 82.5t13 103.5q0 48 -6.5 80.5t-13.5 47t-22 35.5zM-54 500q45 3 76 3q18 0 70.5 -4t66.5 -4q64 0 83 19q16 32 16 64q0 31 -11 66
q-36 -23 -79 -23q-26 0 -73.5 3.5t-71.5 3.5q-48 0 -72 -17q-5 -63 -5 -111zM-64 469v21q0 61 6 124q14 10 22 14.5t25.5 8t43.5 3.5q25 0 73 -4.5t72 -4.5q25 0 41 7t49 29q20 -41 20 -99q0 -38 -19 -76q-27 -27 -100 -27q-16 0 -68 4t-69 4q-30 0 -75 -3q-2 0 -10.5 -0.5
t-10.5 -0.5z" />
    <glyph glyph-name="Ibreve" unicode="&#x12c;" horiz-adv-x="223" 
d="M8 385q34 -43 34 -162q0 -23 -6.5 -68t-12 -79.5t-5.5 -35.5q19 3 40.5 3t50.5 -1.5t47 -1.5q16 0 26 9.5t10 25.5q0 4 -10 46.5t-10 53.5q0 29 7 84t7 99q0 22 -13.5 35t-34.5 13q-37 0 -130 -21zM-12 378l1 13q68 17 81 19q40 7 81 7q27 -2 45 -20.5t18 -46.5
q0 -45 -7 -100.5t-7 -82.5q0 -6 10 -47.5t10 -52.5q0 -25 -16.5 -40t-39.5 -15q-19 0 -49 1.5t-50.5 1.5t-37.5 -3l-20 -3l-2 20q-1 6 12 82.5t13 103.5q0 48 -6.5 80.5t-13.5 47t-22 35.5zM-48 551q0 -8 8 -18q71 -78 153 -78q68 0 106 47q30 40 30 66q0 44 -57 55
q-2 -24 -18 -53q-14 -24 -44 -24q-32 0 -52 26q-22 27 -44 49q-23 -9 -51 -28q-31 -19 -31 -42zM-59 541q0 38 39 62q32 20 67 34q32 -32 56 -62q16 -19 37 -19q18 0 26 14q17 28 17 67q18 -2 36 -6.5t39 -23.5t21 -49q0 -31 -35 -78q-45 -55 -121 -55q-66 0 -124 43t-58 73
z" />
    <glyph glyph-name="ibreve" unicode="&#x12d;" horiz-adv-x="223" 
d="M8 385q34 -43 34 -162q0 -23 -6.5 -68t-12 -79.5t-5.5 -35.5q19 3 40.5 3t50.5 -1.5t47 -1.5q16 0 26 9.5t10 25.5q0 4 -10 46.5t-10 53.5q0 29 7 84t7 99q0 22 -13.5 35t-34.5 13q-37 0 -130 -21zM-12 378l1 13q68 17 81 19q40 7 81 7q27 -2 45 -20.5t18 -46.5
q0 -45 -7 -100.5t-7 -82.5q0 -6 10 -47.5t10 -52.5q0 -25 -16.5 -40t-39.5 -15q-19 0 -49 1.5t-50.5 1.5t-37.5 -3l-20 -3l-2 20q-1 6 12 82.5t13 103.5q0 48 -6.5 80.5t-13.5 47t-22 35.5zM-48 551q0 -8 8 -18q71 -78 153 -78q68 0 106 47q30 40 30 66q0 44 -57 55
q-2 -24 -18 -53q-14 -24 -44 -24q-32 0 -52 26q-22 27 -44 49q-23 -9 -51 -28q-31 -19 -31 -42zM-59 541q0 38 39 62q32 20 67 34q32 -32 56 -62q16 -19 37 -19q18 0 26 14q17 28 17 67q18 -2 36 -6.5t39 -23.5t21 -49q0 -31 -35 -78q-45 -55 -121 -55q-66 0 -124 43t-58 73
z" />
    <glyph glyph-name="Iogonek" unicode="&#x12e;" horiz-adv-x="223" 
d="M34 492q0 -24 16 -41.5t38 -17.5q38 0 64 22t26 57q0 51 -64 51q-33 0 -56.5 -19.5t-23.5 -51.5zM-26 -76q0 41 33 71q5 5 19 17l-19 -3l-2 20q-1 6 12 82.5t13 103.5q0 48 -6.5 80.5t-13.5 47t-22 35.5l1 13q68 17 81 19q-21 9 -34.5 29.5t-13.5 44.5q0 40 29 65.5
t71 25.5q41 0 62.5 -20t21.5 -51q0 -60 -55 -87q27 -2 45 -20.5t18 -46.5q0 -45 -7 -100.5t-7 -82.5q0 -6 10 -47.5t10 -52.5q0 -33 -27 -48q-14 -10 -27 -25q14 1 25 7l21 8l6 -23q10 -37 12 -58t2 -80q-97 -21 -153 -21q-38 0 -71.5 28t-33.5 69zM-16 -66q0 -31 27 -54
t58 -23q46 0 133 17q0 50 -2 67.5t-11 50.5q-27 -9 -38 -9q-19 0 -19 15q0 8 5 14q10 15 36 32q8 4 13 10q6 9 6 21q0 4 -10 46.5t-10 53.5q0 29 7 84t7 99q0 22 -13.5 35t-34.5 13q-37 0 -130 -21q34 -43 34 -162q0 -23 -6.5 -68t-12 -79.5t-5.5 -35.5q21 3 42 3h11
q-10 -9 -33 -29q-5 -4 -13.5 -13t-12.5 -12q-28 -25 -28 -55z" />
    <glyph glyph-name="iogonek" unicode="&#x12f;" horiz-adv-x="223" 
d="M34 492q0 -24 16 -41.5t38 -17.5q38 0 64 22t26 57q0 51 -64 51q-33 0 -56.5 -19.5t-23.5 -51.5zM-26 -76q0 41 33 71q5 5 19 17l-19 -3l-2 20q-1 6 12 82.5t13 103.5q0 48 -6.5 80.5t-13.5 47t-22 35.5l1 13q68 17 81 19q-21 9 -34.5 29.5t-13.5 44.5q0 40 29 65.5
t71 25.5q41 0 62.5 -20t21.5 -51q0 -60 -55 -87q27 -2 45 -20.5t18 -46.5q0 -45 -7 -100.5t-7 -82.5q0 -6 10 -47.5t10 -52.5q0 -33 -27 -48q-14 -10 -27 -25q14 1 25 7l21 8l6 -23q10 -37 12 -58t2 -80q-97 -21 -153 -21q-38 0 -71.5 28t-33.5 69zM-16 -66q0 -31 27 -54
t58 -23q46 0 133 17q0 50 -2 67.5t-11 50.5q-27 -9 -38 -9q-19 0 -19 15q0 8 5 14q10 15 36 32q8 4 13 10q6 9 6 21q0 4 -10 46.5t-10 53.5q0 29 7 84t7 99q0 22 -13.5 35t-34.5 13q-37 0 -130 -21q34 -43 34 -162q0 -23 -6.5 -68t-12 -79.5t-5.5 -35.5q21 3 42 3h11
q-10 -9 -33 -29q-5 -4 -13.5 -13t-12.5 -12q-28 -25 -28 -55z" />
    <glyph glyph-name="dotlessi" unicode="&#x131;" horiz-adv-x="223" 
d="M8 385q34 -43 34 -162q0 -23 -6.5 -68t-12 -79.5t-5.5 -35.5q19 3 40.5 3t50.5 -1.5t47 -1.5q16 0 26 9.5t10 25.5q0 4 -10 46.5t-10 53.5q0 29 7 84t7 99q0 22 -13.5 35t-34.5 13q-37 0 -130 -21zM-12 378l1 13q68 17 81 19q40 7 81 7q27 -2 45 -20.5t18 -46.5
q0 -45 -7 -100.5t-7 -82.5q0 -6 10 -47.5t10 -52.5q0 -25 -16.5 -40t-39.5 -15q-19 0 -49 1.5t-50.5 1.5t-37.5 -3l-20 -3l-2 20q-1 6 12 82.5t13 103.5q0 48 -6.5 80.5t-13.5 47t-22 35.5z" />
    <glyph glyph-name="Jcircumflex" unicode="&#x134;" horiz-adv-x="339" 
d="M39 652q0 -20 24 -42q18 -16 43 -31q64 42 96 94q35 -21 56 -48t25 -46q52 21 52 58q0 28 -42 66q-24 21 -52 39.5t-37 28.5q-18 2 -22 2q-13 0 -26 -8q-47 -44 -107 -93q-10 -9 -10 -20zM29 642q0 21 17 36q26 22 58.5 52t47.5 42q16 11 40 11q13 0 31 -3
q13 -13 42.5 -33.5t50.5 -38.5q49 -44 49 -81q0 -57 -87 -85q-7 54 -61 94q-40 -52 -100 -91q-34 19 -57 40q-31 28 -31 57zM8 419q0 -41 12 -73q36 23 84 23q24 0 62 -7q-12 -72 -12 -186q0 -18 -15 -29.5t-33 -11.5q-24 0 -70 23l-6 -139q17 -3 44 -10t49.5 -11.5
t44.5 -4.5q67 0 114.5 41t47.5 99q0 38 -6 122t-6 109q0 93 11 152q-26 0 -103.5 10.5t-113.5 10.5q-63 0 -84 -29q-20 -26 -20 -89zM-5 411q0 70 24 102q27 37 101 37q37 0 114.5 -11t102.5 -11h24q-1 -3 -3 -11.5t-2 -11.5q-10 -58 -10 -149q0 -23 6 -107.5t6 -123.5
q0 -67 -54 -113.5t-128 -46.5q-24 0 -45 4t-49.5 11t-47.5 11l-17 4l9 187l28 -14q40 -21 60 -21q11 0 19.5 6t8.5 15q0 103 9 170q-21 3 -39 3q-56 0 -96 -31q-21 50 -21 101z" />
    <glyph glyph-name="jcircumflex" unicode="&#x135;" horiz-adv-x="339" 
d="M39 652q0 -20 24 -42q18 -16 43 -31q64 42 96 94q35 -21 56 -48t25 -46q52 21 52 58q0 28 -42 66q-24 21 -52 39.5t-37 28.5q-18 2 -22 2q-13 0 -26 -8q-47 -44 -107 -93q-10 -9 -10 -20zM29 642q0 21 17 36q26 22 58.5 52t47.5 42q16 11 40 11q13 0 31 -3
q13 -13 42.5 -33.5t50.5 -38.5q49 -44 49 -81q0 -57 -87 -85q-7 54 -61 94q-40 -52 -100 -91q-34 19 -57 40q-31 28 -31 57zM8 419q0 -41 12 -73q36 23 84 23q24 0 62 -7q-12 -72 -12 -186q0 -18 -15 -29.5t-33 -11.5q-24 0 -70 23l-6 -139q17 -3 44 -10t49.5 -11.5
t44.5 -4.5q67 0 114.5 41t47.5 99q0 38 -6 122t-6 109q0 93 11 152q-26 0 -103.5 10.5t-113.5 10.5q-63 0 -84 -29q-20 -26 -20 -89zM-5 411q0 70 24 102q27 37 101 37q37 0 114.5 -11t102.5 -11h24q-1 -3 -3 -11.5t-2 -11.5q-10 -58 -10 -149q0 -23 6 -107.5t6 -123.5
q0 -67 -54 -113.5t-128 -46.5q-24 0 -45 4t-49.5 11t-47.5 11l-17 4l9 187l28 -14q40 -21 60 -21q11 0 19.5 6t8.5 15q0 103 9 170q-21 3 -39 3q-56 0 -96 -31q-21 50 -21 101z" />
    <glyph glyph-name="Kcommaaccent" unicode="&#x136;" horiz-adv-x="420" 
d="M140 -84q0 -25 18 -37q8 3 11 3q12 0 12 -14q0 -21 -28 -47q8 -4 19 -4q31 0 50 17q32 38 32 80q0 57 -53 57q-25 0 -43 -16t-18 -39zM128 -195q34 33 42 46l-9 -3q-31 22 -31 58q0 35 22.5 55t58.5 20t54.5 -21t18.5 -56q0 -48 -37 -94q-26 -23 -65 -23q-18 0 -54 18z
M6 481q40 -88 40 -208q0 -39 -6 -72.5t-16.5 -75t-15.5 -70.5q41 -23 86 -23q51 0 66 34l-2 125q7 -8 46 -45.5t58 -67.5q34 -51 34 -94q3 2 28 17.5t39.5 26t29.5 27t15 29.5q0 22 -16 41q-40 50 -126 134q67 30 108 73q34 35 34 78q0 30 -30 48.5t-56 18.5q-22 0 -50 -32
q-21 -23 -38.5 -45.5t-40 -52t-37.5 -48.5q6 20 6 34q0 5 0.5 57t-0.5 57q0 19 -16 28q-25 12 -66 12q-30 0 -74 -6zM-13 490q70 10 101 10q100 0 101 -61q1 -40 1 -80q42 56 73 91q35 40 67 40t69 -24t37 -64q0 -29 -9 -48.5t-31 -43.5q-37 -40 -88 -65q65 -63 107 -115
q21 -26 21 -54q0 -14 -7 -27t-23.5 -27.5t-31 -24t-44 -28.5t-46.5 -31v38q0 36 -31 83q-17 26 -65 74q1 -45 0 -79l-1 -2q-1 -3 -2 -5.5t-3.5 -6.5t-6 -8t-8 -8t-11 -7.5t-14 -6.5t-18 -4.5t-22.5 -1.5q-52 0 -111 33q7 42 18.5 85t17 73.5t5.5 69.5q0 125 -45 225z" />
    <glyph glyph-name="kcommaaccent" unicode="&#x137;" horiz-adv-x="420" 
d="M140 -84q0 -25 18 -37q8 3 11 3q12 0 12 -14q0 -21 -28 -47q8 -4 19 -4q31 0 50 17q32 38 32 80q0 57 -53 57q-25 0 -43 -16t-18 -39zM128 -195q34 33 42 46l-9 -3q-31 22 -31 58q0 35 22.5 55t58.5 20t54.5 -21t18.5 -56q0 -48 -37 -94q-26 -23 -65 -23q-18 0 -54 18z
M6 481q40 -88 40 -208q0 -39 -6 -72.5t-16.5 -75t-15.5 -70.5q41 -23 86 -23q51 0 66 34l-2 125q7 -8 46 -45.5t58 -67.5q34 -51 34 -94q3 2 28 17.5t39.5 26t29.5 27t15 29.5q0 22 -16 41q-40 50 -126 134q67 30 108 73q34 35 34 78q0 30 -30 48.5t-56 18.5q-22 0 -50 -32
q-21 -23 -38.5 -45.5t-40 -52t-37.5 -48.5q6 20 6 34q0 5 0.5 57t-0.5 57q0 19 -16 28q-25 12 -66 12q-30 0 -74 -6zM-13 490q70 10 101 10q100 0 101 -61q1 -40 1 -80q42 56 73 91q35 40 67 40t69 -24t37 -64q0 -29 -9 -48.5t-31 -43.5q-37 -40 -88 -65q65 -63 107 -115
q21 -26 21 -54q0 -14 -7 -27t-23.5 -27.5t-31 -24t-44 -28.5t-46.5 -31v38q0 36 -31 83q-17 26 -65 74q1 -45 0 -79l-1 -2q-1 -3 -2 -5.5t-3.5 -6.5t-6 -8t-8 -8t-11 -7.5t-14 -6.5t-18 -4.5t-22.5 -1.5q-52 0 -111 33q7 42 18.5 85t17 73.5t5.5 69.5q0 125 -45 225z" />
    <glyph glyph-name="Lacute" unicode="&#x139;" horiz-adv-x="352" 
d="M60 564q82 0 106 13q29 16 81.5 86.5t55.5 72.5h-79q-37 0 -65 -11t-44 -25.5t-28 -40.5t-16.5 -45t-10.5 -50zM44 536q16 89 32 121q43 91 156 91h116q-2 -1 -32 -45t-68.5 -91t-63.5 -60q-30 -16 -116 -16h-24zM14 473q0 -22 9 -84t9 -110q0 -83 -8 -150t-8 -87
q42 0 105 -10t102 -11q91 0 105 36q16 42 16 103q0 39 -11 67q-36 -23 -84 -23q-31 0 -62 7q3 30 5 54t2.5 48.5t0.5 37.5t-1.5 41t-2 36t-3.5 44.5t-4 47.5q-41 7 -100 7q-28 0 -49 -13.5t-21 -40.5zM2 467q0 35 24 54t64 19q57 0 105 -8q10 0 16 -2q0 -2 0.5 -8.5
t0.5 -7.5q9 -108 10 -143t-5 -150q30 -4 40 -4q38 0 71 22q14 10 21 14q1 -2 11 -27q12 -34 12 -74q0 -66 -17 -110q-19 -49 -124 -49q-42 1 -104.5 11t-102.5 10h-20v20q0 24 8 89.5t8 147.5q0 48 -9 109.5t-9 86.5z" />
    <glyph glyph-name="lacute" unicode="&#x13a;" horiz-adv-x="352" 
d="M60 564q82 0 106 13q29 16 81.5 86.5t55.5 72.5h-79q-37 0 -65 -11t-44 -25.5t-28 -40.5t-16.5 -45t-10.5 -50zM44 536q16 89 32 121q43 91 156 91h116q-2 -1 -32 -45t-68.5 -91t-63.5 -60q-30 -16 -116 -16h-24zM14 473q0 -22 9 -84t9 -110q0 -83 -8 -150t-8 -87
q42 0 105 -10t102 -11q91 0 105 36q16 42 16 103q0 39 -11 67q-36 -23 -84 -23q-31 0 -62 7q3 30 5 54t2.5 48.5t0.5 37.5t-1.5 41t-2 36t-3.5 44.5t-4 47.5q-41 7 -100 7q-28 0 -49 -13.5t-21 -40.5zM2 467q0 35 24 54t64 19q57 0 105 -8q10 0 16 -2q0 -2 0.5 -8.5
t0.5 -7.5q9 -108 10 -143t-5 -150q30 -4 40 -4q38 0 71 22q14 10 21 14q1 -2 11 -27q12 -34 12 -74q0 -66 -17 -110q-19 -49 -124 -49q-42 1 -104.5 11t-102.5 10h-20v20q0 24 8 89.5t8 147.5q0 48 -9 109.5t-9 86.5z" />
    <glyph glyph-name="Lcommaaccent" unicode="&#x13b;" horiz-adv-x="352" 
d="M119 -84q0 -25 18 -37q8 3 11 3q12 0 12 -14q0 -21 -28 -47q8 -4 19 -4q31 0 50 17q32 38 32 80q0 57 -53 57q-25 0 -43 -16t-18 -39zM107 -195q34 33 42 46l-9 -3q-31 22 -31 58q0 35 22.5 55t58.5 20t54.5 -21t18.5 -56q0 -48 -37 -94q-26 -23 -65 -23q-18 0 -54 18z
M14 473q0 -22 9 -84t9 -110q0 -83 -8 -150t-8 -87q42 0 105 -10t102 -11q91 0 105 36q16 42 16 103q0 39 -11 67q-36 -23 -84 -23q-31 0 -62 7q3 30 5 54t2.5 48.5t0.5 37.5t-1.5 41t-2 36t-3.5 44.5t-4 47.5q-41 7 -100 7q-28 0 -49 -13.5t-21 -40.5zM2 467q0 35 24 54
t64 19q57 0 105 -8q10 0 16 -2q0 -2 0.5 -8.5t0.5 -7.5q9 -108 10 -143t-5 -150q30 -4 40 -4q38 0 71 22q14 10 21 14q1 -2 11 -27q12 -34 12 -74q0 -66 -17 -110q-19 -49 -124 -49q-42 1 -104.5 11t-102.5 10h-20v20q0 24 8 89.5t8 147.5q0 48 -9 109.5t-9 86.5z" />
    <glyph glyph-name="lcommaaccent" unicode="&#x13c;" horiz-adv-x="352" 
d="M119 -84q0 -25 18 -37q8 3 11 3q12 0 12 -14q0 -21 -28 -47q8 -4 19 -4q31 0 50 17q32 38 32 80q0 57 -53 57q-25 0 -43 -16t-18 -39zM107 -195q34 33 42 46l-9 -3q-31 22 -31 58q0 35 22.5 55t58.5 20t54.5 -21t18.5 -56q0 -48 -37 -94q-26 -23 -65 -23q-18 0 -54 18z
M14 473q0 -22 9 -84t9 -110q0 -83 -8 -150t-8 -87q42 0 105 -10t102 -11q91 0 105 36q16 42 16 103q0 39 -11 67q-36 -23 -84 -23q-31 0 -62 7q3 30 5 54t2.5 48.5t0.5 37.5t-1.5 41t-2 36t-3.5 44.5t-4 47.5q-41 7 -100 7q-28 0 -49 -13.5t-21 -40.5zM2 467q0 35 24 54
t64 19q57 0 105 -8q10 0 16 -2q0 -2 0.5 -8.5t0.5 -7.5q9 -108 10 -143t-5 -150q30 -4 40 -4q38 0 71 22q14 10 21 14q1 -2 11 -27q12 -34 12 -74q0 -66 -17 -110q-19 -49 -124 -49q-42 1 -104.5 11t-102.5 10h-20v20q0 24 8 89.5t8 147.5q0 48 -9 109.5t-9 86.5z" />
    <glyph glyph-name="Lcaron" unicode="&#x13d;" horiz-adv-x="391" 
d="M223 546q0 -34 26 -51q8 4 15 4q17 0 17 -19q0 -18 -13.5 -44.5t-28.5 -41.5q12 -5 25 -5q19 0 38.5 7t28.5 15q17 27 31.5 68t14.5 76q0 76 -70 76q-34 0 -59 -23t-25 -62zM213 536q0 50 29.5 77.5t74.5 27.5t67.5 -26.5t22.5 -69.5q0 -78 -51 -157q-33 -29 -82 -29
q-31 0 -60 19q52 47 56 90q-6 0 -13 -6q-44 25 -44 74zM14 473q0 -22 9 -84t9 -110q0 -83 -8 -150t-8 -87q42 0 105 -10t102 -11q91 0 105 36q16 42 16 103q0 39 -11 67q-36 -23 -84 -23q-31 0 -62 7q3 30 5 54t2.5 48.5t0.5 37.5t-1.5 41t-2 36t-3.5 44.5t-4 47.5
q-41 7 -100 7q-28 0 -49 -13.5t-21 -40.5zM2 467q0 35 24 54t64 19q57 0 105 -8q10 0 16 -2q0 -2 0.5 -8.5t0.5 -7.5q9 -108 10 -143t-5 -150q30 -4 40 -4q38 0 71 22q14 10 21 14q1 -2 11 -27q12 -34 12 -74q0 -66 -17 -110q-19 -49 -124 -49q-42 1 -104.5 11t-102.5 10
h-20v20q0 24 8 89.5t8 147.5q0 48 -9 109.5t-9 86.5z" />
    <glyph glyph-name="lcaron" unicode="&#x13e;" horiz-adv-x="391" 
d="M223 546q0 -34 26 -51q8 4 15 4q17 0 17 -19q0 -18 -13.5 -44.5t-28.5 -41.5q12 -5 25 -5q19 0 38.5 7t28.5 15q17 27 31.5 68t14.5 76q0 76 -70 76q-34 0 -59 -23t-25 -62zM213 536q0 50 29.5 77.5t74.5 27.5t67.5 -26.5t22.5 -69.5q0 -78 -51 -157q-33 -29 -82 -29
q-31 0 -60 19q52 47 56 90q-6 0 -13 -6q-44 25 -44 74zM14 473q0 -22 9 -84t9 -110q0 -83 -8 -150t-8 -87q42 0 105 -10t102 -11q91 0 105 36q16 42 16 103q0 39 -11 67q-36 -23 -84 -23q-31 0 -62 7q3 30 5 54t2.5 48.5t0.5 37.5t-1.5 41t-2 36t-3.5 44.5t-4 47.5
q-41 7 -100 7q-28 0 -49 -13.5t-21 -40.5zM2 467q0 35 24 54t64 19q57 0 105 -8q10 0 16 -2q0 -2 0.5 -8.5t0.5 -7.5q9 -108 10 -143t-5 -150q30 -4 40 -4q38 0 71 22q14 10 21 14q1 -2 11 -27q12 -34 12 -74q0 -66 -17 -110q-19 -49 -124 -49q-42 1 -104.5 11t-102.5 10
h-20v20q0 24 8 89.5t8 147.5q0 48 -9 109.5t-9 86.5z" />
    <glyph glyph-name="Lslash" unicode="&#x141;" horiz-adv-x="387" 
d="M2 163q0 103 6 146q18 14 39 25q-2 18 -8.5 62.5t-6.5 68.5q0 33 25.5 53.5t64.5 20.5q66 0 119 -9l9 -111q60 27 97 53q21 -46 21 -102q0 -48 -19 -96q-31 -31 -88 -56q20 -2 26 -2q50 0 94 35q21 -51 21 -99q0 -66 -17 -110q-11 -27 -49 -38t-75 -11q-46 1 -104.5 11
t-122.5 10q0 34 2 57t5 48.5t5 46.5q-2 0 -17.5 -1t-26.5 -2zM14 192q30 2 46 4q-2 -39 -8 -84.5t-6 -69.5q42 0 105 -10t102 -11q91 0 105 36q16 42 16 103q0 39 -11 67q-36 -23 -84 -23q-31 0 -62 7q0 4 0.5 11.5t1.5 11.5q74 28 105 59q16 40 16 85q0 43 -11 71
q-36 -24 -105 -52q-1 16 -2.5 34.5t-4 44.5t-3.5 44q-41 7 -100 7q-28 0 -49 -13.5t-21 -40.5q0 -23 7 -70.5t9 -72.5q-26 -13 -41 -24q-5 -62 -5 -114z" />
    <glyph glyph-name="lslash" unicode="&#x142;" horiz-adv-x="387" 
d="M2 163q0 103 6 146q18 14 39 25q-2 18 -8.5 62.5t-6.5 68.5q0 33 25.5 53.5t64.5 20.5q66 0 119 -9l9 -111q60 27 97 53q21 -46 21 -102q0 -48 -19 -96q-31 -31 -88 -56q20 -2 26 -2q50 0 94 35q21 -51 21 -99q0 -66 -17 -110q-11 -27 -49 -38t-75 -11q-46 1 -104.5 11
t-122.5 10q0 34 2 57t5 48.5t5 46.5q-2 0 -17.5 -1t-26.5 -2zM14 192q30 2 46 4q-2 -39 -8 -84.5t-6 -69.5q42 0 105 -10t102 -11q91 0 105 36q16 42 16 103q0 39 -11 67q-36 -23 -84 -23q-31 0 -62 7q0 4 0.5 11.5t1.5 11.5q74 28 105 59q16 40 16 85q0 43 -11 71
q-36 -24 -105 -52q-1 16 -2.5 34.5t-4 44.5t-3.5 44q-41 7 -100 7q-28 0 -49 -13.5t-21 -40.5q0 -23 7 -70.5t9 -72.5q-26 -13 -41 -24q-5 -62 -5 -114z" />
    <glyph glyph-name="Nacute" unicode="&#x143;" horiz-adv-x="526" 
d="M13 40q30 -20 68 -20q33 0 58 14q16 61 16 142q0 30 -5 58q61 -22 124.5 -112.5t72.5 -163.5q20 -6 65 -6q24 0 56 15q16 29 26.5 122.5t13.5 172.5l2 78q0 39 -5 109q-32 32 -97 32q-19 0 -51 -5q19 -52 19 -110q0 -59 -12 -154q-137 251 -316 251q-31 0 -31 -16
q0 -42 12 -102.5t12 -104.5q0 -82 -28 -200zM39 242zM39 242zM190 507q84 0 106 12q29 16 81.5 86.5t55.5 72.5l-79 1q-37 0 -65 -11t-44 -25.5t-28 -40.5t-16.5 -45t-10.5 -50zM174 479q16 89 32 121q43 91 156 91q5 0 57 -0.5t59 -0.5q-2 -1 -32 -45t-68.5 -91t-63.5 -60
q-28 -15 -116 -15h-24zM-2 23l3 14q28 115 28 195q0 41 -12 102.5t-12 104.5q0 36 51 36q169 0 303 -210q5 46 5 93q0 54 -18 104q-1 2 -4 11l-4 12q3 1 12 2t12 1q33 5 54 5q73 0 111 -38l5 -5q0 -1 0.5 -3.5t0.5 -4.5q5 -70 5 -110q0 -61 -11 -199.5t-34 -182.5l-3 -7
q-1 0 -3.5 -0.5t-3.5 -1.5q-36 -17 -63 -17q-48 0 -71 7l-1 1q-1 0 -4 1t-7 2q0 1 -1 6t-1 7q-7 55 -53.5 130t-99.5 112q0 -4 0.5 -11t0.5 -11q0 -88 -17 -148q0 -1 -1 -4t-1 -4q-1 0 -3.5 -1.5t-3.5 -2.5q-30 -16 -68 -16q-43 0 -79 23zM49 232zM49 232z" />
    <glyph glyph-name="nacute" unicode="&#x144;" horiz-adv-x="526" 
d="M13 40q30 -20 68 -20q33 0 58 14q16 61 16 142q0 30 -5 58q61 -22 124.5 -112.5t72.5 -163.5q20 -6 65 -6q24 0 56 15q16 29 26.5 122.5t13.5 172.5l2 78q0 39 -5 109q-32 32 -97 32q-19 0 -51 -5q19 -52 19 -110q0 -59 -12 -154q-137 251 -316 251q-31 0 -31 -16
q0 -42 12 -102.5t12 -104.5q0 -82 -28 -200zM39 242zM39 242zM190 507q84 0 106 12q29 16 81.5 86.5t55.5 72.5l-79 1q-37 0 -65 -11t-44 -25.5t-28 -40.5t-16.5 -45t-10.5 -50zM174 479q16 89 32 121q43 91 156 91q5 0 57 -0.5t59 -0.5q-2 -1 -32 -45t-68.5 -91t-63.5 -60
q-28 -15 -116 -15h-24zM-2 23l3 14q28 115 28 195q0 41 -12 102.5t-12 104.5q0 36 51 36q169 0 303 -210q5 46 5 93q0 54 -18 104q-1 2 -4 11l-4 12q3 1 12 2t12 1q33 5 54 5q73 0 111 -38l5 -5q0 -1 0.5 -3.5t0.5 -4.5q5 -70 5 -110q0 -61 -11 -199.5t-34 -182.5l-3 -7
q-1 0 -3.5 -0.5t-3.5 -1.5q-36 -17 -63 -17q-48 0 -71 7l-1 1q-1 0 -4 1t-7 2q0 1 -1 6t-1 7q-7 55 -53.5 130t-99.5 112q0 -4 0.5 -11t0.5 -11q0 -88 -17 -148q0 -1 -1 -4t-1 -4q-1 0 -3.5 -1.5t-3.5 -2.5q-30 -16 -68 -16q-43 0 -79 23zM49 232zM49 232z" />
    <glyph glyph-name="Ncommaaccent" unicode="&#x145;" horiz-adv-x="526" 
d="M174 -65q0 -25 18 -37q8 3 11 3q12 0 12 -14q0 -21 -28 -47q8 -4 19 -4q31 0 50 17q32 38 32 80q0 57 -53 57q-25 0 -43 -16t-18 -39zM162 -176q34 33 42 46l-9 -3q-31 22 -31 58q0 35 22.5 55t58.5 20t54.5 -21t18.5 -56q0 -48 -37 -94q-26 -23 -65 -23q-18 0 -54 18z
M13 40q30 -20 68 -20q33 0 58 14q16 61 16 142q0 30 -5 58q61 -22 124.5 -112.5t72.5 -163.5q20 -6 65 -6q24 0 56 15q16 29 26.5 152.5t13.5 232.5l2 108q0 58 -5 128q-1 1 -5.5 6.5t-6.5 8t-7.5 7.5t-9.5 7.5t-10.5 6.5t-13 6t-15 3.5t-17.5 1.5t-63 -9q24 -43 27 -159
t-20 -255q-137 251 -316 251q-31 0 -31 -16q0 -42 12 -102.5t12 -104.5q0 -82 -28 -200zM-3 23l3 14q28 115 28 195q0 41 -12 102.5t-12 104.5q0 20 10.5 28.5t40.5 8.5q170 0 305 -213q11 92 13.5 159t-6 109.5t-13 57.5t-16.5 41q45 17 91 17q10 0 19.5 -1.5t18 -5
t15.5 -6.5t13.5 -8t11 -9t9.5 -9.5t7 -8t5 -7.5l4 -4q6 -81 6 -136q0 -44 -2 -128t-14 -214.5t-31 -166.5q-44 -19 -71 -19q-48 0 -83 11q-9 79 -59.5 151t-95.5 104q0 -4 0.5 -11t0.5 -11q0 -86 -19 -156q-37 -20 -75 -20q-43 0 -79 22z" />
    <glyph glyph-name="ncommaaccent" unicode="&#x146;" horiz-adv-x="526" 
d="M174 -65q0 -25 18 -37q8 3 11 3q12 0 12 -14q0 -21 -28 -47q8 -4 19 -4q31 0 50 17q32 38 32 80q0 57 -53 57q-25 0 -43 -16t-18 -39zM162 -176q34 33 42 46l-9 -3q-31 22 -31 58q0 35 22.5 55t58.5 20t54.5 -21t18.5 -56q0 -48 -37 -94q-26 -23 -65 -23q-18 0 -54 18z
M13 40q30 -20 68 -20q33 0 58 14q16 61 16 142q0 30 -5 58q61 -22 124.5 -112.5t72.5 -163.5q20 -6 65 -6q24 0 56 15q16 29 26.5 152.5t13.5 232.5l2 108q0 58 -5 128q-1 1 -5.5 6.5t-6.5 8t-7.5 7.5t-9.5 7.5t-10.5 6.5t-13 6t-15 3.5t-17.5 1.5t-63 -9q24 -43 27 -159
t-20 -255q-137 251 -316 251q-31 0 -31 -16q0 -42 12 -102.5t12 -104.5q0 -82 -28 -200zM-3 23l3 14q28 115 28 195q0 41 -12 102.5t-12 104.5q0 20 10.5 28.5t40.5 8.5q170 0 305 -213q11 92 13.5 159t-6 109.5t-13 57.5t-16.5 41q45 17 91 17q10 0 19.5 -1.5t18 -5
t15.5 -6.5t13.5 -8t11 -9t9.5 -9.5t7 -8t5 -7.5l4 -4q6 -81 6 -136q0 -44 -2 -128t-14 -214.5t-31 -166.5q-44 -19 -71 -19q-48 0 -83 11q-9 79 -59.5 151t-95.5 104q0 -4 0.5 -11t0.5 -11q0 -86 -19 -156q-37 -20 -75 -20q-43 0 -79 22z" />
    <glyph glyph-name="Ncaron" unicode="&#x147;" horiz-adv-x="526" 
d="M13 40q30 -20 68 -20q33 0 58 14q16 61 16 142q0 30 -5 58q61 -22 124.5 -112.5t72.5 -163.5q20 -6 65 -6q24 0 56 15q16 29 26.5 122.5t13.5 172.5l2 78q0 39 -5 109q-32 32 -97 32q-19 0 -51 -5q19 -52 19 -110q0 -59 -12 -154q-137 251 -316 251q-31 0 -31 -16
q0 -42 12 -102.5t12 -104.5q0 -82 -28 -200zM-3 24q31 112 31 208q0 41 -12 103t-12 105q0 36 51 36q169 0 303 -210q5 46 5 92q0 38 -4.5 60t-21.5 68q56 8 78 8q70 0 113 -43q6 -96 6 -118q0 -32 -2 -92t-13 -161t-30 -136q-38 -19 -71 -19q-47 0 -82 11q-9 79 -59.5 151
t-95.5 104q0 -3 0.5 -11t0.5 -11q0 -89 -19 -156q-37 -21 -75 -21q-21 0 -39 5t-26.5 10.5zM107 619q0 -12 10 -21q60 -49 106 -92q13 -8 26 -8q4 0 22 2q9 10 37 28t53 39q42 38 42 67q0 36 -53 57q-4 -19 -24.5 -46t-55.5 -48q-32 52 -96 94q-29 -18 -43 -30
q-24 -22 -24 -42zM96 610q0 30 30 57q24 21 57 39q64 -42 102 -91q54 40 61 94q87 -28 87 -85q0 -38 -49 -82q-22 -18 -51.5 -38t-41.5 -33q-18 -3 -32 -3q-23 0 -39 11q-15 12 -47.5 42t-58.5 52q-18 16 -18 37z" />
    <glyph glyph-name="ncaron" unicode="&#x148;" horiz-adv-x="526" 
d="M13 40q30 -20 68 -20q33 0 58 14q16 61 16 142q0 30 -5 58q61 -22 124.5 -112.5t72.5 -163.5q20 -6 65 -6q24 0 56 15q16 29 26.5 122.5t13.5 172.5l2 78q0 39 -5 109q-32 32 -97 32q-19 0 -51 -5q19 -52 19 -110q0 -59 -12 -154q-137 251 -316 251q-31 0 -31 -16
q0 -42 12 -102.5t12 -104.5q0 -82 -28 -200zM-3 24q31 112 31 208q0 41 -12 103t-12 105q0 36 51 36q169 0 303 -210q5 46 5 92q0 38 -4.5 60t-21.5 68q56 8 78 8q70 0 113 -43q6 -96 6 -118q0 -32 -2 -92t-13 -161t-30 -136q-38 -19 -71 -19q-47 0 -82 11q-9 79 -59.5 151
t-95.5 104q0 -3 0.5 -11t0.5 -11q0 -89 -19 -156q-37 -21 -75 -21q-21 0 -39 5t-26.5 10.5zM107 619q0 -12 10 -21q60 -49 106 -92q13 -8 26 -8q4 0 22 2q9 10 37 28t53 39q42 38 42 67q0 36 -53 57q-4 -19 -24.5 -46t-55.5 -48q-32 52 -96 94q-29 -18 -43 -30
q-24 -22 -24 -42zM96 610q0 30 30 57q24 21 57 39q64 -42 102 -91q54 40 61 94q87 -28 87 -85q0 -38 -49 -82q-22 -18 -51.5 -38t-41.5 -33q-18 -3 -32 -3q-23 0 -39 11q-15 12 -47.5 42t-58.5 52q-18 16 -18 37z" />
    <glyph glyph-name="Omacron" unicode="&#x14c;" horiz-adv-x="372" 
d="M28 426q45 3 76 3q18 0 70.5 -4t66.5 -4q64 0 83 19q16 32 16 64q0 31 -11 66q-36 -23 -79 -23q-26 0 -73.5 3.5t-71.5 3.5q-48 0 -72 -17q-5 -63 -5 -111zM18 395v21q0 61 6 124q14 10 22 14.5t25.5 8t43.5 3.5q25 0 73 -4.5t72 -4.5q25 0 41 7t49 29q20 -41 20 -99
q0 -38 -19 -76q-27 -27 -100 -27q-16 0 -68 4t-69 4q-30 0 -75 -3q-2 0 -10.5 -0.5t-10.5 -0.5zM72 132q0 14 9.5 24t23.5 10t24 -6t10 -16q0 -13 -8.5 -22.5t-21.5 -9.5q-15 0 -26 6t-11 14zM4 190q0 -102 55 -130l-12 -6q15 -20 44 -32t58 -12q93 0 151 44.5t58 121.5
q0 64 -62 110t-149 46q-52 0 -91.5 -40.5t-51.5 -101.5zM100 128q8 -4 17 -4q10 0 10 10q-4 4 -14 4q-11 0 -13 -10zM-8 182v2v2q14 73 57.5 115.5t105.5 42.5q94 0 162.5 -50.5t68.5 -125.5q0 -84 -62.5 -135t-166.5 -51q-32 0 -65.5 13.5t-52.5 38.5q-15 20 -16 21
q1 0 2.5 0.5t2.5 1.5q-36 41 -36 125z" />
    <glyph glyph-name="omacron" unicode="&#x14d;" horiz-adv-x="372" 
d="M28 426q45 3 76 3q18 0 70.5 -4t66.5 -4q64 0 83 19q16 32 16 64q0 31 -11 66q-36 -23 -79 -23q-26 0 -73.5 3.5t-71.5 3.5q-48 0 -72 -17q-5 -63 -5 -111zM18 395v21q0 61 6 124q14 10 22 14.5t25.5 8t43.5 3.5q25 0 73 -4.5t72 -4.5q25 0 41 7t49 29q20 -41 20 -99
q0 -38 -19 -76q-27 -27 -100 -27q-16 0 -68 4t-69 4q-30 0 -75 -3q-2 0 -10.5 -0.5t-10.5 -0.5zM72 132q0 14 9.5 24t23.5 10t24 -6t10 -16q0 -13 -8.5 -22.5t-21.5 -9.5q-15 0 -26 6t-11 14zM4 190q0 -102 55 -130l-12 -6q15 -20 44 -32t58 -12q93 0 151 44.5t58 121.5
q0 64 -62 110t-149 46q-52 0 -91.5 -40.5t-51.5 -101.5zM100 128q8 -4 17 -4q10 0 10 10q-4 4 -14 4q-11 0 -13 -10zM-8 182v2v2q14 73 57.5 115.5t105.5 42.5q94 0 162.5 -50.5t68.5 -125.5q0 -84 -62.5 -135t-166.5 -51q-32 0 -65.5 13.5t-52.5 38.5q-15 20 -16 21
q1 0 2.5 0.5t2.5 1.5q-36 41 -36 125z" />
    <glyph glyph-name="Obreve" unicode="&#x14e;" horiz-adv-x="372" 
d="M43 504q0 -8 8 -18q71 -78 153 -78q68 0 106 47q30 40 30 66q0 44 -57 55q-2 -24 -18 -53q-14 -24 -44 -24q-32 0 -52 26q-22 27 -44 49q-23 -9 -51 -28q-31 -19 -31 -42zM32 494q0 38 39 62q32 20 67 34q32 -32 56 -62q16 -19 37 -19q18 0 26 14q17 28 17 67
q18 -2 36 -6.5t39 -23.5t21 -49q0 -31 -35 -78q-45 -55 -121 -55q-66 0 -124 43t-58 73zM72 132q0 14 9.5 24t23.5 10t24 -6t10 -16q0 -13 -8.5 -22.5t-21.5 -9.5q-15 0 -26 6t-11 14zM4 190q0 -102 55 -130l-12 -6q15 -20 44 -32t58 -12q93 0 151 44.5t58 121.5
q0 64 -62 110t-149 46q-52 0 -91.5 -40.5t-51.5 -101.5zM100 128q8 -4 17 -4q10 0 10 10q-4 4 -14 4q-11 0 -13 -10zM-8 182v2v2q14 73 57.5 115.5t105.5 42.5q94 0 162.5 -50.5t68.5 -125.5q0 -84 -62.5 -135t-166.5 -51q-32 0 -65.5 13.5t-52.5 38.5q-15 20 -16 21
q1 0 2.5 0.5t2.5 1.5q-36 41 -36 125z" />
    <glyph glyph-name="obreve" unicode="&#x14f;" horiz-adv-x="372" 
d="M43 504q0 -8 8 -18q71 -78 153 -78q68 0 106 47q30 40 30 66q0 44 -57 55q-2 -24 -18 -53q-14 -24 -44 -24q-32 0 -52 26q-22 27 -44 49q-23 -9 -51 -28q-31 -19 -31 -42zM32 494q0 38 39 62q32 20 67 34q32 -32 56 -62q16 -19 37 -19q18 0 26 14q17 28 17 67
q18 -2 36 -6.5t39 -23.5t21 -49q0 -31 -35 -78q-45 -55 -121 -55q-66 0 -124 43t-58 73zM72 132q0 14 9.5 24t23.5 10t24 -6t10 -16q0 -13 -8.5 -22.5t-21.5 -9.5q-15 0 -26 6t-11 14zM4 190q0 -102 55 -130l-12 -6q15 -20 44 -32t58 -12q93 0 151 44.5t58 121.5
q0 64 -62 110t-149 46q-52 0 -91.5 -40.5t-51.5 -101.5zM100 128q8 -4 17 -4q10 0 10 10q-4 4 -14 4q-11 0 -13 -10zM-8 182v2v2q14 73 57.5 115.5t105.5 42.5q94 0 162.5 -50.5t68.5 -125.5q0 -84 -62.5 -135t-166.5 -51q-32 0 -65.5 13.5t-52.5 38.5q-15 20 -16 21
q1 0 2.5 0.5t2.5 1.5q-36 41 -36 125z" />
    <glyph glyph-name="Ohungarumlaut" unicode="&#x150;" horiz-adv-x="372" 
d="M-5 399q82 0 106 13q29 16 81.5 86.5t55.5 72.5h-79q-37 0 -65 -11t-44 -25.5t-28 -40.5t-16.5 -45t-10.5 -50zM-21 371q16 89 32 121q43 91 156 91h116q-2 -1 -32 -45t-68.5 -91t-63.5 -60q-30 -16 -116 -16h-24zM191 387q82 0 106 13q29 16 81.5 86.5t55.5 72.5h-79
q-37 0 -65 -11t-44 -25.5t-28 -40.5t-16.5 -45t-10.5 -50zM175 359q16 89 32 121q43 91 156 91h116q-2 -1 -32 -45t-68.5 -91t-63.5 -60q-30 -16 -116 -16h-24zM72 132q0 14 9.5 24t23.5 10t24 -6t10 -16q0 -13 -8.5 -22.5t-21.5 -9.5q-15 0 -26 6t-11 14zM4 190
q0 -102 55 -130l-12 -6q15 -20 44 -32t58 -12q93 0 151 44.5t58 121.5q0 64 -62 110t-149 46q-52 0 -91.5 -40.5t-51.5 -101.5zM100 128q8 -4 17 -4q10 0 10 10q-4 4 -14 4q-11 0 -13 -10zM-8 182v2v2q14 73 57.5 115.5t105.5 42.5q94 0 162.5 -50.5t68.5 -125.5
q0 -84 -62.5 -135t-166.5 -51q-32 0 -65.5 13.5t-52.5 38.5q-15 20 -16 21q1 0 2.5 0.5t2.5 1.5q-36 41 -36 125z" />
    <glyph glyph-name="ohungarumlaut" unicode="&#x151;" horiz-adv-x="372" 
d="M-5 399q82 0 106 13q29 16 81.5 86.5t55.5 72.5h-79q-37 0 -65 -11t-44 -25.5t-28 -40.5t-16.5 -45t-10.5 -50zM-21 371q16 89 32 121q43 91 156 91h116q-2 -1 -32 -45t-68.5 -91t-63.5 -60q-30 -16 -116 -16h-24zM191 387q82 0 106 13q29 16 81.5 86.5t55.5 72.5h-79
q-37 0 -65 -11t-44 -25.5t-28 -40.5t-16.5 -45t-10.5 -50zM175 359q16 89 32 121q43 91 156 91h116q-2 -1 -32 -45t-68.5 -91t-63.5 -60q-30 -16 -116 -16h-24zM72 132q0 14 9.5 24t23.5 10t24 -6t10 -16q0 -13 -8.5 -22.5t-21.5 -9.5q-15 0 -26 6t-11 14zM4 190
q0 -102 55 -130l-12 -6q15 -20 44 -32t58 -12q93 0 151 44.5t58 121.5q0 64 -62 110t-149 46q-52 0 -91.5 -40.5t-51.5 -101.5zM100 128q8 -4 17 -4q10 0 10 10q-4 4 -14 4q-11 0 -13 -10zM-8 182v2v2q14 73 57.5 115.5t105.5 42.5q94 0 162.5 -50.5t68.5 -125.5
q0 -84 -62.5 -135t-166.5 -51q-32 0 -65.5 13.5t-52.5 38.5q-15 20 -16 21q1 0 2.5 0.5t2.5 1.5q-36 41 -36 125z" />
    <glyph glyph-name="OE" unicode="&#x152;" horiz-adv-x="667" 
d="M72 202q0 14 9.5 24t23.5 10t24 -6t10 -16q0 -13 -8.5 -22.5t-21.5 -9.5q-15 0 -26 6t-11 14zM100 198q8 -4 17 -4q10 0 10 10q-4 4 -14 4q-11 0 -13 -10zM4 260q0 -102 55 -130l-12 -6q15 -20 44 -32t58 -12q72 0 124 26.5t73 75.5q-2 -27 -5.5 -54.5t-7.5 -52.5t-5 -36
q59 -4 131 -4q84 0 180 8q8 28 8 78q0 45 -16 78q-48 -43 -109 -43q-40 0 -76 11q0 9 7 25q26 -11 40 -11q33 0 51 14q2 30 2 40q0 32 -14 51q-43 -11 -71 -11q-3 10 -3 28q65 16 102 16q40 0 72 -22q14 44 14 75q0 42 -25 71q-93 -7 -167 -7q-33 0 -69.5 5t-41.5 5
q-17 0 -17 -17q15 -64 20 -131q-22 46 -76.5 75t-122.5 29q-52 0 -91.5 -40.5t-51.5 -101.5zM-8 252v2v2q14 73 57.5 115.5t105.5 42.5q103 0 171 -57q-5 37 -16 75q0 31 33 31q63 -15 119 -15q73 0 166 7q1 0 4.5 0.5t4.5 0.5q2 -3 3 -3.5t1.5 -1t2.5 -3.5q30 -34 30 -84
q0 -33 -15 -81q-1 -2 -4 -13t-4 -14q-2 1 -11.5 8.5t-11.5 8.5q-23 18 -60 18h-5.5t-3.5 -0.5t-2 -0.5h-1q18 -24 18 -63q0 -12 -2 -42q0 -1 -0.5 -4t-0.5 -4l-6 -6q32 9 61 35q2 2 9.5 9t9.5 9l12 -24q18 -39 18 -87q0 -55 -9 -84q-1 -1 -2.5 -6.5t-1.5 -6.5l-13 -1
q-96 -8 -182 -8q-73 0 -132 4q-2 0 -10.5 0.5t-10.5 0.5l2 21q4 36 9 71q-61 -52 -168 -52q-32 0 -65.5 13.5t-52.5 38.5q-15 20 -17 22l6 1q-36 41 -36 125z" />
    <glyph glyph-name="oe" unicode="&#x153;" horiz-adv-x="667" 
d="M72 202q0 14 9.5 24t23.5 10t24 -6t10 -16q0 -13 -8.5 -22.5t-21.5 -9.5q-15 0 -26 6t-11 14zM100 198q8 -4 17 -4q10 0 10 10q-4 4 -14 4q-11 0 -13 -10zM4 260q0 -102 55 -130l-12 -6q15 -20 44 -32t58 -12q72 0 124 26.5t73 75.5q-2 -27 -5.5 -54.5t-7.5 -52.5t-5 -36
q59 -4 131 -4q84 0 180 8q8 28 8 78q0 45 -16 78q-48 -43 -109 -43q-40 0 -76 11q0 9 7 25q26 -11 40 -11q33 0 51 14q2 30 2 40q0 32 -14 51q-43 -11 -71 -11q-3 10 -3 28q65 16 102 16q40 0 72 -22q14 44 14 75q0 42 -25 71q-93 -7 -167 -7q-33 0 -69.5 5t-41.5 5
q-17 0 -17 -17q15 -64 20 -131q-22 46 -76.5 75t-122.5 29q-52 0 -91.5 -40.5t-51.5 -101.5zM-8 252v2v2q14 73 57.5 115.5t105.5 42.5q103 0 171 -57q-5 37 -16 75q0 31 33 31q63 -15 119 -15q73 0 166 7q1 0 4.5 0.5t4.5 0.5q2 -3 3 -3.5t1.5 -1t2.5 -3.5q30 -34 30 -84
q0 -33 -15 -81q-1 -2 -4 -13t-4 -14q-2 1 -11.5 8.5t-11.5 8.5q-23 18 -60 18h-5.5t-3.5 -0.5t-2 -0.5h-1q18 -24 18 -63q0 -12 -2 -42q0 -1 -0.5 -4t-0.5 -4l-6 -6q32 9 61 35q2 2 9.5 9t9.5 9l12 -24q18 -39 18 -87q0 -55 -9 -84q-1 -1 -2.5 -6.5t-1.5 -6.5l-13 -1
q-96 -8 -182 -8q-73 0 -132 4q-2 0 -10.5 0.5t-10.5 0.5l2 21q4 36 9 71q-61 -52 -168 -52q-32 0 -65.5 13.5t-52.5 38.5q-15 20 -17 22l6 1q-36 41 -36 125z" />
    <glyph glyph-name="Racute" unicode="&#x154;" horiz-adv-x="478" 
d="M130 544q82 0 106 13q29 16 81.5 86.5t55.5 72.5h-79q-37 0 -65 -11t-44 -25.5t-28 -40.5t-16.5 -45t-10.5 -50zM114 516q16 89 32 121q43 91 156 91h116q-2 -1 -32 -45t-68.5 -91t-63.5 -60q-30 -16 -116 -16h-24zM182 342q31 0 51.5 -5t20.5 -13q0 -13 -8.5 -20.5
t-21 -11.5t-30.5 -7q-5 -1 -7 -1zM0 14q77 -16 169 -16q16 0 24.5 11t8.5 27q0 105 -13 192q54 -39 71 -85.5t17 -152.5q27 -20 62 -20q57 0 95 49t42 107q-42 0 -62 13t-27 46q-8 39 -32 62.5t-63 23.5q62 17 99.5 55.5t37.5 90.5q0 41 -36.5 71.5t-87.5 30.5
q-39 0 -98 -26.5t-98 -26.5q-15 0 -28 1.5t-29 3.5t-28 3q2 -30 6 -74.5t6.5 -79.5t2.5 -75t-6 -76t-17 -79.5t-16 -75.5zM-15 -10l3 19q6 33 16.5 77t16.5 78t6 73t-2.5 74t-6.5 79t-6 75q0 3 -1 12t-1 11q2 0 12 -1t12 -1q11 -1 38 -4.5t45 -3.5q34 0 94 26.5t102 26.5
q58 0 101 -36.5t43 -85.5q0 -91 -96 -143q42 -27 54 -85q5 -24 18.5 -33.5t50.5 -9.5h21q0 -1 -0.5 -10t-0.5 -11q-5 -65 -48 -120t-109 -55q-42 0 -74 24q-1 0 -4 3t-4 3v10q0 81 -8.5 121t-32.5 68q6 -57 6 -143q0 -23 -14 -40.5t-39 -17.5q-93 0 -173 16z" />
    <glyph glyph-name="racute" unicode="&#x155;" horiz-adv-x="478" 
d="M130 544q82 0 106 13q29 16 81.5 86.5t55.5 72.5h-79q-37 0 -65 -11t-44 -25.5t-28 -40.5t-16.5 -45t-10.5 -50zM114 516q16 89 32 121q43 91 156 91h116q-2 -1 -32 -45t-68.5 -91t-63.5 -60q-30 -16 -116 -16h-24zM182 342q31 0 51.5 -5t20.5 -13q0 -13 -8.5 -20.5
t-21 -11.5t-30.5 -7q-5 -1 -7 -1zM0 14q77 -16 169 -16q16 0 24.5 11t8.5 27q0 105 -13 192q54 -39 71 -85.5t17 -152.5q27 -20 62 -20q57 0 95 49t42 107q-42 0 -62 13t-27 46q-8 39 -32 62.5t-63 23.5q62 17 99.5 55.5t37.5 90.5q0 41 -36.5 71.5t-87.5 30.5
q-39 0 -98 -26.5t-98 -26.5q-15 0 -28 1.5t-29 3.5t-28 3q2 -30 6 -74.5t6.5 -79.5t2.5 -75t-6 -76t-17 -79.5t-16 -75.5zM-15 -10l3 19q6 33 16.5 77t16.5 78t6 73t-2.5 74t-6.5 79t-6 75q0 3 -1 12t-1 11q2 0 12 -1t12 -1q11 -1 38 -4.5t45 -3.5q34 0 94 26.5t102 26.5
q58 0 101 -36.5t43 -85.5q0 -91 -96 -143q42 -27 54 -85q5 -24 18.5 -33.5t50.5 -9.5h21q0 -1 -0.5 -10t-0.5 -11q-5 -65 -48 -120t-109 -55q-42 0 -74 24q-1 0 -4 3t-4 3v10q0 81 -8.5 121t-32.5 68q6 -57 6 -143q0 -23 -14 -40.5t-39 -17.5q-93 0 -173 16z" />
    <glyph glyph-name="Rcommaaccent" unicode="&#x156;" horiz-adv-x="478" 
d="M161 -104q0 -25 18 -37q8 3 11 3q12 0 12 -14q0 -21 -28 -47q8 -4 19 -4q31 0 50 17q32 38 32 80q0 57 -53 57q-25 0 -43 -16t-18 -39zM149 -215q34 33 42 46l-9 -3q-31 22 -31 58q0 35 22.5 55t58.5 20t54.5 -21t18.5 -56q0 -48 -37 -94q-26 -23 -65 -23q-18 0 -54 18z
M182 342q31 0 51.5 -5t20.5 -13q0 -13 -8.5 -20.5t-21 -11.5t-30.5 -7q-5 -1 -7 -1zM0 14q77 -16 169 -16q16 0 24.5 11t8.5 27q0 105 -13 192q54 -39 71 -85.5t17 -152.5q27 -20 62 -20q57 0 95 49t42 107q-42 0 -62 13t-27 46q-8 39 -32 62.5t-63 23.5q62 17 99.5 55.5
t37.5 90.5q0 41 -36.5 71.5t-87.5 30.5q-39 0 -98 -26.5t-98 -26.5q-15 0 -28 1.5t-29 3.5t-28 3q2 -30 6 -74.5t6.5 -79.5t2.5 -75t-6 -76t-17 -79.5t-16 -75.5zM-15 -10l3 19q6 33 16.5 77t16.5 78t6 73t-2.5 74t-6.5 79t-6 75q0 3 -1 12t-1 11q2 0 12 -1t12 -1
q11 -1 38 -4.5t45 -3.5q34 0 94 26.5t102 26.5q58 0 101 -36.5t43 -85.5q0 -91 -96 -143q42 -27 54 -85q5 -24 18.5 -33.5t50.5 -9.5h21q0 -1 -0.5 -10t-0.5 -11q-5 -65 -48 -120t-109 -55q-42 0 -74 24q-1 0 -4 3t-4 3v10q0 81 -8.5 121t-32.5 68q6 -57 6 -143
q0 -23 -14 -40.5t-39 -17.5q-93 0 -173 16z" />
    <glyph glyph-name="rcommaaccent" unicode="&#x157;" horiz-adv-x="478" 
d="M161 -104q0 -25 18 -37q8 3 11 3q12 0 12 -14q0 -21 -28 -47q8 -4 19 -4q31 0 50 17q32 38 32 80q0 57 -53 57q-25 0 -43 -16t-18 -39zM149 -215q34 33 42 46l-9 -3q-31 22 -31 58q0 35 22.5 55t58.5 20t54.5 -21t18.5 -56q0 -48 -37 -94q-26 -23 -65 -23q-18 0 -54 18z
M182 342q31 0 51.5 -5t20.5 -13q0 -13 -8.5 -20.5t-21 -11.5t-30.5 -7q-5 -1 -7 -1zM0 14q77 -16 169 -16q16 0 24.5 11t8.5 27q0 105 -13 192q54 -39 71 -85.5t17 -152.5q27 -20 62 -20q57 0 95 49t42 107q-42 0 -62 13t-27 46q-8 39 -32 62.5t-63 23.5q62 17 99.5 55.5
t37.5 90.5q0 41 -36.5 71.5t-87.5 30.5q-39 0 -98 -26.5t-98 -26.5q-15 0 -28 1.5t-29 3.5t-28 3q2 -30 6 -74.5t6.5 -79.5t2.5 -75t-6 -76t-17 -79.5t-16 -75.5zM-15 -10l3 19q6 33 16.5 77t16.5 78t6 73t-2.5 74t-6.5 79t-6 75q0 3 -1 12t-1 11q2 0 12 -1t12 -1
q11 -1 38 -4.5t45 -3.5q34 0 94 26.5t102 26.5q58 0 101 -36.5t43 -85.5q0 -91 -96 -143q42 -27 54 -85q5 -24 18.5 -33.5t50.5 -9.5h21q0 -1 -0.5 -10t-0.5 -11q-5 -65 -48 -120t-109 -55q-42 0 -74 24q-1 0 -4 3t-4 3v10q0 81 -8.5 121t-32.5 68q6 -57 6 -143
q0 -23 -14 -40.5t-39 -17.5q-93 0 -173 16z" />
    <glyph glyph-name="Rcaron" unicode="&#x158;" horiz-adv-x="478" 
d="M78 649q0 -12 10 -21q60 -49 106 -92q13 -8 26 -8q4 0 22 2q9 10 37 28t53 39q42 38 42 67q0 36 -53 57q-4 -19 -24.5 -46t-55.5 -48q-32 52 -96 94q-29 -18 -43 -30q-24 -22 -24 -42zM67 640q0 30 30 57q24 21 57 39q64 -42 102 -91q54 40 61 94q87 -28 87 -85
q0 -38 -49 -82q-22 -18 -51.5 -38t-41.5 -33q-18 -3 -32 -3q-23 0 -39 11q-15 12 -47.5 42t-58.5 52q-18 16 -18 37zM182 342q31 0 51.5 -5t20.5 -13q0 -13 -8.5 -20.5t-21 -11.5t-30.5 -7q-5 -1 -7 -1zM0 14q77 -16 169 -16q16 0 24.5 11t8.5 27q0 105 -13 192
q54 -39 71 -85.5t17 -152.5q27 -20 62 -20q57 0 95 49t42 107q-42 0 -62 13t-27 46q-8 39 -32 62.5t-63 23.5q62 17 99.5 55.5t37.5 90.5q0 41 -36.5 71.5t-87.5 30.5q-39 0 -98 -26.5t-98 -26.5q-15 0 -28 1.5t-29 3.5t-28 3q2 -30 6 -74.5t6.5 -79.5t2.5 -75t-6 -76
t-17 -79.5t-16 -75.5zM-15 -10l3 19q6 33 16.5 77t16.5 78t6 73t-2.5 74t-6.5 79t-6 75q0 3 -1 12t-1 11q2 0 12 -1t12 -1q11 -1 38 -4.5t45 -3.5q34 0 94 26.5t102 26.5q58 0 101 -36.5t43 -85.5q0 -91 -96 -143q42 -27 54 -85q5 -24 18.5 -33.5t50.5 -9.5h21
q0 -1 -0.5 -10t-0.5 -11q-5 -65 -48 -120t-109 -55q-42 0 -74 24q-1 0 -4 3t-4 3v10q0 81 -8.5 121t-32.5 68q6 -57 6 -143q0 -23 -14 -40.5t-39 -17.5q-93 0 -173 16z" />
    <glyph glyph-name="rcaron" unicode="&#x159;" horiz-adv-x="478" 
d="M78 649q0 -12 10 -21q60 -49 106 -92q13 -8 26 -8q4 0 22 2q9 10 37 28t53 39q42 38 42 67q0 36 -53 57q-4 -19 -24.5 -46t-55.5 -48q-32 52 -96 94q-29 -18 -43 -30q-24 -22 -24 -42zM67 640q0 30 30 57q24 21 57 39q64 -42 102 -91q54 40 61 94q87 -28 87 -85
q0 -38 -49 -82q-22 -18 -51.5 -38t-41.5 -33q-18 -3 -32 -3q-23 0 -39 11q-15 12 -47.5 42t-58.5 52q-18 16 -18 37zM182 342q31 0 51.5 -5t20.5 -13q0 -13 -8.5 -20.5t-21 -11.5t-30.5 -7q-5 -1 -7 -1zM0 14q77 -16 169 -16q16 0 24.5 11t8.5 27q0 105 -13 192
q54 -39 71 -85.5t17 -152.5q27 -20 62 -20q57 0 95 49t42 107q-42 0 -62 13t-27 46q-8 39 -32 62.5t-63 23.5q62 17 99.5 55.5t37.5 90.5q0 41 -36.5 71.5t-87.5 30.5q-39 0 -98 -26.5t-98 -26.5q-15 0 -28 1.5t-29 3.5t-28 3q2 -30 6 -74.5t6.5 -79.5t2.5 -75t-6 -76
t-17 -79.5t-16 -75.5zM-15 -10l3 19q6 33 16.5 77t16.5 78t6 73t-2.5 74t-6.5 79t-6 75q0 3 -1 12t-1 11q2 0 12 -1t12 -1q11 -1 38 -4.5t45 -3.5q34 0 94 26.5t102 26.5q58 0 101 -36.5t43 -85.5q0 -91 -96 -143q42 -27 54 -85q5 -24 18.5 -33.5t50.5 -9.5h21
q0 -1 -0.5 -10t-0.5 -11q-5 -65 -48 -120t-109 -55q-42 0 -74 24q-1 0 -4 3t-4 3v10q0 81 -8.5 121t-32.5 68q6 -57 6 -143q0 -23 -14 -40.5t-39 -17.5q-93 0 -173 16z" />
    <glyph glyph-name="Sacute" unicode="&#x15a;" horiz-adv-x="325" 
d="M86 506q82 0 106 13q29 16 81.5 86.5t55.5 72.5h-79q-37 0 -65 -11t-44 -25.5t-28 -40.5t-16.5 -45t-10.5 -50zM70 478q16 89 32 121q43 91 156 91h116q-2 -1 -32 -45t-68.5 -91t-63.5 -60q-30 -16 -116 -16h-24zM13 19q17 -3 44 -10t49.5 -11.5t44.5 -4.5q67 0 114.5 41
t47.5 99q0 36 -22 64t-58 39q-49 15 -55 24q-2 4 -2 7q0 9 14 9q29 0 52 -7q13 96 48 161q-102 20 -152 20q-45 0 -79 -26t-34 -62q0 -53 42 -98q43 -46 43 -98q0 -19 -12 -32.5t-29 -13.5q-8 0 -16 3.5t-18 10t-16 9.5zM0 -5l7 141q0 3 1 15.5t1 15.5l28 -14q7 -4 16 -9.5
t14.5 -8.5t9.5 -3q8 0 14.5 7.5t6.5 18.5q0 42 -38 84q-47 51 -47 112q0 52 39.5 80t93.5 28q53 0 156 -20q3 -1 14 -3.5t13 -2.5q-1 -3 -6 -12t-7 -11q-35 -65 -46 -155q0 -1 -1.5 -9t-1.5 -10q34 -17 54 -47t20 -67q0 -67 -54 -113.5t-128 -46.5q-24 0 -45 4t-49.5 11
t-47.5 11z" />
    <glyph glyph-name="sacute" unicode="&#x15b;" horiz-adv-x="325" 
d="M86 506q82 0 106 13q29 16 81.5 86.5t55.5 72.5h-79q-37 0 -65 -11t-44 -25.5t-28 -40.5t-16.5 -45t-10.5 -50zM70 478q16 89 32 121q43 91 156 91h116q-2 -1 -32 -45t-68.5 -91t-63.5 -60q-30 -16 -116 -16h-24zM13 19q17 -3 44 -10t49.5 -11.5t44.5 -4.5q67 0 114.5 41
t47.5 99q0 36 -22 64t-58 39q-49 15 -55 24q-2 4 -2 7q0 9 14 9q29 0 52 -7q13 96 48 161q-102 20 -152 20q-45 0 -79 -26t-34 -62q0 -53 42 -98q43 -46 43 -98q0 -19 -12 -32.5t-29 -13.5q-8 0 -16 3.5t-18 10t-16 9.5zM0 -5l7 141q0 3 1 15.5t1 15.5l28 -14q7 -4 16 -9.5
t14.5 -8.5t9.5 -3q8 0 14.5 7.5t6.5 18.5q0 42 -38 84q-47 51 -47 112q0 52 39.5 80t93.5 28q53 0 156 -20q3 -1 14 -3.5t13 -2.5q-1 -3 -6 -12t-7 -11q-35 -65 -46 -155q0 -1 -1.5 -9t-1.5 -10q34 -17 54 -47t20 -67q0 -67 -54 -113.5t-128 -46.5q-24 0 -45 4t-49.5 11
t-47.5 11z" />
    <glyph glyph-name="Scircumflex" unicode="&#x15c;" horiz-adv-x="325" 
d="M29 582q0 -20 24 -42q18 -16 43 -31q64 42 96 94q35 -21 56 -48t25 -46q52 21 52 58q0 28 -42 66q-24 21 -52 39.5t-37 28.5q-18 2 -22 2q-13 0 -26 -8q-47 -44 -107 -93q-10 -9 -10 -20zM19 572q0 21 17 36q26 22 58.5 52t47.5 42q16 11 40 11q13 0 31 -3
q13 -13 42.5 -33.5t50.5 -38.5q49 -44 49 -81q0 -57 -87 -85q-7 54 -61 94q-40 -52 -100 -91q-34 19 -57 40q-31 28 -31 57zM13 19q17 -3 44 -10t49.5 -11.5t44.5 -4.5q67 0 114.5 41t47.5 99q0 36 -22 64t-58 39q-49 15 -55 24q-2 4 -2 7q0 9 14 9q29 0 52 -7q13 96 48 161
q-102 20 -152 20q-45 0 -79 -26t-34 -62q0 -53 42 -98q43 -46 43 -98q0 -19 -12 -32.5t-29 -13.5q-8 0 -16 3.5t-18 10t-16 9.5zM0 -5l7 141q0 3 1 15.5t1 15.5l28 -14q7 -4 16 -9.5t14.5 -8.5t9.5 -3q8 0 14.5 7.5t6.5 18.5q0 42 -38 84q-47 51 -47 112q0 52 39.5 80
t93.5 28q53 0 156 -20q3 -1 14 -3.5t13 -2.5q-1 -3 -6 -12t-7 -11q-35 -65 -46 -155q0 -1 -1.5 -9t-1.5 -10q34 -17 54 -47t20 -67q0 -67 -54 -113.5t-128 -46.5q-24 0 -45 4t-49.5 11t-47.5 11z" />
    </font>
</defs>
</svg>
